%TF.GenerationSoftware,KiCad,Pcbnew,9.0.1+1*%
%TF.CreationDate,2025-05-26T16:30:20+08:00*%
%TF.ProjectId,audio_lab,61756469-6f5f-46c6-9162-2e6b69636164,rev?*%
%TF.SameCoordinates,Original*%
%TF.FileFunction,Paste,Bot*%
%TF.FilePolarity,Positive*%
%FSLAX46Y46*%
G04 Gerber Fmt 4.6, Leading zero omitted, Abs format (unit mm)*
G04 Created by KiCad (PCBNEW 9.0.1+1) date 2025-05-26 16:30:20*
%MOMM*%
%LPD*%
G01*
G04 APERTURE LIST*
G04 Aperture macros list*
%AMRoundRect*
0 Rectangle with rounded corners*
0 $1 Rounding radius*
0 $2 $3 $4 $5 $6 $7 $8 $9 X,Y pos of 4 corners*
0 Add a 4 corners polygon primitive as box body*
4,1,4,$2,$3,$4,$5,$6,$7,$8,$9,$2,$3,0*
0 Add four circle primitives for the rounded corners*
1,1,$1+$1,$2,$3*
1,1,$1+$1,$4,$5*
1,1,$1+$1,$6,$7*
1,1,$1+$1,$8,$9*
0 Add four rect primitives between the rounded corners*
20,1,$1+$1,$2,$3,$4,$5,0*
20,1,$1+$1,$4,$5,$6,$7,0*
20,1,$1+$1,$6,$7,$8,$9,0*
20,1,$1+$1,$8,$9,$2,$3,0*%
G04 Aperture macros list end*
%ADD10C,0.120000*%
%ADD11RoundRect,0.150000X0.825000X0.150000X-0.825000X0.150000X-0.825000X-0.150000X0.825000X-0.150000X0*%
%ADD12RoundRect,0.135000X-0.135000X-0.185000X0.135000X-0.185000X0.135000X0.185000X-0.135000X0.185000X0*%
%ADD13RoundRect,0.140000X-0.170000X0.140000X-0.170000X-0.140000X0.170000X-0.140000X0.170000X0.140000X0*%
%ADD14RoundRect,0.050165X-0.300355X0.050165X-0.300355X-0.050165X0.300355X-0.050165X0.300355X0.050165X0*%
%ADD15RoundRect,0.140000X0.170000X-0.140000X0.170000X0.140000X-0.170000X0.140000X-0.170000X-0.140000X0*%
%ADD16RoundRect,0.140000X-0.140000X-0.170000X0.140000X-0.170000X0.140000X0.170000X-0.140000X0.170000X0*%
G04 APERTURE END LIST*
%TO.C,J8*%
D10*
X111161520Y-84231120D02*
X110951520Y-84231120D01*
X110951520Y-84151120D01*
X111161520Y-84151120D01*
X111161520Y-84231120D01*
X111161520Y-84631120D02*
X110951520Y-84631120D01*
X110951520Y-84551120D01*
X111161520Y-84551120D01*
X111161520Y-84631120D01*
X111161520Y-85031120D02*
X110951520Y-85031120D01*
X110951520Y-84951120D01*
X111161520Y-84951120D01*
X111161520Y-85031120D01*
X111161520Y-85431120D02*
X110951520Y-85431120D01*
X110951520Y-85351120D01*
X111161520Y-85351120D01*
X111161520Y-85431120D01*
X111161520Y-85831120D02*
X110951520Y-85831120D01*
X110951520Y-85751120D01*
X111161520Y-85751120D01*
X111161520Y-85831120D01*
X111161520Y-86231120D02*
X110951520Y-86231120D01*
X110951520Y-86151120D01*
X111161520Y-86151120D01*
X111161520Y-86231120D01*
X111161520Y-86631120D02*
X110951520Y-86631120D01*
X110951520Y-86551120D01*
X111161520Y-86551120D01*
X111161520Y-86631120D01*
X111161520Y-87031120D02*
X110951520Y-87031120D01*
X110951520Y-86951120D01*
X111161520Y-86951120D01*
X111161520Y-87031120D01*
X111161520Y-87431120D02*
X110951520Y-87431120D01*
X110951520Y-87351120D01*
X111161520Y-87351120D01*
X111161520Y-87431120D01*
X111161520Y-87831120D02*
X110951520Y-87831120D01*
X110951520Y-87751120D01*
X111161520Y-87751120D01*
X111161520Y-87831120D01*
X111161520Y-88231120D02*
X110951520Y-88231120D01*
X110951520Y-88151120D01*
X111161520Y-88151120D01*
X111161520Y-88231120D01*
X111161520Y-88631120D02*
X110951520Y-88631120D01*
X110951520Y-88551120D01*
X111161520Y-88551120D01*
X111161520Y-88631120D01*
X111161520Y-89031120D02*
X110951520Y-89031120D01*
X110951520Y-88951120D01*
X111161520Y-88951120D01*
X111161520Y-89031120D01*
X111161520Y-89431120D02*
X110951520Y-89431120D01*
X110951520Y-89351120D01*
X111161520Y-89351120D01*
X111161520Y-89431120D01*
X111161520Y-89831120D02*
X110951520Y-89831120D01*
X110951520Y-89751120D01*
X111161520Y-89751120D01*
X111161520Y-89831120D01*
X111161520Y-90231120D02*
X110951520Y-90231120D01*
X110951520Y-90151120D01*
X111161520Y-90151120D01*
X111161520Y-90231120D01*
X111161520Y-90631120D02*
X110951520Y-90631120D01*
X110951520Y-90551120D01*
X111161520Y-90551120D01*
X111161520Y-90631120D01*
X111161520Y-91031120D02*
X110951520Y-91031120D01*
X110951520Y-90951120D01*
X111161520Y-90951120D01*
X111161520Y-91031120D01*
X111161520Y-91431120D02*
X110951520Y-91431120D01*
X110951520Y-91351120D01*
X111161520Y-91351120D01*
X111161520Y-91431120D01*
X111161520Y-91831120D02*
X110951520Y-91831120D01*
X110951520Y-91751120D01*
X111161520Y-91751120D01*
X111161520Y-91831120D01*
X111161520Y-92231120D02*
X110951520Y-92231120D01*
X110951520Y-92151120D01*
X111161520Y-92151120D01*
X111161520Y-92231120D01*
X111161520Y-92631120D02*
X110951520Y-92631120D01*
X110951520Y-92551120D01*
X111161520Y-92551120D01*
X111161520Y-92631120D01*
X111161520Y-93031120D02*
X110951520Y-93031120D01*
X110951520Y-92951120D01*
X111161520Y-92951120D01*
X111161520Y-93031120D01*
X111161520Y-93431120D02*
X110951520Y-93431120D01*
X110951520Y-93351120D01*
X111161520Y-93351120D01*
X111161520Y-93431120D01*
X111161520Y-93831120D02*
X110951520Y-93831120D01*
X110951520Y-93751120D01*
X111161520Y-93751120D01*
X111161520Y-93831120D01*
X111161520Y-94231120D02*
X110951520Y-94231120D01*
X110951520Y-94151120D01*
X111161520Y-94151120D01*
X111161520Y-94231120D01*
X111161520Y-94631120D02*
X110951520Y-94631120D01*
X110951520Y-94551120D01*
X111161520Y-94551120D01*
X111161520Y-94631120D01*
X111161520Y-95031120D02*
X110951520Y-95031120D01*
X110951520Y-94951120D01*
X111161520Y-94951120D01*
X111161520Y-95031120D01*
X111161520Y-95431120D02*
X110951520Y-95431120D01*
X110951520Y-95351120D01*
X111161520Y-95351120D01*
X111161520Y-95431120D01*
X111161520Y-95831120D02*
X110951520Y-95831120D01*
X110951520Y-95751120D01*
X111161520Y-95751120D01*
X111161520Y-95831120D01*
X115051520Y-84231120D02*
X114841520Y-84231120D01*
X114841520Y-84151120D01*
X115051520Y-84151120D01*
X115051520Y-84231120D01*
X115051520Y-84631120D02*
X114841520Y-84631120D01*
X114841520Y-84551120D01*
X115051520Y-84551120D01*
X115051520Y-84631120D01*
X115051520Y-85031120D02*
X114841520Y-85031120D01*
X114841520Y-84951120D01*
X115051520Y-84951120D01*
X115051520Y-85031120D01*
X115051520Y-85431120D02*
X114841520Y-85431120D01*
X114841520Y-85351120D01*
X115051520Y-85351120D01*
X115051520Y-85431120D01*
X115051520Y-85831120D02*
X114841520Y-85831120D01*
X114841520Y-85751120D01*
X115051520Y-85751120D01*
X115051520Y-85831120D01*
X115051520Y-86231120D02*
X114841520Y-86231120D01*
X114841520Y-86151120D01*
X115051520Y-86151120D01*
X115051520Y-86231120D01*
X115051520Y-86631120D02*
X114841520Y-86631120D01*
X114841520Y-86551120D01*
X115051520Y-86551120D01*
X115051520Y-86631120D01*
X115051520Y-87031120D02*
X114841520Y-87031120D01*
X114841520Y-86951120D01*
X115051520Y-86951120D01*
X115051520Y-87031120D01*
X115051520Y-87431120D02*
X114841520Y-87431120D01*
X114841520Y-87351120D01*
X115051520Y-87351120D01*
X115051520Y-87431120D01*
X115051520Y-87831120D02*
X114841520Y-87831120D01*
X114841520Y-87751120D01*
X115051520Y-87751120D01*
X115051520Y-87831120D01*
X115051520Y-88231120D02*
X114841520Y-88231120D01*
X114841520Y-88151120D01*
X115051520Y-88151120D01*
X115051520Y-88231120D01*
X115051520Y-88631120D02*
X114841520Y-88631120D01*
X114841520Y-88551120D01*
X115051520Y-88551120D01*
X115051520Y-88631120D01*
X115051520Y-89031120D02*
X114841520Y-89031120D01*
X114841520Y-88951120D01*
X115051520Y-88951120D01*
X115051520Y-89031120D01*
X115051520Y-89431120D02*
X114841520Y-89431120D01*
X114841520Y-89351120D01*
X115051520Y-89351120D01*
X115051520Y-89431120D01*
X115051520Y-89831120D02*
X114841520Y-89831120D01*
X114841520Y-89751120D01*
X115051520Y-89751120D01*
X115051520Y-89831120D01*
X115051520Y-90231120D02*
X114841520Y-90231120D01*
X114841520Y-90151120D01*
X115051520Y-90151120D01*
X115051520Y-90231120D01*
X115051520Y-90631120D02*
X114841520Y-90631120D01*
X114841520Y-90551120D01*
X115051520Y-90551120D01*
X115051520Y-90631120D01*
X115051520Y-91031120D02*
X114841520Y-91031120D01*
X114841520Y-90951120D01*
X115051520Y-90951120D01*
X115051520Y-91031120D01*
X115051520Y-91431120D02*
X114841520Y-91431120D01*
X114841520Y-91351120D01*
X115051520Y-91351120D01*
X115051520Y-91431120D01*
X115051520Y-91831120D02*
X114841520Y-91831120D01*
X114841520Y-91751120D01*
X115051520Y-91751120D01*
X115051520Y-91831120D01*
X115051520Y-92231120D02*
X114841520Y-92231120D01*
X114841520Y-92151120D01*
X115051520Y-92151120D01*
X115051520Y-92231120D01*
X115051520Y-92631120D02*
X114841520Y-92631120D01*
X114841520Y-92551120D01*
X115051520Y-92551120D01*
X115051520Y-92631120D01*
X115051520Y-93031120D02*
X114841520Y-93031120D01*
X114841520Y-92951120D01*
X115051520Y-92951120D01*
X115051520Y-93031120D01*
X115051520Y-93431120D02*
X114841520Y-93431120D01*
X114841520Y-93351120D01*
X115051520Y-93351120D01*
X115051520Y-93431120D01*
X115051520Y-93831120D02*
X114841520Y-93831120D01*
X114841520Y-93751120D01*
X115051520Y-93751120D01*
X115051520Y-93831120D01*
X115051520Y-94231120D02*
X114841520Y-94231120D01*
X114841520Y-94151120D01*
X115051520Y-94151120D01*
X115051520Y-94231120D01*
X115051520Y-94631120D02*
X114841520Y-94631120D01*
X114841520Y-94551120D01*
X115051520Y-94551120D01*
X115051520Y-94631120D01*
X115051520Y-95031120D02*
X114841520Y-95031120D01*
X114841520Y-94951120D01*
X115051520Y-94951120D01*
X115051520Y-95031120D01*
X115051520Y-95431120D02*
X114841520Y-95431120D01*
X114841520Y-95351120D01*
X115051520Y-95351120D01*
X115051520Y-95431120D01*
X115051520Y-95831120D02*
X114841520Y-95831120D01*
X114841520Y-95751120D01*
X115051520Y-95751120D01*
X115051520Y-95831120D01*
%TO.C,J7*%
X97161520Y-84231122D02*
X96951520Y-84231122D01*
X96951520Y-84151122D01*
X97161520Y-84151122D01*
X97161520Y-84231122D01*
X97161520Y-84631122D02*
X96951520Y-84631122D01*
X96951520Y-84551122D01*
X97161520Y-84551122D01*
X97161520Y-84631122D01*
X97161520Y-85031122D02*
X96951520Y-85031122D01*
X96951520Y-84951122D01*
X97161520Y-84951122D01*
X97161520Y-85031122D01*
X97161520Y-85431122D02*
X96951520Y-85431122D01*
X96951520Y-85351122D01*
X97161520Y-85351122D01*
X97161520Y-85431122D01*
X97161520Y-85831122D02*
X96951520Y-85831122D01*
X96951520Y-85751122D01*
X97161520Y-85751122D01*
X97161520Y-85831122D01*
X97161520Y-86231122D02*
X96951520Y-86231122D01*
X96951520Y-86151122D01*
X97161520Y-86151122D01*
X97161520Y-86231122D01*
X97161520Y-86631122D02*
X96951520Y-86631122D01*
X96951520Y-86551122D01*
X97161520Y-86551122D01*
X97161520Y-86631122D01*
X97161520Y-87031122D02*
X96951520Y-87031122D01*
X96951520Y-86951122D01*
X97161520Y-86951122D01*
X97161520Y-87031122D01*
X97161520Y-87431122D02*
X96951520Y-87431122D01*
X96951520Y-87351122D01*
X97161520Y-87351122D01*
X97161520Y-87431122D01*
X97161520Y-87831122D02*
X96951520Y-87831122D01*
X96951520Y-87751122D01*
X97161520Y-87751122D01*
X97161520Y-87831122D01*
X97161520Y-88231122D02*
X96951520Y-88231122D01*
X96951520Y-88151122D01*
X97161520Y-88151122D01*
X97161520Y-88231122D01*
X97161520Y-88631122D02*
X96951520Y-88631122D01*
X96951520Y-88551122D01*
X97161520Y-88551122D01*
X97161520Y-88631122D01*
X97161520Y-89031122D02*
X96951520Y-89031122D01*
X96951520Y-88951122D01*
X97161520Y-88951122D01*
X97161520Y-89031122D01*
X97161520Y-89431122D02*
X96951520Y-89431122D01*
X96951520Y-89351122D01*
X97161520Y-89351122D01*
X97161520Y-89431122D01*
X97161520Y-89831122D02*
X96951520Y-89831122D01*
X96951520Y-89751122D01*
X97161520Y-89751122D01*
X97161520Y-89831122D01*
X97161520Y-90231122D02*
X96951520Y-90231122D01*
X96951520Y-90151122D01*
X97161520Y-90151122D01*
X97161520Y-90231122D01*
X97161520Y-90631122D02*
X96951520Y-90631122D01*
X96951520Y-90551122D01*
X97161520Y-90551122D01*
X97161520Y-90631122D01*
X97161520Y-91031122D02*
X96951520Y-91031122D01*
X96951520Y-90951122D01*
X97161520Y-90951122D01*
X97161520Y-91031122D01*
X97161520Y-91431122D02*
X96951520Y-91431122D01*
X96951520Y-91351122D01*
X97161520Y-91351122D01*
X97161520Y-91431122D01*
X97161520Y-91831122D02*
X96951520Y-91831122D01*
X96951520Y-91751122D01*
X97161520Y-91751122D01*
X97161520Y-91831122D01*
X97161520Y-92231122D02*
X96951520Y-92231122D01*
X96951520Y-92151122D01*
X97161520Y-92151122D01*
X97161520Y-92231122D01*
X97161520Y-92631122D02*
X96951520Y-92631122D01*
X96951520Y-92551122D01*
X97161520Y-92551122D01*
X97161520Y-92631122D01*
X97161520Y-93031122D02*
X96951520Y-93031122D01*
X96951520Y-92951122D01*
X97161520Y-92951122D01*
X97161520Y-93031122D01*
X97161520Y-93431122D02*
X96951520Y-93431122D01*
X96951520Y-93351122D01*
X97161520Y-93351122D01*
X97161520Y-93431122D01*
X97161520Y-93831122D02*
X96951520Y-93831122D01*
X96951520Y-93751122D01*
X97161520Y-93751122D01*
X97161520Y-93831122D01*
X97161520Y-94231122D02*
X96951520Y-94231122D01*
X96951520Y-94151122D01*
X97161520Y-94151122D01*
X97161520Y-94231122D01*
X97161520Y-94631122D02*
X96951520Y-94631122D01*
X96951520Y-94551122D01*
X97161520Y-94551122D01*
X97161520Y-94631122D01*
X97161520Y-95031122D02*
X96951520Y-95031122D01*
X96951520Y-94951122D01*
X97161520Y-94951122D01*
X97161520Y-95031122D01*
X97161520Y-95431122D02*
X96951520Y-95431122D01*
X96951520Y-95351122D01*
X97161520Y-95351122D01*
X97161520Y-95431122D01*
X97161520Y-95831122D02*
X96951520Y-95831122D01*
X96951520Y-95751122D01*
X97161520Y-95751122D01*
X97161520Y-95831122D01*
X101051520Y-84231122D02*
X100841520Y-84231122D01*
X100841520Y-84151122D01*
X101051520Y-84151122D01*
X101051520Y-84231122D01*
X101051520Y-84631122D02*
X100841520Y-84631122D01*
X100841520Y-84551122D01*
X101051520Y-84551122D01*
X101051520Y-84631122D01*
X101051520Y-85031122D02*
X100841520Y-85031122D01*
X100841520Y-84951122D01*
X101051520Y-84951122D01*
X101051520Y-85031122D01*
X101051520Y-85431122D02*
X100841520Y-85431122D01*
X100841520Y-85351122D01*
X101051520Y-85351122D01*
X101051520Y-85431122D01*
X101051520Y-85831122D02*
X100841520Y-85831122D01*
X100841520Y-85751122D01*
X101051520Y-85751122D01*
X101051520Y-85831122D01*
X101051520Y-86231122D02*
X100841520Y-86231122D01*
X100841520Y-86151122D01*
X101051520Y-86151122D01*
X101051520Y-86231122D01*
X101051520Y-86631122D02*
X100841520Y-86631122D01*
X100841520Y-86551122D01*
X101051520Y-86551122D01*
X101051520Y-86631122D01*
X101051520Y-87031122D02*
X100841520Y-87031122D01*
X100841520Y-86951122D01*
X101051520Y-86951122D01*
X101051520Y-87031122D01*
X101051520Y-87431122D02*
X100841520Y-87431122D01*
X100841520Y-87351122D01*
X101051520Y-87351122D01*
X101051520Y-87431122D01*
X101051520Y-87831122D02*
X100841520Y-87831122D01*
X100841520Y-87751122D01*
X101051520Y-87751122D01*
X101051520Y-87831122D01*
X101051520Y-88231122D02*
X100841520Y-88231122D01*
X100841520Y-88151122D01*
X101051520Y-88151122D01*
X101051520Y-88231122D01*
X101051520Y-88631122D02*
X100841520Y-88631122D01*
X100841520Y-88551122D01*
X101051520Y-88551122D01*
X101051520Y-88631122D01*
X101051520Y-89031122D02*
X100841520Y-89031122D01*
X100841520Y-88951122D01*
X101051520Y-88951122D01*
X101051520Y-89031122D01*
X101051520Y-89431122D02*
X100841520Y-89431122D01*
X100841520Y-89351122D01*
X101051520Y-89351122D01*
X101051520Y-89431122D01*
X101051520Y-89831122D02*
X100841520Y-89831122D01*
X100841520Y-89751122D01*
X101051520Y-89751122D01*
X101051520Y-89831122D01*
X101051520Y-90231122D02*
X100841520Y-90231122D01*
X100841520Y-90151122D01*
X101051520Y-90151122D01*
X101051520Y-90231122D01*
X101051520Y-90631122D02*
X100841520Y-90631122D01*
X100841520Y-90551122D01*
X101051520Y-90551122D01*
X101051520Y-90631122D01*
X101051520Y-91031122D02*
X100841520Y-91031122D01*
X100841520Y-90951122D01*
X101051520Y-90951122D01*
X101051520Y-91031122D01*
X101051520Y-91431122D02*
X100841520Y-91431122D01*
X100841520Y-91351122D01*
X101051520Y-91351122D01*
X101051520Y-91431122D01*
X101051520Y-91831122D02*
X100841520Y-91831122D01*
X100841520Y-91751122D01*
X101051520Y-91751122D01*
X101051520Y-91831122D01*
X101051520Y-92231122D02*
X100841520Y-92231122D01*
X100841520Y-92151122D01*
X101051520Y-92151122D01*
X101051520Y-92231122D01*
X101051520Y-92631122D02*
X100841520Y-92631122D01*
X100841520Y-92551122D01*
X101051520Y-92551122D01*
X101051520Y-92631122D01*
X101051520Y-93031122D02*
X100841520Y-93031122D01*
X100841520Y-92951122D01*
X101051520Y-92951122D01*
X101051520Y-93031122D01*
X101051520Y-93431122D02*
X100841520Y-93431122D01*
X100841520Y-93351122D01*
X101051520Y-93351122D01*
X101051520Y-93431122D01*
X101051520Y-93831122D02*
X100841520Y-93831122D01*
X100841520Y-93751122D01*
X101051520Y-93751122D01*
X101051520Y-93831122D01*
X101051520Y-94231122D02*
X100841520Y-94231122D01*
X100841520Y-94151122D01*
X101051520Y-94151122D01*
X101051520Y-94231122D01*
X101051520Y-94631122D02*
X100841520Y-94631122D01*
X100841520Y-94551122D01*
X101051520Y-94551122D01*
X101051520Y-94631122D01*
X101051520Y-95031122D02*
X100841520Y-95031122D01*
X100841520Y-94951122D01*
X101051520Y-94951122D01*
X101051520Y-95031122D01*
X101051520Y-95431122D02*
X100841520Y-95431122D01*
X100841520Y-95351122D01*
X101051520Y-95351122D01*
X101051520Y-95431122D01*
X101051520Y-95831122D02*
X100841520Y-95831122D01*
X100841520Y-95751122D01*
X101051520Y-95751122D01*
X101051520Y-95831122D01*
%TD*%
D11*
%TO.C,U9*%
X134350000Y-90682500D03*
X134350000Y-91952500D03*
X134350000Y-93222500D03*
X134350000Y-94492500D03*
X129400000Y-94492500D03*
X129400000Y-93222500D03*
X129400000Y-91952500D03*
X129400000Y-90682500D03*
%TD*%
D12*
%TO.C,R27*%
X95090000Y-81987500D03*
X96110000Y-81987500D03*
%TD*%
D13*
%TO.C,C47*%
X95250000Y-83207500D03*
X95250000Y-84167500D03*
%TD*%
D14*
%TO.C,J8*%
X114540000Y-95789380D03*
X111461520Y-95789380D03*
X114540000Y-95390600D03*
X111461518Y-95390600D03*
X114540000Y-94991820D03*
X111461520Y-94991820D03*
X114540000Y-94590498D03*
X111461520Y-94590500D03*
X114540000Y-94191723D03*
X111461520Y-94191720D03*
X114540000Y-93790400D03*
X111461520Y-93790400D03*
X114540000Y-93391620D03*
X111461518Y-93391620D03*
X114540000Y-92990300D03*
X111461520Y-92990303D03*
X114540000Y-92591520D03*
X111461520Y-92591520D03*
X114539998Y-92190200D03*
X111461520Y-92190200D03*
X114540000Y-91791420D03*
X111461520Y-91791420D03*
X114540000Y-91390100D03*
X111461520Y-91390100D03*
X114540000Y-90991320D03*
X111461520Y-90991323D03*
X114540000Y-90590000D03*
X111461520Y-90590000D03*
X114539998Y-90191220D03*
X111461520Y-90191220D03*
X114539998Y-89789900D03*
X111461520Y-89789900D03*
X114540000Y-89391120D03*
X111461520Y-89391120D03*
X114540000Y-88989800D03*
X111461520Y-88989798D03*
X114540000Y-88591020D03*
X111461520Y-88591020D03*
X114540000Y-88189700D03*
X111461520Y-88189700D03*
X114539998Y-87790920D03*
X111461520Y-87790920D03*
X114540000Y-87389600D03*
X111461520Y-87389600D03*
X114540000Y-86990820D03*
X111461520Y-86990818D03*
X114540000Y-86589500D03*
X111461518Y-86589500D03*
X114540000Y-86190720D03*
X111461520Y-86190720D03*
X114540000Y-85789398D03*
X111461520Y-85789400D03*
X114540000Y-85390623D03*
X111461520Y-85390620D03*
X114540000Y-84989300D03*
X111461520Y-84989300D03*
X114540000Y-84590520D03*
X111461518Y-84590520D03*
X114540000Y-84191740D03*
X111461520Y-84191740D03*
%TD*%
D15*
%TO.C,C29*%
X125300000Y-92117500D03*
X125300000Y-91157500D03*
%TD*%
D13*
%TO.C,C45*%
X103250000Y-90307500D03*
X103250000Y-91267500D03*
%TD*%
D15*
%TO.C,C49*%
X108900000Y-96567500D03*
X108900000Y-95607500D03*
%TD*%
D16*
%TO.C,C46*%
X109270000Y-81987500D03*
X110230000Y-81987500D03*
%TD*%
D12*
%TO.C,R4*%
X103040000Y-83687500D03*
X104060000Y-83687500D03*
%TD*%
D14*
%TO.C,J7*%
X100540000Y-95789382D03*
X97461520Y-95789382D03*
X100540000Y-95390602D03*
X97461518Y-95390602D03*
X100540000Y-94991822D03*
X97461520Y-94991822D03*
X100540000Y-94590500D03*
X97461520Y-94590502D03*
X100540000Y-94191725D03*
X97461520Y-94191722D03*
X100540000Y-93790402D03*
X97461520Y-93790402D03*
X100540000Y-93391622D03*
X97461518Y-93391622D03*
X100540000Y-92990302D03*
X97461520Y-92990305D03*
X100540000Y-92591522D03*
X97461520Y-92591522D03*
X100539998Y-92190202D03*
X97461520Y-92190202D03*
X100540000Y-91791422D03*
X97461520Y-91791422D03*
X100540000Y-91390102D03*
X97461520Y-91390102D03*
X100540000Y-90991322D03*
X97461520Y-90991325D03*
X100540000Y-90590002D03*
X97461520Y-90590002D03*
X100539998Y-90191222D03*
X97461520Y-90191222D03*
X100539998Y-89789902D03*
X97461520Y-89789902D03*
X100540000Y-89391122D03*
X97461520Y-89391122D03*
X100540000Y-88989802D03*
X97461520Y-88989800D03*
X100540000Y-88591022D03*
X97461520Y-88591022D03*
X100540000Y-88189702D03*
X97461520Y-88189702D03*
X100539998Y-87790922D03*
X97461520Y-87790922D03*
X100540000Y-87389602D03*
X97461520Y-87389602D03*
X100540000Y-86990822D03*
X97461520Y-86990820D03*
X100540000Y-86589502D03*
X97461518Y-86589502D03*
X100540000Y-86190722D03*
X97461520Y-86190722D03*
X100540000Y-85789400D03*
X97461520Y-85789402D03*
X100540000Y-85390625D03*
X97461520Y-85390622D03*
X100540000Y-84989302D03*
X97461520Y-84989302D03*
X100540000Y-84590522D03*
X97461518Y-84590522D03*
X100540000Y-84191742D03*
X97461520Y-84191742D03*
%TD*%
M02*
