%TF.GenerationSoftware,KiCad,Pcbnew,9.0.1+1*%
%TF.CreationDate,2025-05-26T16:30:20+08:00*%
%TF.ProjectId,audio_lab,61756469-6f5f-46c6-9162-2e6b69636164,rev?*%
%TF.SameCoordinates,Original*%
%TF.FileFunction,Soldermask,Bot*%
%TF.FilePolarity,Negative*%
%FSLAX46Y46*%
G04 Gerber Fmt 4.6, Leading zero omitted, Abs format (unit mm)*
G04 Created by KiCad (PCBNEW 9.0.1+1) date 2025-05-26 16:30:20*
%MOMM*%
%LPD*%
G01*
G04 APERTURE LIST*
G04 Aperture macros list*
%AMRoundRect*
0 Rectangle with rounded corners*
0 $1 Rounding radius*
0 $2 $3 $4 $5 $6 $7 $8 $9 X,Y pos of 4 corners*
0 Add a 4 corners polygon primitive as box body*
4,1,4,$2,$3,$4,$5,$6,$7,$8,$9,$2,$3,0*
0 Add four circle primitives for the rounded corners*
1,1,$1+$1,$2,$3*
1,1,$1+$1,$4,$5*
1,1,$1+$1,$6,$7*
1,1,$1+$1,$8,$9*
0 Add four rect primitives between the rounded corners*
20,1,$1+$1,$2,$3,$4,$5,0*
20,1,$1+$1,$4,$5,$6,$7,0*
20,1,$1+$1,$6,$7,$8,$9,0*
20,1,$1+$1,$8,$9,$2,$3,0*%
%AMHorizOval*
0 Thick line with rounded ends*
0 $1 width*
0 $2 $3 position (X,Y) of the first rounded end (center of the circle)*
0 $4 $5 position (X,Y) of the second rounded end (center of the circle)*
0 Add line between two ends*
20,1,$1,$2,$3,$4,$5,0*
0 Add two circle primitives to create the rounded ends*
1,1,$1,$2,$3*
1,1,$1,$4,$5*%
%AMRotRect*
0 Rectangle, with rotation*
0 The origin of the aperture is its center*
0 $1 length*
0 $2 width*
0 $3 Rotation angle, in degrees counterclockwise*
0 Add horizontal line*
21,1,$1,$2,0,0,$3*%
G04 Aperture macros list end*
%ADD10R,1.800000X1.800000*%
%ADD11C,1.800000*%
%ADD12O,2.800000X2.100000*%
%ADD13C,1.400000*%
%ADD14O,2.800000X3.600000*%
%ADD15R,1.700000X1.700000*%
%ADD16O,1.700000X1.700000*%
%ADD17RoundRect,0.150000X0.825000X0.150000X-0.825000X0.150000X-0.825000X-0.150000X0.825000X-0.150000X0*%
%ADD18RoundRect,0.135000X-0.135000X-0.185000X0.135000X-0.185000X0.135000X0.185000X-0.135000X0.185000X0*%
%ADD19RotRect,1.700000X1.700000X72.699000*%
%ADD20HorizOval,1.700000X0.000000X0.000000X0.000000X0.000000X0*%
%ADD21RoundRect,0.200000X0.200000X0.450000X-0.200000X0.450000X-0.200000X-0.450000X0.200000X-0.450000X0*%
%ADD22O,0.800000X1.300000*%
%ADD23RoundRect,0.140000X-0.170000X0.140000X-0.170000X-0.140000X0.170000X-0.140000X0.170000X0.140000X0*%
%ADD24RoundRect,0.050165X-0.300355X0.050165X-0.300355X-0.050165X0.300355X-0.050165X0.300355X0.050165X0*%
%ADD25RoundRect,0.200000X-0.450000X0.200000X-0.450000X-0.200000X0.450000X-0.200000X0.450000X0.200000X0*%
%ADD26O,1.300000X0.800000*%
%ADD27RoundRect,0.140000X0.170000X-0.140000X0.170000X0.140000X-0.170000X0.140000X-0.170000X-0.140000X0*%
%ADD28RoundRect,0.250000X-0.600000X-0.725000X0.600000X-0.725000X0.600000X0.725000X-0.600000X0.725000X0*%
%ADD29O,1.700000X1.950000*%
%ADD30RoundRect,0.140000X-0.140000X-0.170000X0.140000X-0.170000X0.140000X0.170000X-0.140000X0.170000X0*%
%ADD31RoundRect,0.200000X-0.200000X-0.450000X0.200000X-0.450000X0.200000X0.450000X-0.200000X0.450000X0*%
G04 APERTURE END LIST*
D10*
%TO.C,RV1*%
X82000000Y-107500000D03*
D11*
X84500000Y-107500000D03*
X87000000Y-107500000D03*
D12*
X79700000Y-100000000D03*
X89300000Y-100000000D03*
%TD*%
D13*
%TO.C,CONFIG*%
X117150000Y-95787500D03*
X119150000Y-95787500D03*
%TD*%
D10*
%TO.C,RV2*%
X126000000Y-107500000D03*
D11*
X128500000Y-107500000D03*
X131000000Y-107500000D03*
D12*
X123700000Y-100000000D03*
X133300000Y-100000000D03*
%TD*%
D10*
%TO.C,SW1*%
X170000000Y-107500000D03*
D11*
X175000000Y-107500000D03*
X172500000Y-107500000D03*
D14*
X167100000Y-100000000D03*
X177900000Y-100000000D03*
D11*
X170000000Y-93000000D03*
X175000000Y-93000000D03*
%TD*%
D15*
%TO.C,J13*%
X117750000Y-92722500D03*
D16*
X117750000Y-90182500D03*
X117750000Y-87642500D03*
X117750000Y-85102500D03*
X117750000Y-82562500D03*
%TD*%
D17*
%TO.C,U9*%
X134350000Y-90682500D03*
X134350000Y-91952500D03*
X134350000Y-93222500D03*
X134350000Y-94492500D03*
X129400000Y-94492500D03*
X129400000Y-93222500D03*
X129400000Y-91952500D03*
X129400000Y-90682500D03*
%TD*%
D18*
%TO.C,R27*%
X95090000Y-81987500D03*
X96110000Y-81987500D03*
%TD*%
D19*
%TO.C,J5*%
X144625396Y-85276873D03*
D20*
X142200317Y-84521498D03*
X139775238Y-83766124D03*
X137350158Y-83010749D03*
X134925079Y-82255375D03*
X132500000Y-81500000D03*
%TD*%
D21*
%TO.C,J12*%
X92250000Y-80250000D03*
D22*
X91000000Y-80250000D03*
X89750000Y-80250000D03*
X88500000Y-80250000D03*
X87250000Y-80250000D03*
X86000000Y-80250000D03*
X84750000Y-80250000D03*
X83500000Y-80250000D03*
X82250000Y-80250000D03*
X81000000Y-80250000D03*
%TD*%
D23*
%TO.C,C47*%
X95250000Y-83207500D03*
X95250000Y-84167500D03*
%TD*%
D24*
%TO.C,J8*%
X114540000Y-95789380D03*
X111461520Y-95789380D03*
X114540000Y-95390600D03*
X111461518Y-95390600D03*
X114540000Y-94991820D03*
X111461520Y-94991820D03*
X114540000Y-94590498D03*
X111461520Y-94590500D03*
X114540000Y-94191723D03*
X111461520Y-94191720D03*
X114540000Y-93790400D03*
X111461520Y-93790400D03*
X114540000Y-93391620D03*
X111461518Y-93391620D03*
X114540000Y-92990300D03*
X111461520Y-92990303D03*
X114540000Y-92591520D03*
X111461520Y-92591520D03*
X114539998Y-92190200D03*
X111461520Y-92190200D03*
X114540000Y-91791420D03*
X111461520Y-91791420D03*
X114540000Y-91390100D03*
X111461520Y-91390100D03*
X114540000Y-90991320D03*
X111461520Y-90991323D03*
X114540000Y-90590000D03*
X111461520Y-90590000D03*
X114539998Y-90191220D03*
X111461520Y-90191220D03*
X114539998Y-89789900D03*
X111461520Y-89789900D03*
X114540000Y-89391120D03*
X111461520Y-89391120D03*
X114540000Y-88989800D03*
X111461520Y-88989798D03*
X114540000Y-88591020D03*
X111461520Y-88591020D03*
X114540000Y-88189700D03*
X111461520Y-88189700D03*
X114539998Y-87790920D03*
X111461520Y-87790920D03*
X114540000Y-87389600D03*
X111461520Y-87389600D03*
X114540000Y-86990820D03*
X111461520Y-86990818D03*
X114540000Y-86589500D03*
X111461518Y-86589500D03*
X114540000Y-86190720D03*
X111461520Y-86190720D03*
X114540000Y-85789398D03*
X111461520Y-85789400D03*
X114540000Y-85390623D03*
X111461520Y-85390620D03*
X114540000Y-84989300D03*
X111461520Y-84989300D03*
X114540000Y-84590520D03*
X111461518Y-84590520D03*
X114540000Y-84191740D03*
X111461520Y-84191740D03*
%TD*%
D15*
%TO.C,J6*%
X97125000Y-107000000D03*
D16*
X99665000Y-107000000D03*
X102205000Y-107000000D03*
X104745000Y-107000000D03*
X107285000Y-107000000D03*
X109825000Y-107000000D03*
X112365000Y-107000000D03*
X114905000Y-107000000D03*
%TD*%
D15*
%TO.C,J4*%
X163500000Y-107000000D03*
D16*
X163500000Y-104460000D03*
X163500000Y-101920000D03*
X163500000Y-99380000D03*
X163500000Y-96840000D03*
%TD*%
D25*
%TO.C,J3*%
X159955000Y-98762500D03*
D26*
X159955000Y-100012500D03*
X159955000Y-101262500D03*
X159955000Y-102512500D03*
X159955000Y-103762500D03*
X159955000Y-105012500D03*
X159955000Y-106262500D03*
X159955000Y-107512500D03*
%TD*%
D27*
%TO.C,C29*%
X125300000Y-92117500D03*
X125300000Y-91157500D03*
%TD*%
D28*
%TO.C,J2*%
X136400000Y-106712500D03*
D29*
X138900000Y-106712500D03*
X141400000Y-106712500D03*
%TD*%
D23*
%TO.C,C45*%
X103250000Y-90307500D03*
X103250000Y-91267500D03*
%TD*%
D27*
%TO.C,C49*%
X108900000Y-96567500D03*
X108900000Y-95607500D03*
%TD*%
D30*
%TO.C,C46*%
X109270000Y-81987500D03*
X110230000Y-81987500D03*
%TD*%
D18*
%TO.C,R4*%
X103040000Y-83687500D03*
X104060000Y-83687500D03*
%TD*%
D24*
%TO.C,J7*%
X100540000Y-95789382D03*
X97461520Y-95789382D03*
X100540000Y-95390602D03*
X97461518Y-95390602D03*
X100540000Y-94991822D03*
X97461520Y-94991822D03*
X100540000Y-94590500D03*
X97461520Y-94590502D03*
X100540000Y-94191725D03*
X97461520Y-94191722D03*
X100540000Y-93790402D03*
X97461520Y-93790402D03*
X100540000Y-93391622D03*
X97461518Y-93391622D03*
X100540000Y-92990302D03*
X97461520Y-92990305D03*
X100540000Y-92591522D03*
X97461520Y-92591522D03*
X100539998Y-92190202D03*
X97461520Y-92190202D03*
X100540000Y-91791422D03*
X97461520Y-91791422D03*
X100540000Y-91390102D03*
X97461520Y-91390102D03*
X100540000Y-90991322D03*
X97461520Y-90991325D03*
X100540000Y-90590002D03*
X97461520Y-90590002D03*
X100539998Y-90191222D03*
X97461520Y-90191222D03*
X100539998Y-89789902D03*
X97461520Y-89789902D03*
X100540000Y-89391122D03*
X97461520Y-89391122D03*
X100540000Y-88989802D03*
X97461520Y-88989800D03*
X100540000Y-88591022D03*
X97461520Y-88591022D03*
X100540000Y-88189702D03*
X97461520Y-88189702D03*
X100539998Y-87790922D03*
X97461520Y-87790922D03*
X100540000Y-87389602D03*
X97461520Y-87389602D03*
X100540000Y-86990822D03*
X97461520Y-86990820D03*
X100540000Y-86589502D03*
X97461518Y-86589502D03*
X100540000Y-86190722D03*
X97461520Y-86190722D03*
X100540000Y-85789400D03*
X97461520Y-85789402D03*
X100540000Y-85390625D03*
X97461520Y-85390622D03*
X100540000Y-84989302D03*
X97461520Y-84989302D03*
X100540000Y-84590522D03*
X97461518Y-84590522D03*
X100540000Y-84191742D03*
X97461520Y-84191742D03*
%TD*%
D31*
%TO.C,J1*%
X146500000Y-107000000D03*
D22*
X147750000Y-107000000D03*
X149000000Y-107000000D03*
X150250000Y-107000000D03*
X151500000Y-107000000D03*
X152750000Y-107000000D03*
X154000000Y-107000000D03*
X155250000Y-107000000D03*
%TD*%
D25*
%TO.C,J11*%
X77500000Y-79650000D03*
D26*
X77500000Y-80900000D03*
X77500000Y-82150000D03*
X77500000Y-83400000D03*
X77500000Y-84650000D03*
X77500000Y-85900000D03*
X77500000Y-87150000D03*
X77500000Y-88400000D03*
X77500000Y-89650000D03*
X77500000Y-90900000D03*
%TD*%
M02*
