%TF.GenerationSoftware,KiCad,Pcbnew,9.0.1+1*%
%TF.CreationDate,2025-05-26T16:30:20+08:00*%
%TF.ProjectId,audio_lab,61756469-6f5f-46c6-9162-2e6b69636164,rev?*%
%TF.SameCoordinates,Original*%
%TF.FileFunction,Legend,Bot*%
%TF.FilePolarity,Positive*%
%FSLAX46Y46*%
G04 Gerber Fmt 4.6, Leading zero omitted, Abs format (unit mm)*
G04 Created by KiCad (PCBNEW 9.0.1+1) date 2025-05-26 16:30:20*
%MOMM*%
%LPD*%
G01*
G04 APERTURE LIST*
%ADD10C,0.100000*%
%ADD11C,0.150000*%
%ADD12C,0.120000*%
G04 APERTURE END LIST*
D10*
X127245000Y-88870000D02*
X136505000Y-88870000D01*
X136505000Y-96310000D01*
X127245000Y-96310000D01*
X127245000Y-88870000D01*
D11*
X110617284Y-84388834D02*
X110617284Y-84533976D01*
X110617284Y-84533976D02*
X110580998Y-84606548D01*
X110580998Y-84606548D02*
X110544712Y-84642834D01*
X110544712Y-84642834D02*
X110435855Y-84715405D01*
X110435855Y-84715405D02*
X110290712Y-84751691D01*
X110290712Y-84751691D02*
X110000427Y-84751691D01*
X110000427Y-84751691D02*
X109927855Y-84715405D01*
X109927855Y-84715405D02*
X109891570Y-84679119D01*
X109891570Y-84679119D02*
X109855284Y-84606548D01*
X109855284Y-84606548D02*
X109855284Y-84461405D01*
X109855284Y-84461405D02*
X109891570Y-84388834D01*
X109891570Y-84388834D02*
X109927855Y-84352548D01*
X109927855Y-84352548D02*
X110000427Y-84316262D01*
X110000427Y-84316262D02*
X110181855Y-84316262D01*
X110181855Y-84316262D02*
X110254427Y-84352548D01*
X110254427Y-84352548D02*
X110290712Y-84388834D01*
X110290712Y-84388834D02*
X110326998Y-84461405D01*
X110326998Y-84461405D02*
X110326998Y-84606548D01*
X110326998Y-84606548D02*
X110290712Y-84679119D01*
X110290712Y-84679119D02*
X110254427Y-84715405D01*
X110254427Y-84715405D02*
X110181855Y-84751691D01*
X110617284Y-83844548D02*
X110617284Y-83771977D01*
X110617284Y-83771977D02*
X110580998Y-83699405D01*
X110580998Y-83699405D02*
X110544712Y-83663120D01*
X110544712Y-83663120D02*
X110472141Y-83626834D01*
X110472141Y-83626834D02*
X110326998Y-83590548D01*
X110326998Y-83590548D02*
X110145570Y-83590548D01*
X110145570Y-83590548D02*
X110000427Y-83626834D01*
X110000427Y-83626834D02*
X109927855Y-83663120D01*
X109927855Y-83663120D02*
X109891570Y-83699405D01*
X109891570Y-83699405D02*
X109855284Y-83771977D01*
X109855284Y-83771977D02*
X109855284Y-83844548D01*
X109855284Y-83844548D02*
X109891570Y-83917120D01*
X109891570Y-83917120D02*
X109927855Y-83953405D01*
X109927855Y-83953405D02*
X110000427Y-83989691D01*
X110000427Y-83989691D02*
X110145570Y-84025977D01*
X110145570Y-84025977D02*
X110326998Y-84025977D01*
X110326998Y-84025977D02*
X110472141Y-83989691D01*
X110472141Y-83989691D02*
X110544712Y-83953405D01*
X110544712Y-83953405D02*
X110580998Y-83917120D01*
X110580998Y-83917120D02*
X110617284Y-83844548D01*
X116138804Y-84392548D02*
X116138804Y-84755405D01*
X116138804Y-84755405D02*
X115775947Y-84791691D01*
X115775947Y-84791691D02*
X115812232Y-84755405D01*
X115812232Y-84755405D02*
X115848518Y-84682834D01*
X115848518Y-84682834D02*
X115848518Y-84501405D01*
X115848518Y-84501405D02*
X115812232Y-84428834D01*
X115812232Y-84428834D02*
X115775947Y-84392548D01*
X115775947Y-84392548D02*
X115703375Y-84356262D01*
X115703375Y-84356262D02*
X115521947Y-84356262D01*
X115521947Y-84356262D02*
X115449375Y-84392548D01*
X115449375Y-84392548D02*
X115413090Y-84428834D01*
X115413090Y-84428834D02*
X115376804Y-84501405D01*
X115376804Y-84501405D02*
X115376804Y-84682834D01*
X115376804Y-84682834D02*
X115413090Y-84755405D01*
X115413090Y-84755405D02*
X115449375Y-84791691D01*
X115376804Y-83993405D02*
X115376804Y-83848262D01*
X115376804Y-83848262D02*
X115413090Y-83775691D01*
X115413090Y-83775691D02*
X115449375Y-83739405D01*
X115449375Y-83739405D02*
X115558232Y-83666834D01*
X115558232Y-83666834D02*
X115703375Y-83630548D01*
X115703375Y-83630548D02*
X115993661Y-83630548D01*
X115993661Y-83630548D02*
X116066232Y-83666834D01*
X116066232Y-83666834D02*
X116102518Y-83703120D01*
X116102518Y-83703120D02*
X116138804Y-83775691D01*
X116138804Y-83775691D02*
X116138804Y-83920834D01*
X116138804Y-83920834D02*
X116102518Y-83993405D01*
X116102518Y-83993405D02*
X116066232Y-84029691D01*
X116066232Y-84029691D02*
X115993661Y-84065977D01*
X115993661Y-84065977D02*
X115812232Y-84065977D01*
X115812232Y-84065977D02*
X115739661Y-84029691D01*
X115739661Y-84029691D02*
X115703375Y-83993405D01*
X115703375Y-83993405D02*
X115667090Y-83920834D01*
X115667090Y-83920834D02*
X115667090Y-83775691D01*
X115667090Y-83775691D02*
X115703375Y-83703120D01*
X115703375Y-83703120D02*
X115739661Y-83666834D01*
X115739661Y-83666834D02*
X115812232Y-83630548D01*
X110514712Y-96038834D02*
X110550998Y-96002548D01*
X110550998Y-96002548D02*
X110587284Y-95929977D01*
X110587284Y-95929977D02*
X110587284Y-95748548D01*
X110587284Y-95748548D02*
X110550998Y-95675977D01*
X110550998Y-95675977D02*
X110514712Y-95639691D01*
X110514712Y-95639691D02*
X110442141Y-95603405D01*
X110442141Y-95603405D02*
X110369570Y-95603405D01*
X110369570Y-95603405D02*
X110260712Y-95639691D01*
X110260712Y-95639691D02*
X109825284Y-96075119D01*
X109825284Y-96075119D02*
X109825284Y-95603405D01*
X115306804Y-95553405D02*
X115306804Y-95988834D01*
X115306804Y-95771119D02*
X116068804Y-95771119D01*
X116068804Y-95771119D02*
X115959947Y-95843691D01*
X115959947Y-95843691D02*
X115887375Y-95916262D01*
X115887375Y-95916262D02*
X115851090Y-95988834D01*
X102138804Y-84392550D02*
X102138804Y-84755407D01*
X102138804Y-84755407D02*
X101775947Y-84791693D01*
X101775947Y-84791693D02*
X101812232Y-84755407D01*
X101812232Y-84755407D02*
X101848518Y-84682836D01*
X101848518Y-84682836D02*
X101848518Y-84501407D01*
X101848518Y-84501407D02*
X101812232Y-84428836D01*
X101812232Y-84428836D02*
X101775947Y-84392550D01*
X101775947Y-84392550D02*
X101703375Y-84356264D01*
X101703375Y-84356264D02*
X101521947Y-84356264D01*
X101521947Y-84356264D02*
X101449375Y-84392550D01*
X101449375Y-84392550D02*
X101413090Y-84428836D01*
X101413090Y-84428836D02*
X101376804Y-84501407D01*
X101376804Y-84501407D02*
X101376804Y-84682836D01*
X101376804Y-84682836D02*
X101413090Y-84755407D01*
X101413090Y-84755407D02*
X101449375Y-84791693D01*
X101376804Y-83993407D02*
X101376804Y-83848264D01*
X101376804Y-83848264D02*
X101413090Y-83775693D01*
X101413090Y-83775693D02*
X101449375Y-83739407D01*
X101449375Y-83739407D02*
X101558232Y-83666836D01*
X101558232Y-83666836D02*
X101703375Y-83630550D01*
X101703375Y-83630550D02*
X101993661Y-83630550D01*
X101993661Y-83630550D02*
X102066232Y-83666836D01*
X102066232Y-83666836D02*
X102102518Y-83703122D01*
X102102518Y-83703122D02*
X102138804Y-83775693D01*
X102138804Y-83775693D02*
X102138804Y-83920836D01*
X102138804Y-83920836D02*
X102102518Y-83993407D01*
X102102518Y-83993407D02*
X102066232Y-84029693D01*
X102066232Y-84029693D02*
X101993661Y-84065979D01*
X101993661Y-84065979D02*
X101812232Y-84065979D01*
X101812232Y-84065979D02*
X101739661Y-84029693D01*
X101739661Y-84029693D02*
X101703375Y-83993407D01*
X101703375Y-83993407D02*
X101667090Y-83920836D01*
X101667090Y-83920836D02*
X101667090Y-83775693D01*
X101667090Y-83775693D02*
X101703375Y-83703122D01*
X101703375Y-83703122D02*
X101739661Y-83666836D01*
X101739661Y-83666836D02*
X101812232Y-83630550D01*
X101306804Y-95553407D02*
X101306804Y-95988836D01*
X101306804Y-95771121D02*
X102068804Y-95771121D01*
X102068804Y-95771121D02*
X101959947Y-95843693D01*
X101959947Y-95843693D02*
X101887375Y-95916264D01*
X101887375Y-95916264D02*
X101851090Y-95988836D01*
X96514712Y-96038836D02*
X96550998Y-96002550D01*
X96550998Y-96002550D02*
X96587284Y-95929979D01*
X96587284Y-95929979D02*
X96587284Y-95748550D01*
X96587284Y-95748550D02*
X96550998Y-95675979D01*
X96550998Y-95675979D02*
X96514712Y-95639693D01*
X96514712Y-95639693D02*
X96442141Y-95603407D01*
X96442141Y-95603407D02*
X96369570Y-95603407D01*
X96369570Y-95603407D02*
X96260712Y-95639693D01*
X96260712Y-95639693D02*
X95825284Y-96075121D01*
X95825284Y-96075121D02*
X95825284Y-95603407D01*
X96617284Y-84388836D02*
X96617284Y-84533978D01*
X96617284Y-84533978D02*
X96580998Y-84606550D01*
X96580998Y-84606550D02*
X96544712Y-84642836D01*
X96544712Y-84642836D02*
X96435855Y-84715407D01*
X96435855Y-84715407D02*
X96290712Y-84751693D01*
X96290712Y-84751693D02*
X96000427Y-84751693D01*
X96000427Y-84751693D02*
X95927855Y-84715407D01*
X95927855Y-84715407D02*
X95891570Y-84679121D01*
X95891570Y-84679121D02*
X95855284Y-84606550D01*
X95855284Y-84606550D02*
X95855284Y-84461407D01*
X95855284Y-84461407D02*
X95891570Y-84388836D01*
X95891570Y-84388836D02*
X95927855Y-84352550D01*
X95927855Y-84352550D02*
X96000427Y-84316264D01*
X96000427Y-84316264D02*
X96181855Y-84316264D01*
X96181855Y-84316264D02*
X96254427Y-84352550D01*
X96254427Y-84352550D02*
X96290712Y-84388836D01*
X96290712Y-84388836D02*
X96326998Y-84461407D01*
X96326998Y-84461407D02*
X96326998Y-84606550D01*
X96326998Y-84606550D02*
X96290712Y-84679121D01*
X96290712Y-84679121D02*
X96254427Y-84715407D01*
X96254427Y-84715407D02*
X96181855Y-84751693D01*
X96617284Y-83844550D02*
X96617284Y-83771979D01*
X96617284Y-83771979D02*
X96580998Y-83699407D01*
X96580998Y-83699407D02*
X96544712Y-83663122D01*
X96544712Y-83663122D02*
X96472141Y-83626836D01*
X96472141Y-83626836D02*
X96326998Y-83590550D01*
X96326998Y-83590550D02*
X96145570Y-83590550D01*
X96145570Y-83590550D02*
X96000427Y-83626836D01*
X96000427Y-83626836D02*
X95927855Y-83663122D01*
X95927855Y-83663122D02*
X95891570Y-83699407D01*
X95891570Y-83699407D02*
X95855284Y-83771979D01*
X95855284Y-83771979D02*
X95855284Y-83844550D01*
X95855284Y-83844550D02*
X95891570Y-83917122D01*
X95891570Y-83917122D02*
X95927855Y-83953407D01*
X95927855Y-83953407D02*
X96000427Y-83989693D01*
X96000427Y-83989693D02*
X96145570Y-84025979D01*
X96145570Y-84025979D02*
X96326998Y-84025979D01*
X96326998Y-84025979D02*
X96472141Y-83989693D01*
X96472141Y-83989693D02*
X96544712Y-83953407D01*
X96544712Y-83953407D02*
X96580998Y-83917122D01*
X96580998Y-83917122D02*
X96617284Y-83844550D01*
D12*
%TO.C,J13*%
X116420000Y-81232500D02*
X119080000Y-81232500D01*
X116420000Y-91452500D02*
X116420000Y-81232500D01*
X116420000Y-91452500D02*
X119080000Y-91452500D01*
X116420000Y-92722500D02*
X116420000Y-94052500D01*
X116420000Y-94052500D02*
X117750000Y-94052500D01*
X119080000Y-91452500D02*
X119080000Y-81232500D01*
%TO.C,U9*%
X131875000Y-90027500D02*
X129925000Y-90027500D01*
X131875000Y-90027500D02*
X133825000Y-90027500D01*
X131875000Y-95147500D02*
X129925000Y-95147500D01*
X131875000Y-95147500D02*
X133825000Y-95147500D01*
X134575000Y-90122500D02*
X134335000Y-89792500D01*
X134815000Y-89792500D01*
X134575000Y-90122500D01*
G36*
X134575000Y-90122500D02*
G01*
X134335000Y-89792500D01*
X134815000Y-89792500D01*
X134575000Y-90122500D01*
G37*
%TO.C,R27*%
X95446359Y-81607500D02*
X95753641Y-81607500D01*
X95446359Y-82367500D02*
X95753641Y-82367500D01*
%TO.C,J5*%
X130834644Y-82374295D02*
X131625707Y-79834645D01*
X143017326Y-86169011D02*
X130834644Y-82374295D01*
X143017326Y-86169011D02*
X143808387Y-83629361D01*
X143808387Y-83629361D02*
X131625707Y-79834645D01*
X145895221Y-85672404D02*
X146290752Y-84402579D01*
X146290752Y-84402579D02*
X145020927Y-84007048D01*
%TO.C,J12*%
X79390000Y-78090000D02*
X93860000Y-78090000D01*
X79390000Y-81510000D02*
X79390000Y-78090000D01*
X79700000Y-79450000D02*
X79900000Y-79450000D01*
X79700000Y-80250000D02*
X79700000Y-79450000D01*
X79900000Y-78600000D02*
X86625000Y-78600000D01*
X79900000Y-79450000D02*
X79900000Y-78600000D01*
X79900000Y-80250000D02*
X79700000Y-80250000D01*
X79900000Y-81000000D02*
X79900000Y-80250000D01*
X86625000Y-81000000D02*
X79900000Y-81000000D01*
X86625000Y-81000000D02*
X93350000Y-81000000D01*
X93350000Y-78600000D02*
X86625000Y-78600000D01*
X93350000Y-79450000D02*
X93350000Y-78600000D01*
X93350000Y-80250000D02*
X93550000Y-80250000D01*
X93350000Y-81000000D02*
X93350000Y-80250000D01*
X93550000Y-79450000D02*
X93350000Y-79450000D01*
X93550000Y-80250000D02*
X93550000Y-79450000D01*
X93860000Y-78090000D02*
X93860000Y-81510000D01*
X93860000Y-81510000D02*
X79390000Y-81510000D01*
X94150000Y-81800000D02*
X93150000Y-81800000D01*
X94150000Y-81800000D02*
X94150000Y-80800000D01*
%TO.C,C47*%
X94890000Y-83579664D02*
X94890000Y-83795336D01*
X95610000Y-83579664D02*
X95610000Y-83795336D01*
%TO.C,J6*%
X95795000Y-105670000D02*
X95795000Y-107000000D01*
X97125000Y-105670000D02*
X95795000Y-105670000D01*
X98395000Y-105670000D02*
X98395000Y-108330000D01*
X98395000Y-105670000D02*
X116235000Y-105670000D01*
X98395000Y-108330000D02*
X116235000Y-108330000D01*
X116235000Y-105670000D02*
X116235000Y-108330000D01*
%TO.C,J4*%
X162170000Y-95510000D02*
X164830000Y-95510000D01*
X162170000Y-105730000D02*
X162170000Y-95510000D01*
X162170000Y-105730000D02*
X164830000Y-105730000D01*
X162170000Y-107000000D02*
X162170000Y-108330000D01*
X162170000Y-108330000D02*
X163500000Y-108330000D01*
X164830000Y-105730000D02*
X164830000Y-95510000D01*
%TO.C,J3*%
X157795000Y-97152500D02*
X161215000Y-97152500D01*
X157795000Y-109122500D02*
X157795000Y-97152500D01*
X158305000Y-97662500D02*
X158305000Y-103137500D01*
X158305000Y-108612500D02*
X158305000Y-103137500D01*
X159155000Y-97462500D02*
X159155000Y-97662500D01*
X159155000Y-97662500D02*
X158305000Y-97662500D01*
X159155000Y-108612500D02*
X158305000Y-108612500D01*
X159155000Y-108812500D02*
X159155000Y-108612500D01*
X159955000Y-97462500D02*
X159155000Y-97462500D01*
X159955000Y-97662500D02*
X159955000Y-97462500D01*
X159955000Y-108612500D02*
X159955000Y-108812500D01*
X159955000Y-108812500D02*
X159155000Y-108812500D01*
X160705000Y-97662500D02*
X159955000Y-97662500D01*
X160705000Y-103137500D02*
X160705000Y-97662500D01*
X160705000Y-103137500D02*
X160705000Y-108612500D01*
X160705000Y-108612500D02*
X159955000Y-108612500D01*
X161215000Y-97152500D02*
X161215000Y-109122500D01*
X161215000Y-109122500D02*
X157795000Y-109122500D01*
X161505000Y-96862500D02*
X160505000Y-96862500D01*
X161505000Y-96862500D02*
X161505000Y-97862500D01*
%TO.C,C29*%
X124940000Y-91745336D02*
X124940000Y-91529664D01*
X125660000Y-91745336D02*
X125660000Y-91529664D01*
%TO.C,J2*%
X133550000Y-109462500D02*
X133550000Y-108212500D01*
X133840000Y-103202500D02*
X143960000Y-103202500D01*
X133840000Y-109172500D02*
X133840000Y-103202500D01*
X133850000Y-106912500D02*
X134600000Y-106912500D01*
X133850000Y-108412500D02*
X135650000Y-108412500D01*
X133850000Y-109162500D02*
X133850000Y-108412500D01*
X134600000Y-103962500D02*
X138900000Y-103962500D01*
X134600000Y-106912500D02*
X134600000Y-103962500D01*
X134800000Y-109462500D02*
X133550000Y-109462500D01*
X135650000Y-108412500D02*
X135650000Y-109162500D01*
X135650000Y-109162500D02*
X133850000Y-109162500D01*
X137150000Y-108412500D02*
X140650000Y-108412500D01*
X137150000Y-109162500D02*
X137150000Y-108412500D01*
X140650000Y-108412500D02*
X140650000Y-109162500D01*
X140650000Y-109162500D02*
X137150000Y-109162500D01*
X142150000Y-108412500D02*
X143950000Y-108412500D01*
X142150000Y-109162500D02*
X142150000Y-108412500D01*
X143200000Y-103962500D02*
X138900000Y-103962500D01*
X143200000Y-106912500D02*
X143200000Y-103962500D01*
X143950000Y-106912500D02*
X143200000Y-106912500D01*
X143950000Y-108412500D02*
X143950000Y-109162500D01*
X143950000Y-109162500D02*
X142150000Y-109162500D01*
X143960000Y-103202500D02*
X143960000Y-109172500D01*
X143960000Y-109172500D02*
X133840000Y-109172500D01*
%TO.C,C45*%
X102890000Y-90679664D02*
X102890000Y-90895336D01*
X103610000Y-90679664D02*
X103610000Y-90895336D01*
%TO.C,C49*%
X108540000Y-96195336D02*
X108540000Y-95979664D01*
X109260000Y-96195336D02*
X109260000Y-95979664D01*
%TO.C,C46*%
X109642164Y-81627500D02*
X109857836Y-81627500D01*
X109642164Y-82347500D02*
X109857836Y-82347500D01*
%TO.C,R4*%
X103396359Y-83307500D02*
X103703641Y-83307500D01*
X103396359Y-84067500D02*
X103703641Y-84067500D01*
%TO.C,J1*%
X144600000Y-105450000D02*
X144600000Y-106450000D01*
X144600000Y-105450000D02*
X145600000Y-105450000D01*
X144890000Y-105740000D02*
X156860000Y-105740000D01*
X144890000Y-109160000D02*
X144890000Y-105740000D01*
X145200000Y-107000000D02*
X145200000Y-107800000D01*
X145200000Y-107800000D02*
X145400000Y-107800000D01*
X145400000Y-106250000D02*
X145400000Y-107000000D01*
X145400000Y-107000000D02*
X145200000Y-107000000D01*
X145400000Y-107800000D02*
X145400000Y-108650000D01*
X145400000Y-108650000D02*
X150875000Y-108650000D01*
X150875000Y-106250000D02*
X145400000Y-106250000D01*
X150875000Y-106250000D02*
X156350000Y-106250000D01*
X156350000Y-106250000D02*
X156350000Y-107000000D01*
X156350000Y-107000000D02*
X156550000Y-107000000D01*
X156350000Y-107800000D02*
X156350000Y-108650000D01*
X156350000Y-108650000D02*
X150875000Y-108650000D01*
X156550000Y-107000000D02*
X156550000Y-107800000D01*
X156550000Y-107800000D02*
X156350000Y-107800000D01*
X156860000Y-105740000D02*
X156860000Y-109160000D01*
X156860000Y-109160000D02*
X144890000Y-109160000D01*
%TO.C,J11*%
X75340000Y-78040000D02*
X78760000Y-78040000D01*
X75340000Y-92510000D02*
X75340000Y-78040000D01*
X75850000Y-78550000D02*
X75850000Y-85275000D01*
X75850000Y-92000000D02*
X75850000Y-85275000D01*
X76700000Y-78350000D02*
X76700000Y-78550000D01*
X76700000Y-78550000D02*
X75850000Y-78550000D01*
X76700000Y-92000000D02*
X75850000Y-92000000D01*
X76700000Y-92200000D02*
X76700000Y-92000000D01*
X77500000Y-78350000D02*
X76700000Y-78350000D01*
X77500000Y-78550000D02*
X77500000Y-78350000D01*
X77500000Y-92000000D02*
X77500000Y-92200000D01*
X77500000Y-92200000D02*
X76700000Y-92200000D01*
X78250000Y-78550000D02*
X77500000Y-78550000D01*
X78250000Y-85275000D02*
X78250000Y-78550000D01*
X78250000Y-85275000D02*
X78250000Y-92000000D01*
X78250000Y-92000000D02*
X77500000Y-92000000D01*
X78760000Y-78040000D02*
X78760000Y-92510000D01*
X78760000Y-92510000D02*
X75340000Y-92510000D01*
X79050000Y-77750000D02*
X78050000Y-77750000D01*
X79050000Y-77750000D02*
X79050000Y-78750000D01*
%TD*%
M02*
