%TF.GenerationSoftware,KiCad,Pcbnew,9.0.1+1*%
%TF.CreationDate,2025-05-26T16:30:19+08:00*%
%TF.ProjectId,audio_lab,61756469-6f5f-46c6-9162-2e6b69636164,rev?*%
%TF.SameCoordinates,Original*%
%TF.FileFunction,Paste,Top*%
%TF.FilePolarity,Positive*%
%FSLAX46Y46*%
G04 Gerber Fmt 4.6, Leading zero omitted, Abs format (unit mm)*
G04 Created by KiCad (PCBNEW 9.0.1+1) date 2025-05-26 16:30:19*
%MOMM*%
%LPD*%
G01*
G04 APERTURE LIST*
G04 Aperture macros list*
%AMRoundRect*
0 Rectangle with rounded corners*
0 $1 Rounding radius*
0 $2 $3 $4 $5 $6 $7 $8 $9 X,Y pos of 4 corners*
0 Add a 4 corners polygon primitive as box body*
4,1,4,$2,$3,$4,$5,$6,$7,$8,$9,$2,$3,0*
0 Add four circle primitives for the rounded corners*
1,1,$1+$1,$2,$3*
1,1,$1+$1,$4,$5*
1,1,$1+$1,$6,$7*
1,1,$1+$1,$8,$9*
0 Add four rect primitives between the rounded corners*
20,1,$1+$1,$2,$3,$4,$5,0*
20,1,$1+$1,$4,$5,$6,$7,0*
20,1,$1+$1,$6,$7,$8,$9,0*
20,1,$1+$1,$8,$9,$2,$3,0*%
G04 Aperture macros list end*
%ADD10RoundRect,0.150000X0.512500X0.150000X-0.512500X0.150000X-0.512500X-0.150000X0.512500X-0.150000X0*%
%ADD11RoundRect,0.135000X-0.185000X0.135000X-0.185000X-0.135000X0.185000X-0.135000X0.185000X0.135000X0*%
%ADD12RoundRect,0.140000X0.140000X0.170000X-0.140000X0.170000X-0.140000X-0.170000X0.140000X-0.170000X0*%
%ADD13RoundRect,0.140000X-0.170000X0.140000X-0.170000X-0.140000X0.170000X-0.140000X0.170000X0.140000X0*%
%ADD14RoundRect,0.250000X0.315000X0.315000X-0.315000X0.315000X-0.315000X-0.315000X0.315000X-0.315000X0*%
%ADD15RoundRect,0.075000X0.350000X0.075000X-0.350000X0.075000X-0.350000X-0.075000X0.350000X-0.075000X0*%
%ADD16RoundRect,0.075000X0.075000X0.350000X-0.075000X0.350000X-0.075000X-0.350000X0.075000X-0.350000X0*%
%ADD17RoundRect,0.081000X0.324000X0.324000X-0.324000X0.324000X-0.324000X-0.324000X0.324000X-0.324000X0*%
%ADD18RoundRect,0.140000X0.170000X-0.140000X0.170000X0.140000X-0.170000X0.140000X-0.170000X-0.140000X0*%
%ADD19RoundRect,0.225000X-0.225000X-0.250000X0.225000X-0.250000X0.225000X0.250000X-0.225000X0.250000X0*%
%ADD20RoundRect,0.135000X0.135000X0.185000X-0.135000X0.185000X-0.135000X-0.185000X0.135000X-0.185000X0*%
%ADD21RoundRect,0.250000X0.500000X-0.950000X0.500000X0.950000X-0.500000X0.950000X-0.500000X-0.950000X0*%
%ADD22RoundRect,0.250000X0.500000X-0.275000X0.500000X0.275000X-0.500000X0.275000X-0.500000X-0.275000X0*%
%ADD23RoundRect,0.135000X0.185000X-0.135000X0.185000X0.135000X-0.185000X0.135000X-0.185000X-0.135000X0*%
%ADD24RoundRect,0.140000X-0.140000X-0.170000X0.140000X-0.170000X0.140000X0.170000X-0.140000X0.170000X0*%
%ADD25RoundRect,0.250000X-0.295000X-0.295000X0.295000X-0.295000X0.295000X0.295000X-0.295000X0.295000X0*%
%ADD26RoundRect,0.050000X-0.362500X-0.050000X0.362500X-0.050000X0.362500X0.050000X-0.362500X0.050000X0*%
%ADD27RoundRect,0.050000X-0.050000X-0.362500X0.050000X-0.362500X0.050000X0.362500X-0.050000X0.362500X0*%
%ADD28RoundRect,0.250000X0.450000X0.350000X-0.450000X0.350000X-0.450000X-0.350000X0.450000X-0.350000X0*%
%ADD29RoundRect,0.135000X-0.135000X-0.185000X0.135000X-0.185000X0.135000X0.185000X-0.135000X0.185000X0*%
%ADD30RoundRect,0.218750X-0.256250X0.218750X-0.256250X-0.218750X0.256250X-0.218750X0.256250X0.218750X0*%
%ADD31RoundRect,0.125000X0.537500X0.125000X-0.537500X0.125000X-0.537500X-0.125000X0.537500X-0.125000X0*%
%ADD32RoundRect,0.147500X-0.147500X-0.172500X0.147500X-0.172500X0.147500X0.172500X-0.147500X0.172500X0*%
%ADD33RoundRect,0.050000X-0.075000X-0.075000X0.075000X-0.075000X0.075000X0.075000X-0.075000X0.075000X0*%
%ADD34C,0.230000*%
%ADD35RoundRect,0.225000X0.225000X0.250000X-0.225000X0.250000X-0.225000X-0.250000X0.225000X-0.250000X0*%
%ADD36RoundRect,0.125000X-0.537500X-0.125000X0.537500X-0.125000X0.537500X0.125000X-0.537500X0.125000X0*%
%ADD37RoundRect,0.218750X-0.218750X-0.256250X0.218750X-0.256250X0.218750X0.256250X-0.218750X0.256250X0*%
%ADD38RoundRect,0.137500X-0.662500X0.137500X-0.662500X-0.137500X0.662500X-0.137500X0.662500X0.137500X0*%
%ADD39RoundRect,0.225000X-0.250000X0.225000X-0.250000X-0.225000X0.250000X-0.225000X0.250000X0.225000X0*%
%ADD40RoundRect,0.087500X0.725000X0.087500X-0.725000X0.087500X-0.725000X-0.087500X0.725000X-0.087500X0*%
%ADD41RoundRect,0.190000X-0.190000X0.445000X-0.190000X-0.445000X0.190000X-0.445000X0.190000X0.445000X0*%
%ADD42RoundRect,0.250000X-0.287500X-0.275000X0.287500X-0.275000X0.287500X0.275000X-0.287500X0.275000X0*%
%ADD43RoundRect,0.150000X-0.512500X-0.150000X0.512500X-0.150000X0.512500X0.150000X-0.512500X0.150000X0*%
%ADD44RoundRect,0.250000X0.455000X0.455000X-0.455000X0.455000X-0.455000X-0.455000X0.455000X-0.455000X0*%
%ADD45RoundRect,0.075000X0.412500X0.075000X-0.412500X0.075000X-0.412500X-0.075000X0.412500X-0.075000X0*%
%ADD46RoundRect,0.075000X0.075000X0.412500X-0.075000X0.412500X-0.075000X-0.412500X0.075000X-0.412500X0*%
%ADD47R,1.000000X3.400000*%
%ADD48RoundRect,0.250000X0.625000X-0.375000X0.625000X0.375000X-0.625000X0.375000X-0.625000X-0.375000X0*%
G04 APERTURE END LIST*
D10*
%TO.C,U7*%
X95287500Y-88637500D03*
X95287500Y-87687500D03*
X95287500Y-86737500D03*
X93012500Y-86737500D03*
X93012500Y-88637500D03*
%TD*%
D11*
%TO.C,R28*%
X157150000Y-103367500D03*
X157150000Y-104387500D03*
%TD*%
D12*
%TO.C,C25*%
X84930000Y-93687500D03*
X83970000Y-93687500D03*
%TD*%
D13*
%TO.C,C16*%
X83450000Y-82407500D03*
X83450000Y-83367500D03*
%TD*%
D14*
%TO.C,U1*%
X143425000Y-96262500D03*
X143425000Y-94912500D03*
X142075000Y-96262500D03*
X142075000Y-94912500D03*
D15*
X144725000Y-96837500D03*
X144725000Y-96337500D03*
X144725000Y-95837500D03*
X144725000Y-95337500D03*
X144725000Y-94837500D03*
X144725000Y-94337500D03*
D16*
X144000000Y-93612500D03*
X143500000Y-93612500D03*
X143000000Y-93612500D03*
X142500000Y-93612500D03*
X142000000Y-93612500D03*
X141500000Y-93612500D03*
D15*
X140775000Y-94337500D03*
X140775000Y-94837500D03*
X140775000Y-95337500D03*
X140775000Y-95837500D03*
X140775000Y-96337500D03*
X140775000Y-96837500D03*
D16*
X141500000Y-97562500D03*
X142000000Y-97562500D03*
X142500000Y-97562500D03*
X143000000Y-97562500D03*
X143500000Y-97562500D03*
X144000000Y-97562500D03*
%TD*%
D17*
%TO.C,U2*%
X113405000Y-92102500D03*
X113405000Y-90832500D03*
X113405000Y-89562500D03*
X113405000Y-88292500D03*
X113405000Y-87022500D03*
X113405000Y-85752500D03*
X113405000Y-84482500D03*
X113405000Y-83212500D03*
X113405000Y-81942500D03*
X113405000Y-80672500D03*
X112135000Y-91467500D03*
X112135000Y-90197500D03*
X112135000Y-88927500D03*
X112135000Y-87657500D03*
X112135000Y-86387500D03*
X112135000Y-85117500D03*
X112135000Y-83847500D03*
X112135000Y-82577500D03*
X111820000Y-79087500D03*
X110550000Y-79087500D03*
X109280000Y-79087500D03*
X108010000Y-79087500D03*
X106740000Y-79087500D03*
X105470000Y-79087500D03*
X104200000Y-79087500D03*
X102930000Y-79087500D03*
X101660000Y-79087500D03*
X100390000Y-79087500D03*
X111185000Y-80357500D03*
X109915000Y-80357500D03*
X108645000Y-80357500D03*
X107375000Y-80357500D03*
X106105000Y-80357500D03*
X104835000Y-80357500D03*
X103565000Y-80357500D03*
X102295000Y-80357500D03*
X101025000Y-80357500D03*
X98805000Y-80672500D03*
X98805000Y-81942500D03*
X98805000Y-83212500D03*
X98805000Y-84482500D03*
X98805000Y-85752500D03*
X98805000Y-87022500D03*
X98805000Y-88292500D03*
X98805000Y-89562500D03*
X98805000Y-90832500D03*
X98805000Y-92102500D03*
X100075000Y-82577500D03*
X100075000Y-83847500D03*
X100075000Y-85117500D03*
X100075000Y-86387500D03*
X100075000Y-87657500D03*
X100075000Y-88927500D03*
X100075000Y-90197500D03*
X100075000Y-91467500D03*
X100390000Y-93687500D03*
X101660000Y-93687500D03*
X102930000Y-93687500D03*
X104200000Y-93687500D03*
X105470000Y-93687500D03*
X106740000Y-93687500D03*
X108010000Y-93687500D03*
X109280000Y-93687500D03*
X110550000Y-93687500D03*
X111820000Y-93687500D03*
%TD*%
D18*
%TO.C,C43*%
X91350000Y-84197500D03*
X91350000Y-83237500D03*
%TD*%
D19*
%TO.C,C3*%
X136750000Y-98587500D03*
X138300000Y-98587500D03*
%TD*%
D13*
%TO.C,C39*%
X116700000Y-99107500D03*
X116700000Y-100067500D03*
%TD*%
D20*
%TO.C,R3*%
X152960000Y-86987500D03*
X151940000Y-86987500D03*
%TD*%
D12*
%TO.C,C21*%
X81730000Y-86087500D03*
X80770000Y-86087500D03*
%TD*%
%TO.C,C17*%
X89030000Y-93687500D03*
X88070000Y-93687500D03*
%TD*%
D18*
%TO.C,C6*%
X142500000Y-101147500D03*
X142500000Y-100187500D03*
%TD*%
D21*
%TO.C,D1*%
X149525000Y-101137500D03*
D22*
X149525000Y-103512500D03*
%TD*%
D12*
%TO.C,C20*%
X81730000Y-87187500D03*
X80770000Y-87187500D03*
%TD*%
D23*
%TO.C,R25*%
X99250000Y-97147500D03*
X99250000Y-96127500D03*
%TD*%
D24*
%TO.C,C32*%
X159770000Y-91287500D03*
X160730000Y-91287500D03*
%TD*%
D25*
%TO.C,U5*%
X154275000Y-91612500D03*
X154275000Y-92962500D03*
X155625000Y-91612500D03*
X155625000Y-92962500D03*
D26*
X152987500Y-91087500D03*
X152987500Y-91487500D03*
X152987500Y-91887500D03*
X152987500Y-92287500D03*
X152987500Y-92687500D03*
X152987500Y-93087500D03*
X152987500Y-93487500D03*
D27*
X153750000Y-94250000D03*
X154150000Y-94250000D03*
X154550000Y-94250000D03*
X154950000Y-94250000D03*
X155350000Y-94250000D03*
X155750000Y-94250000D03*
X156150000Y-94250000D03*
D26*
X156912500Y-93487500D03*
X156912500Y-93087500D03*
X156912500Y-92687500D03*
X156912500Y-92287500D03*
X156912500Y-91887500D03*
X156912500Y-91487500D03*
X156912500Y-91087500D03*
D27*
X156150000Y-90325000D03*
X155750000Y-90325000D03*
X155350000Y-90325000D03*
X154950000Y-90325000D03*
X154550000Y-90325000D03*
X154150000Y-90325000D03*
X153750000Y-90325000D03*
%TD*%
D23*
%TO.C,R2*%
X149950000Y-88697500D03*
X149950000Y-87677500D03*
%TD*%
D28*
%TO.C,X1*%
X120550000Y-99237500D03*
X118350000Y-99237500D03*
X118350000Y-100937500D03*
X120550000Y-100937500D03*
%TD*%
D29*
%TO.C,R18*%
X147340000Y-92987500D03*
X148360000Y-92987500D03*
%TD*%
D20*
%TO.C,R17*%
X148360000Y-91887500D03*
X147340000Y-91887500D03*
%TD*%
D13*
%TO.C,C8*%
X143550000Y-100187500D03*
X143550000Y-101147500D03*
%TD*%
D30*
%TO.C,L4*%
X92712500Y-91531250D03*
X92712500Y-93106250D03*
%TD*%
D23*
%TO.C,R34*%
X105250000Y-97147500D03*
X105250000Y-96127500D03*
%TD*%
D11*
%TO.C,R7*%
X140750000Y-89767500D03*
X140750000Y-90787500D03*
%TD*%
D20*
%TO.C,R20*%
X113210000Y-97187500D03*
X112190000Y-97187500D03*
%TD*%
D19*
%TO.C,C40*%
X124575000Y-93187500D03*
X126125000Y-93187500D03*
%TD*%
D31*
%TO.C,U8*%
X128787500Y-91571500D03*
X128787500Y-90921500D03*
X128787500Y-90271500D03*
X128787500Y-89621500D03*
X126512500Y-89621500D03*
X126512500Y-90271500D03*
X126512500Y-90921500D03*
X126512500Y-91571500D03*
%TD*%
D18*
%TO.C,C37*%
X106400000Y-99367500D03*
X106400000Y-98407500D03*
%TD*%
D29*
%TO.C,R15*%
X147340000Y-89687500D03*
X148360000Y-89687500D03*
%TD*%
D12*
%TO.C,C35*%
X150930000Y-96687500D03*
X149970000Y-96687500D03*
%TD*%
D19*
%TO.C,C14*%
X152450820Y-103625900D03*
X154000820Y-103625900D03*
%TD*%
D29*
%TO.C,R10*%
X159750000Y-95687500D03*
X160770000Y-95687500D03*
%TD*%
%TO.C,R31*%
X112190000Y-96087500D03*
X113210000Y-96087500D03*
%TD*%
D11*
%TO.C,R33*%
X90200000Y-92787500D03*
X90200000Y-93807500D03*
%TD*%
%TO.C,R5*%
X149950000Y-91687500D03*
X149950000Y-92707500D03*
%TD*%
D12*
%TO.C,C31*%
X160730000Y-93487500D03*
X159770000Y-93487500D03*
%TD*%
D32*
%TO.C,FB1*%
X107342500Y-98487500D03*
X108312500Y-98487500D03*
%TD*%
D33*
%TO.C,U3*%
X154750000Y-100287500D03*
X154750000Y-100687500D03*
X154750000Y-101087500D03*
X154750000Y-101487500D03*
X155150000Y-100287500D03*
X155150000Y-100687500D03*
X155150000Y-101087500D03*
X155150000Y-101487500D03*
D34*
X154750000Y-100287500D03*
X155150000Y-100287500D03*
X154750000Y-100687500D03*
X155150000Y-100687500D03*
X154750000Y-101087500D03*
X155150000Y-101087500D03*
X154750000Y-101487500D03*
X155150000Y-101487500D03*
%TD*%
D20*
%TO.C,R26*%
X148360000Y-95187500D03*
X147340000Y-95187500D03*
%TD*%
D12*
%TO.C,C22*%
X87000000Y-93687500D03*
X86040000Y-93687500D03*
%TD*%
D35*
%TO.C,C7*%
X138325000Y-94487500D03*
X136775000Y-94487500D03*
%TD*%
D36*
%TO.C,U10*%
X132230000Y-89621500D03*
X132230000Y-90271500D03*
X132230000Y-90921500D03*
X132230000Y-91571500D03*
X134505000Y-91571500D03*
X134505000Y-90921500D03*
X134505000Y-90271500D03*
X134505000Y-89621500D03*
%TD*%
D24*
%TO.C,C42*%
X127890000Y-93037500D03*
X128850000Y-93037500D03*
%TD*%
D12*
%TO.C,C26*%
X95630000Y-90137500D03*
X94670000Y-90137500D03*
%TD*%
D24*
%TO.C,C27*%
X92712500Y-90137500D03*
X93672500Y-90137500D03*
%TD*%
D18*
%TO.C,C41*%
X124350000Y-90912500D03*
X124350000Y-89952500D03*
%TD*%
D12*
%TO.C,C33*%
X160730000Y-92387500D03*
X159770000Y-92387500D03*
%TD*%
D19*
%TO.C,C2*%
X136762500Y-96987500D03*
X138312500Y-96987500D03*
%TD*%
D29*
%TO.C,R30*%
X80740000Y-90887500D03*
X81760000Y-90887500D03*
%TD*%
D23*
%TO.C,R8*%
X138550000Y-90797500D03*
X138550000Y-89777500D03*
%TD*%
D18*
%TO.C,C24*%
X155850000Y-104367500D03*
X155850000Y-103407500D03*
%TD*%
D37*
%TO.C,D2*%
X106712500Y-96887500D03*
X108287500Y-96887500D03*
%TD*%
D29*
%TO.C,R16*%
X147340000Y-90787500D03*
X148360000Y-90787500D03*
%TD*%
D38*
%TO.C,L3*%
X152150050Y-100562500D03*
X152150050Y-102012500D03*
%TD*%
D20*
%TO.C,R9*%
X160770000Y-96787500D03*
X159750000Y-96787500D03*
%TD*%
%TO.C,R1*%
X148360000Y-96287500D03*
X147340000Y-96287500D03*
%TD*%
D18*
%TO.C,C30*%
X149950000Y-94667500D03*
X149950000Y-93707500D03*
%TD*%
D39*
%TO.C,C1*%
X144875000Y-100412500D03*
X144875000Y-101962500D03*
%TD*%
D13*
%TO.C,C5*%
X148350000Y-97857500D03*
X148350000Y-98817500D03*
%TD*%
D20*
%TO.C,R23*%
X115210000Y-96087500D03*
X114190000Y-96087500D03*
%TD*%
D40*
%TO.C,U11*%
X114650000Y-101087500D03*
X114650000Y-100587500D03*
X114650000Y-100087500D03*
X114650000Y-99587500D03*
X114650000Y-99087500D03*
X110425000Y-99087500D03*
X110425000Y-99587500D03*
X110425000Y-100087500D03*
X110425000Y-100587500D03*
X110425000Y-101087500D03*
%TD*%
D18*
%TO.C,C19*%
X85050000Y-83367500D03*
X85050000Y-82407500D03*
%TD*%
D29*
%TO.C,R11*%
X149940000Y-97787500D03*
X150960000Y-97787500D03*
%TD*%
D41*
%TO.C,SW2*%
X124650000Y-79177500D03*
X123380000Y-79177500D03*
X122110000Y-79177500D03*
X122110000Y-86797500D03*
X123380000Y-86797500D03*
X124650000Y-86797500D03*
%TD*%
D18*
%TO.C,C36*%
X108337500Y-100467500D03*
X108337500Y-99507500D03*
%TD*%
D42*
%TO.C,C28*%
X92712500Y-94775000D03*
X94137500Y-94775000D03*
%TD*%
D29*
%TO.C,R14*%
X107317500Y-101487500D03*
X108337500Y-101487500D03*
%TD*%
D43*
%TO.C,U12*%
X93000000Y-83237500D03*
X93000000Y-84187500D03*
X93000000Y-85137500D03*
X95275000Y-85137500D03*
X95275000Y-83237500D03*
%TD*%
D37*
%TO.C,FB2*%
X88500000Y-83087500D03*
X90075000Y-83087500D03*
%TD*%
D44*
%TO.C,U6*%
X87810000Y-89422500D03*
X87810000Y-87802500D03*
X86190000Y-89422500D03*
X86190000Y-87802500D03*
D45*
X89362500Y-90112500D03*
X89362500Y-89612500D03*
X89362500Y-89112500D03*
X89362500Y-88612500D03*
X89362500Y-88112500D03*
X89362500Y-87612500D03*
X89362500Y-87112500D03*
D46*
X88500000Y-86250000D03*
X88000000Y-86250000D03*
X87500000Y-86250000D03*
X87000000Y-86250000D03*
X86500000Y-86250000D03*
X86000000Y-86250000D03*
X85500000Y-86250000D03*
D45*
X84637500Y-87112500D03*
X84637500Y-87612500D03*
X84637500Y-88112500D03*
X84637500Y-88612500D03*
X84637500Y-89112500D03*
X84637500Y-89612500D03*
X84637500Y-90112500D03*
D46*
X85500000Y-90975000D03*
X86000000Y-90975000D03*
X86500000Y-90975000D03*
X87000000Y-90975000D03*
X87500000Y-90975000D03*
X88000000Y-90975000D03*
X88500000Y-90975000D03*
%TD*%
D11*
%TO.C,R12*%
X157350000Y-96777500D03*
X157350000Y-97797500D03*
%TD*%
D12*
%TO.C,C18*%
X81730000Y-88287500D03*
X80770000Y-88287500D03*
%TD*%
D13*
%TO.C,C12*%
X156250000Y-96807500D03*
X156250000Y-97767500D03*
%TD*%
D11*
%TO.C,R32*%
X91250000Y-92787500D03*
X91250000Y-93807500D03*
%TD*%
D23*
%TO.C,R24*%
X100400000Y-97147500D03*
X100400000Y-96127500D03*
%TD*%
D11*
%TO.C,R6*%
X139650000Y-89777500D03*
X139650000Y-90797500D03*
%TD*%
D24*
%TO.C,C11*%
X159780000Y-94587500D03*
X160740000Y-94587500D03*
%TD*%
D47*
%TO.C,L1*%
X140800000Y-101587500D03*
X138700000Y-101587500D03*
%TD*%
D18*
%TO.C,C38*%
X116700000Y-101947500D03*
X116700000Y-100987500D03*
%TD*%
%TO.C,C23*%
X149950000Y-90667500D03*
X149950000Y-89707500D03*
%TD*%
D13*
%TO.C,C13*%
X157150050Y-100587500D03*
X157150050Y-101547500D03*
%TD*%
%TO.C,C4*%
X147350000Y-97857500D03*
X147350000Y-98817500D03*
%TD*%
D48*
%TO.C,F1*%
X146950000Y-103387500D03*
X146950000Y-100587500D03*
%TD*%
M02*
