M48
; DRILL file {KiCad 9.0.1+1} date 2025-05-26T16:30:24+0800
; FORMAT={3:3/ absolute / metric / suppress leading zeros}
; #@! TF.CreationDate,2025-05-26T16:30:24+08:00
; #@! TF.GenerationSoftware,Kicad,Pcbnew,9.0.1+1
; #@! TF.FileFunction,Plated,1,4,PTH
FMAT,2
METRIC,TZ
; #@! TA.AperFunction,Plated,PTH,ViaDrill
T1C0.300
; #@! TA.AperFunction,Plated,PTH,ComponentDrill
T2C0.300
; #@! TA.AperFunction,Plated,PTH,ComponentDrill
T3C0.500
; #@! TA.AperFunction,Plated,PTH,ComponentDrill
T4C0.700
; #@! TA.AperFunction,Plated,PTH,ComponentDrill
T5C0.950
; #@! TA.AperFunction,Plated,PTH,ComponentDrill
T6C1.000
; #@! TA.AperFunction,Plated,PTH,ComponentDrill
T7C1.100
; #@! TA.AperFunction,Plated,PTH,ComponentDrill
T8C1.800
%
G90
G05
T1
X77500Y-94688
X79950Y-82938
X79950Y-86087
X79950Y-88288
X80800Y-78587
X83443Y-88103
X83452Y-89613
X83950Y-92238
X84250Y-83368
X84450Y-85688
X84950Y-92837
X84950Y-95212
X85850Y-82587
X86350Y-92837
X86750Y-85138
X87600Y-92488
X88450Y-78587
X88515Y-92463
X89300Y-85138
X89450Y-91988
X89450Y-95212
X90100Y-91337
X91200Y-89113
X91200Y-89988
X91200Y-90837
X91225Y-87512
X91250Y-94598
X91350Y-82238
X91650Y-86638
X91850Y-88188
X92712Y-95738
X93675Y-91538
X93700Y-93688
X94138Y-84188
X94150Y-86738
X95630Y-89388
X95900Y-100337
X96450Y-78587
X96450Y-83238
X96450Y-84188
X96500Y-88888
X96500Y-91488
X96500Y-96137
X97300Y-81688
X97300Y-83587
X98350Y-96128
X98350Y-97188
X98350Y-98248
X99200Y-93337
X99200Y-94587
X99250Y-99212
X101150Y-83188
X101550Y-103688
X101650Y-84988
X101650Y-94637
X102100Y-86988
X102100Y-88591
X102150Y-81337
X102150Y-84188
X102450Y-89388
X102450Y-91288
X102500Y-99238
X103000Y-84688
X103000Y-85587
X103200Y-88587
X104050Y-90288
X104250Y-96688
X104500Y-103688
X104750Y-88538
X105470Y-78238
X105500Y-98488
X105570Y-87658
X105950Y-100288
X106100Y-92587
X106400Y-101488
X106740Y-78238
X106950Y-103038
X107500Y-95837
X107950Y-81488
X107950Y-84988
X108000Y-90888
X108000Y-92587
X108010Y-94637
X108700Y-86688
X108700Y-88138
X108700Y-90188
X108900Y-95837
X109013Y-101488
X109038Y-100288
X109280Y-78238
X109280Y-94637
X109700Y-97538
X110100Y-103688
X110445Y-84194
X110445Y-84994
X110445Y-85794
X110450Y-86688
X110450Y-88087
X110450Y-88928
X110450Y-90888
X110450Y-92587
X110454Y-89788
X110550Y-94637
X111050Y-81988
X111200Y-78238
X111838Y-100587
X111850Y-102538
X112200Y-98038
X113238Y-99087
X113238Y-100087
X113238Y-101087
X113397Y-78613
X113600Y-93188
X114190Y-96913
X115490Y-94988
X115490Y-96938
X115500Y-83188
X115500Y-84483
X115500Y-87763
X115500Y-91363
X115500Y-92763
X116050Y-99108
X116050Y-102038
X116950Y-105938
X119350Y-81888
X119500Y-102038
X119550Y-87763
X119550Y-92763
X120350Y-105188
X120500Y-107438
X120850Y-78587
X120975Y-98038
X122110Y-81288
X123380Y-81288
X123550Y-89337
X123550Y-90913
X123550Y-91988
X123800Y-107438
X124575Y-94163
X124580Y-83837
X124650Y-81288
X125300Y-89337
X125300Y-90272
X125950Y-81288
X126100Y-88087
X126800Y-92587
X127700Y-90272
X128650Y-88788
X128650Y-95988
X128850Y-78587
X129500Y-101688
X129500Y-103788
X130150Y-89038
X131150Y-87688
X131150Y-89638
X131150Y-92188
X132850Y-92587
X132850Y-94493
X133350Y-89087
X135000Y-103438
X135850Y-94488
X135950Y-90363
X135950Y-91238
X136600Y-87438
X136694Y-89738
X136800Y-95788
X137600Y-95788
X137700Y-89009
X138050Y-92988
X138650Y-89038
X139500Y-93738
X139500Y-94488
X139500Y-96988
X139500Y-97837
X139500Y-98688
X139650Y-89009
X139850Y-81888
X140750Y-88238
X140750Y-93488
X141850Y-91566
X142500Y-102087
X143450Y-90788
X143550Y-99188
X143550Y-102087
X144550Y-92738
X144850Y-103238
X144850Y-107438
X145450Y-90337
X145450Y-99188
X145750Y-94087
X146350Y-94837
X146450Y-99188
X146900Y-84087
X148350Y-88898
X148360Y-93688
X148360Y-94488
X149100Y-92438
X149150Y-90668
X149150Y-96288
X149950Y-85038
X149970Y-95718
X150850Y-98738
X150950Y-89738
X150950Y-91587
X150950Y-92388
X150950Y-93188
X150950Y-94488
X150950Y-103788
X151850Y-95688
X151850Y-96688
X151850Y-97788
X151950Y-90761
X152451Y-104587
X153450Y-89039
X153950Y-86288
X153950Y-97788
X153950Y-101988
X153950Y-98738
X153950Y-101087
X153955Y-88358
X154743Y-88358
X154750Y-103038
X154950Y-95688
X155124Y-89039
X155530Y-88358
X155550Y-91776
X155550Y-92888
X155850Y-101495
X156317Y-88358
X156800Y-89038
X156800Y-90438
X157150Y-102538
X157150Y-107438
X157850Y-100587
X158150Y-94788
X158150Y-95887
X158150Y-96788
X158150Y-97988
X158550Y-87688
X158550Y-90688
X158550Y-92388
X158950Y-96288
X159150Y-90087
X159150Y-91688
X159150Y-93087
X161150Y-100613
X161300Y-107438
X161550Y-90688
X161550Y-94788
X161550Y-96788
X163550Y-89288
X165800Y-107438
X166750Y-92238
X169150Y-103188
X171850Y-103188
T2
X86000Y-87613
X86000Y-89613
X88000Y-87613
X88000Y-89613
X141750Y-94587
X141750Y-95587
X141750Y-96587
X142750Y-94587
X142750Y-95587
X142750Y-96587
X143750Y-94587
X143750Y-95587
X143750Y-96587
T3
X77500Y-79650
X77500Y-80900
X77500Y-82150
X77500Y-83400
X77500Y-84650
X77500Y-85900
X77500Y-87150
X77500Y-88400
X77500Y-89650
X77500Y-90900
X81000Y-80250
X82250Y-80250
X83500Y-80250
X84750Y-80250
X86000Y-80250
X87250Y-80250
X88500Y-80250
X89750Y-80250
X91000Y-80250
X92250Y-80250
X146500Y-107000
X147750Y-107000
X149000Y-107000
X150250Y-107000
X151500Y-107000
X152750Y-107000
X154000Y-107000
X155250Y-107000
X159955Y-98762
X159955Y-100012
X159955Y-101262
X159955Y-102513
X159955Y-103763
X159955Y-105013
X159955Y-106263
X159955Y-107513
T4
X117150Y-95788
X119150Y-95788
T5
X136400Y-106713
X138900Y-106713
X141400Y-106713
T6
X97125Y-107000
X99665Y-107000
X102205Y-107000
X104745Y-107000
X107285Y-107000
X109825Y-107000
X112365Y-107000
X114905Y-107000
X117750Y-82563
X117750Y-85102
X117750Y-87643
X117750Y-90183
X117750Y-92723
X132500Y-81500
X134925Y-82255
X137350Y-83011
X139775Y-83766
X142200Y-84521
X144625Y-85277
X163500Y-96840
X163500Y-99380
X163500Y-101920
X163500Y-104460
X163500Y-107000
T7
X82000Y-107500
X84500Y-107500
X87000Y-107500
X126000Y-107500
X128500Y-107500
X131000Y-107500
X170000Y-93000
X170000Y-107500
X172500Y-107500
X175000Y-93000
X175000Y-107500
T7
G00X80050Y-100000
M15
G01X79350Y-100000
M16
G05
G00X89650Y-100000
M15
G01X88950Y-100000
M16
G05
G00X124050Y-100000
M15
G01X123350Y-100000
M16
G05
G00X133650Y-100000
M15
G01X132950Y-100000
M16
G05
T8
G00X167100Y-100400
M15
G01X167100Y-99600
M16
G05
G00X177900Y-100400
M15
G01X177900Y-99600
M16
G05
M30
