%TF.GenerationSoftware,KiCad,Pcbnew,9.0.1+1*%
%TF.CreationDate,2025-05-28T20:00:12+08:00*%
%TF.ProjectId,audio_lab,61756469-6f5f-46c6-9162-2e6b69636164,rev?*%
%TF.SameCoordinates,Original*%
%TF.FileFunction,Copper,L1,Top*%
%TF.FilePolarity,Positive*%
%FSLAX46Y46*%
G04 Gerber Fmt 4.6, Leading zero omitted, Abs format (unit mm)*
G04 Created by KiCad (PCBNEW 9.0.1+1) date 2025-05-28 20:00:12*
%MOMM*%
%LPD*%
G01*
G04 APERTURE LIST*
G04 Aperture macros list*
%AMRoundRect*
0 Rectangle with rounded corners*
0 $1 Rounding radius*
0 $2 $3 $4 $5 $6 $7 $8 $9 X,Y pos of 4 corners*
0 Add a 4 corners polygon primitive as box body*
4,1,4,$2,$3,$4,$5,$6,$7,$8,$9,$2,$3,0*
0 Add four circle primitives for the rounded corners*
1,1,$1+$1,$2,$3*
1,1,$1+$1,$4,$5*
1,1,$1+$1,$6,$7*
1,1,$1+$1,$8,$9*
0 Add four rect primitives between the rounded corners*
20,1,$1+$1,$2,$3,$4,$5,0*
20,1,$1+$1,$4,$5,$6,$7,0*
20,1,$1+$1,$6,$7,$8,$9,0*
20,1,$1+$1,$8,$9,$2,$3,0*%
%AMFreePoly0*
4,1,21,0.330354,0.790354,0.330500,0.790000,0.330500,0.270000,0.330354,0.269646,0.250500,0.189792,0.250500,-0.189792,0.330354,-0.269646,0.330500,-0.270000,0.330500,-0.790000,0.330354,-0.790354,0.330000,-0.790500,0.250000,-0.790500,0.249646,-0.790354,0.249500,-0.790000,-0.250000,-0.790000,-0.250000,0.790000,0.249500,0.790000,0.249646,0.790354,0.250000,0.790500,0.330000,0.790500,
0.330354,0.790354,0.330354,0.790354,$1*%
%AMFreePoly1*
4,1,21,-0.249646,0.790354,-0.249500,0.790000,0.250000,0.790000,0.250000,-0.790000,-0.249500,-0.790000,-0.249646,-0.790354,-0.250000,-0.790500,-0.330000,-0.790500,-0.330354,-0.790354,-0.330500,-0.790000,-0.330500,-0.270000,-0.330354,-0.269646,-0.250500,-0.189792,-0.250500,0.189792,-0.330354,0.269646,-0.330500,0.270000,-0.330500,0.790000,-0.330354,0.790354,-0.330000,0.790500,-0.250000,0.790500,
-0.249646,0.790354,-0.249646,0.790354,$1*%
G04 Aperture macros list end*
%TA.AperFunction,SMDPad,CuDef*%
%ADD10RoundRect,0.135000X0.135000X0.185000X-0.135000X0.185000X-0.135000X-0.185000X0.135000X-0.185000X0*%
%TD*%
%TA.AperFunction,SMDPad,CuDef*%
%ADD11RoundRect,0.140000X0.140000X0.170000X-0.140000X0.170000X-0.140000X-0.170000X0.140000X-0.170000X0*%
%TD*%
%TA.AperFunction,SMDPad,CuDef*%
%ADD12RoundRect,0.135000X-0.185000X0.135000X-0.185000X-0.135000X0.185000X-0.135000X0.185000X0.135000X0*%
%TD*%
%TA.AperFunction,SMDPad,CuDef*%
%ADD13RoundRect,0.140000X0.170000X-0.140000X0.170000X0.140000X-0.170000X0.140000X-0.170000X-0.140000X0*%
%TD*%
%TA.AperFunction,SMDPad,CuDef*%
%ADD14RoundRect,0.135000X-0.135000X-0.185000X0.135000X-0.185000X0.135000X0.185000X-0.135000X0.185000X0*%
%TD*%
%TA.AperFunction,SMDPad,CuDef*%
%ADD15RoundRect,0.225000X-0.250000X0.225000X-0.250000X-0.225000X0.250000X-0.225000X0.250000X0.225000X0*%
%TD*%
%TA.AperFunction,BGAPad,CuDef*%
%ADD16C,0.230000*%
%TD*%
%TA.AperFunction,SMDPad,CuDef*%
%ADD17R,0.600000X0.550000*%
%TD*%
%TA.AperFunction,SMDPad,CuDef*%
%ADD18FreePoly0,0.000000*%
%TD*%
%TA.AperFunction,SMDPad,CuDef*%
%ADD19R,0.500000X0.500000*%
%TD*%
%TA.AperFunction,SMDPad,CuDef*%
%ADD20FreePoly1,0.000000*%
%TD*%
%TA.AperFunction,SMDPad,CuDef*%
%ADD21RoundRect,0.140000X-0.140000X-0.170000X0.140000X-0.170000X0.140000X0.170000X-0.140000X0.170000X0*%
%TD*%
%TA.AperFunction,SMDPad,CuDef*%
%ADD22R,1.600000X0.300000*%
%TD*%
%TA.AperFunction,SMDPad,CuDef*%
%ADD23R,3.100000X2.300000*%
%TD*%
%TA.AperFunction,ComponentPad*%
%ADD24R,1.000000X1.000000*%
%TD*%
%TA.AperFunction,ComponentPad*%
%ADD25C,1.000000*%
%TD*%
%TA.AperFunction,ViaPad*%
%ADD26C,0.600000*%
%TD*%
%TA.AperFunction,Conductor*%
%ADD27C,0.152400*%
%TD*%
%TA.AperFunction,Conductor*%
%ADD28C,0.254000*%
%TD*%
G04 APERTURE END LIST*
D10*
%TO.P,R1,1*%
%TO.N,/AFE/LCD_RES*%
X96410000Y-53500000D03*
%TO.P,R1,2*%
%TO.N,+3V3*%
X95390000Y-53500000D03*
%TD*%
D11*
%TO.P,C4,1*%
%TO.N,Net-(J1-Pin_5)*%
X96370000Y-59500000D03*
%TO.P,C4,2*%
%TO.N,GND*%
X95410000Y-59500000D03*
%TD*%
D12*
%TO.P,R6,1*%
%TO.N,Net-(J3-In)*%
X74400000Y-50000000D03*
%TO.P,R6,2*%
%TO.N,Net-(C10-Pad1)*%
X74400000Y-51020000D03*
%TD*%
D11*
%TO.P,C3,1*%
%TO.N,Net-(J1-Pin_4)*%
X96370000Y-61000000D03*
%TO.P,C3,2*%
%TO.N,GND*%
X95410000Y-61000000D03*
%TD*%
D13*
%TO.P,C9,1*%
%TO.N,GND*%
X84410000Y-57860000D03*
%TO.P,C9,2*%
%TO.N,+3V3*%
X84410000Y-56900000D03*
%TD*%
D14*
%TO.P,RV2,1*%
%TO.N,Net-(C11-Pad1)*%
X81900000Y-52020000D03*
%TO.P,RV2,2*%
%TO.N,GND*%
X82920000Y-52020000D03*
%TD*%
D15*
%TO.P,C10,1*%
%TO.N,Net-(C10-Pad1)*%
X74400000Y-53325000D03*
%TO.P,C10,2*%
%TO.N,Net-(U3-AIN)*%
X74400000Y-54875000D03*
%TD*%
D16*
%TO.P,U3,A1,CLK*%
%TO.N,/AFE/AUD_CLK*%
X74000000Y-57300000D03*
%TO.P,U3,A2,LR*%
%TO.N,+3V3*%
X74000000Y-56900000D03*
%TO.P,U3,B1,GND*%
%TO.N,GND*%
X74400000Y-57300000D03*
%TO.P,U3,B2,AIN*%
%TO.N,Net-(U3-AIN)*%
X74400000Y-56900000D03*
%TO.P,U3,C1,DOUT*%
%TO.N,/AFE/AUD_DAT*%
X74800000Y-57300000D03*
%TO.P,U3,C2,VDD*%
%TO.N,+3V3*%
X74800000Y-56900000D03*
%TD*%
D11*
%TO.P,C2,1*%
%TO.N,Net-(J1-Pin_3)*%
X96370000Y-62500000D03*
%TO.P,C2,2*%
%TO.N,GND*%
X95410000Y-62500000D03*
%TD*%
D17*
%TO.P,J4,1,In*%
%TO.N,Net-(J4-In)*%
X81900000Y-47375000D03*
D18*
%TO.P,J4,2,Ext*%
%TO.N,GND*%
X80900000Y-46400000D03*
D19*
X81900000Y-45400000D03*
D20*
X82900000Y-46400000D03*
%TD*%
D11*
%TO.P,C6,1*%
%TO.N,Net-(J1-Pin_7)*%
X96370000Y-58000000D03*
%TO.P,C6,2*%
%TO.N,GND*%
X95410000Y-58000000D03*
%TD*%
D13*
%TO.P,C8,1*%
%TO.N,GND*%
X76910000Y-57860000D03*
%TO.P,C8,2*%
%TO.N,+3V3*%
X76910000Y-56900000D03*
%TD*%
D21*
%TO.P,C7,1*%
%TO.N,GND*%
X95410000Y-56500000D03*
%TO.P,C7,2*%
%TO.N,+3V3*%
X96370000Y-56500000D03*
%TD*%
D15*
%TO.P,C11,1*%
%TO.N,Net-(C11-Pad1)*%
X81900000Y-53325000D03*
%TO.P,C11,2*%
%TO.N,Net-(U4-AIN)*%
X81900000Y-54875000D03*
%TD*%
D22*
%TO.P,J1,1,Pin_1*%
%TO.N,Net-(J1-Pin_1)*%
X100000000Y-61450000D03*
%TO.P,J1,2,Pin_2*%
%TO.N,unconnected-(J1-Pin_2-Pad2)*%
X100000000Y-60950000D03*
%TO.P,J1,3,Pin_3*%
%TO.N,Net-(J1-Pin_3)*%
X100000000Y-60450000D03*
%TO.P,J1,4,Pin_4*%
%TO.N,Net-(J1-Pin_4)*%
X100000000Y-59950000D03*
%TO.P,J1,5,Pin_5*%
%TO.N,Net-(J1-Pin_5)*%
X100000000Y-59450000D03*
%TO.P,J1,6,Pin_6*%
%TO.N,unconnected-(J1-Pin_6-Pad6)*%
X100000000Y-58950000D03*
%TO.P,J1,7,Pin_7*%
%TO.N,Net-(J1-Pin_7)*%
X100000000Y-58450000D03*
%TO.P,J1,8,Pin_8*%
%TO.N,GND*%
X100000000Y-57950000D03*
%TO.P,J1,9,Pin_9*%
%TO.N,+3V3*%
X100000000Y-57450000D03*
%TO.P,J1,10,Pin_10*%
X100000000Y-56950000D03*
%TO.P,J1,11,Pin_11*%
%TO.N,/AFE/LCD_DAT*%
X100000000Y-56450000D03*
%TO.P,J1,12,Pin_12*%
%TO.N,/AFE/LCD_CLK*%
X100000000Y-55950000D03*
%TO.P,J1,13,Pin_13*%
%TO.N,/AFE/LCD_CS*%
X100000000Y-55450000D03*
%TO.P,J1,14,Pin_14*%
%TO.N,/AFE/LCD_DC*%
X100000000Y-54950000D03*
%TO.P,J1,15,Pin_15*%
%TO.N,/AFE/LCD_RES*%
X100000000Y-54450000D03*
%TO.P,J1,16,Pin_16*%
%TO.N,unconnected-(J1-Pin_16-Pad16)*%
X100000000Y-53950000D03*
%TO.P,J1,17,Pin_17*%
%TO.N,unconnected-(J1-Pin_17-Pad17)*%
X100000000Y-53450000D03*
%TO.P,J1,18,Pin_18*%
%TO.N,unconnected-(J1-Pin_18-Pad18)*%
X100000000Y-52950000D03*
%TO.P,J1,19,Pin_19*%
%TO.N,unconnected-(J1-Pin_19-Pad19)*%
X100000000Y-52450000D03*
%TO.P,J1,20,Pin_20*%
%TO.N,Net-(J1-Pin_20)*%
X100000000Y-51950000D03*
%TO.P,J1,21,Pin_21*%
%TO.N,unconnected-(J1-Pin_21-Pad21)*%
X100000000Y-51450000D03*
%TO.P,J1,22,Pin_22*%
%TO.N,unconnected-(J1-Pin_22-Pad22)*%
X100000000Y-50950000D03*
%TO.P,J1,23,Pin_23*%
%TO.N,unconnected-(J1-Pin_23-Pad23)*%
X100000000Y-50450000D03*
%TO.P,J1,24,Pin_24*%
%TO.N,unconnected-(J1-Pin_24-Pad24)*%
X100000000Y-49950000D03*
D23*
%TO.P,J1,MP*%
%TO.N,GND*%
X101950000Y-63120000D03*
X101950000Y-48280000D03*
%TD*%
D14*
%TO.P,RV1,1*%
%TO.N,Net-(C10-Pad1)*%
X74400000Y-52020000D03*
%TO.P,RV1,2*%
%TO.N,GND*%
X75420000Y-52020000D03*
%TD*%
D11*
%TO.P,C1,1*%
%TO.N,Net-(J1-Pin_1)*%
X96370000Y-64000000D03*
%TO.P,C1,2*%
%TO.N,GND*%
X95410000Y-64000000D03*
%TD*%
%TO.P,C5,1*%
%TO.N,Net-(J1-Pin_20)*%
X96370000Y-51950000D03*
%TO.P,C5,2*%
%TO.N,GND*%
X95410000Y-51950000D03*
%TD*%
D24*
%TO.P,J2,1,Pin_1*%
%TO.N,/AFE/AUD_CLK*%
X52600000Y-51325000D03*
D25*
%TO.P,J2,2,Pin_2*%
%TO.N,/AFE/AUD_DAT*%
X52600000Y-52575000D03*
%TO.P,J2,3,Pin_3*%
%TO.N,+3V3*%
X52600000Y-53825000D03*
%TO.P,J2,4,Pin_4*%
%TO.N,GND*%
X52600000Y-55075000D03*
%TO.P,J2,5,Pin_5*%
%TO.N,/AFE/LCD_CS*%
X52600000Y-56325000D03*
%TO.P,J2,6,Pin_6*%
%TO.N,/AFE/LCD_DC*%
X52600000Y-57575000D03*
%TO.P,J2,7,Pin_7*%
%TO.N,/AFE/LCD_CLK*%
X52600000Y-58825000D03*
%TO.P,J2,8,Pin_8*%
%TO.N,/AFE/LCD_DAT*%
X52600000Y-60075000D03*
%TD*%
D17*
%TO.P,J3,1,In*%
%TO.N,Net-(J3-In)*%
X74400000Y-47375000D03*
D18*
%TO.P,J3,2,Ext*%
%TO.N,GND*%
X73400000Y-46400000D03*
D19*
X74400000Y-45400000D03*
D20*
X75400000Y-46400000D03*
%TD*%
D12*
%TO.P,R7,1*%
%TO.N,Net-(J4-In)*%
X81900000Y-50020000D03*
%TO.P,R7,2*%
%TO.N,Net-(C11-Pad1)*%
X81900000Y-51040000D03*
%TD*%
D16*
%TO.P,U4,A1,CLK*%
%TO.N,/AFE/AUD_CLK*%
X81500000Y-57300000D03*
%TO.P,U4,A2,LR*%
%TO.N,GND*%
X81500000Y-56900000D03*
%TO.P,U4,B1,GND*%
X81900000Y-57300000D03*
%TO.P,U4,B2,AIN*%
%TO.N,Net-(U4-AIN)*%
X81900000Y-56900000D03*
%TO.P,U4,C1,DOUT*%
%TO.N,/AFE/AUD_DAT*%
X82300000Y-57300000D03*
%TO.P,U4,C2,VDD*%
%TO.N,+3V3*%
X82300000Y-56900000D03*
%TD*%
D26*
%TO.N,GND*%
X97700000Y-58100000D03*
X80600000Y-43500000D03*
X73100000Y-43500000D03*
X83110000Y-50000000D03*
X80600000Y-67900000D03*
X94100000Y-62600000D03*
X98100000Y-47400000D03*
X98100000Y-64100000D03*
X81710000Y-58600000D03*
X95600000Y-43500000D03*
X73110000Y-50000000D03*
X73910000Y-58600000D03*
X87800000Y-54500000D03*
X80610000Y-50000000D03*
X87800000Y-59100000D03*
X83810000Y-53400000D03*
X103100000Y-50800000D03*
X76010000Y-57700000D03*
X103100000Y-43500000D03*
X58100000Y-50800000D03*
X83510000Y-57700000D03*
X65600000Y-67900000D03*
X72410000Y-46600000D03*
X52600000Y-48300000D03*
X88100000Y-43500000D03*
X88100000Y-67900000D03*
X103100000Y-67900000D03*
X80620000Y-55600000D03*
X101700000Y-57950000D03*
X75610000Y-50000000D03*
X84410000Y-46500000D03*
X78210000Y-46500000D03*
X58100000Y-43500000D03*
X94100000Y-54800000D03*
X95600000Y-67900000D03*
X65600000Y-43500000D03*
X72410000Y-52400000D03*
X79800000Y-59100000D03*
X103100000Y-60600000D03*
X52600000Y-63100000D03*
X58100000Y-67900000D03*
X73100000Y-67900000D03*
X76310000Y-53400000D03*
X94100000Y-52000000D03*
X94100000Y-59600000D03*
X94100000Y-64100000D03*
%TO.N,+3V3*%
X85310000Y-56600000D03*
X73100000Y-55600000D03*
X77810000Y-56600000D03*
X94600000Y-53500000D03*
X87800000Y-56600000D03*
%TO.N,/AFE/LCD_CLK*%
X97600000Y-56300000D03*
%TO.N,/AFE/LCD_CS*%
X96400000Y-54400000D03*
%TO.N,/AFE/LCD_DAT*%
X98400000Y-56800000D03*
%TO.N,/AFE/LCD_DC*%
X97500000Y-54400000D03*
%TO.N,/AFE/AUD_CLK*%
X73110000Y-57300000D03*
X80620000Y-57300000D03*
%TO.N,/AFE/AUD_DAT*%
X75210000Y-58600000D03*
X83010000Y-58600000D03*
X72400000Y-59100000D03*
%TD*%
D27*
%TO.N,GND*%
X81710000Y-58600000D02*
X81710000Y-57900000D01*
X81710000Y-57900000D02*
X81900000Y-57710000D01*
X80620000Y-55600000D02*
X81055000Y-56035000D01*
X73910000Y-58200000D02*
X73910000Y-58600000D01*
X81055000Y-56035000D02*
X81055000Y-56455000D01*
D28*
X98250000Y-58100000D02*
X98400000Y-57950000D01*
X97700000Y-58100000D02*
X98250000Y-58100000D01*
X100000000Y-57950000D02*
X98400000Y-57950000D01*
D27*
X81500000Y-56900000D02*
X81055000Y-56455000D01*
X74400000Y-57300000D02*
X74400000Y-57710000D01*
X81900000Y-57710000D02*
X81900000Y-57300000D01*
D28*
X100000000Y-57950000D02*
X101750000Y-57950000D01*
D27*
X74400000Y-57710000D02*
X73910000Y-58200000D01*
D28*
%TO.N,Net-(J1-Pin_1)*%
X97200000Y-63700000D02*
X96900000Y-64000000D01*
X97200000Y-62900000D02*
X97200000Y-63700000D01*
X99050000Y-61450000D02*
X98600000Y-61900000D01*
X98200000Y-61900000D02*
X97200000Y-62900000D01*
X100000000Y-61450000D02*
X99050000Y-61450000D01*
X96900000Y-64000000D02*
X96370000Y-64000000D01*
X98600000Y-61900000D02*
X98200000Y-61900000D01*
%TO.N,Net-(J1-Pin_3)*%
X98300000Y-61100000D02*
X97770000Y-61100000D01*
X98950000Y-60450000D02*
X98300000Y-61100000D01*
X97770000Y-61100000D02*
X96370000Y-62500000D01*
X100000000Y-60450000D02*
X98950000Y-60450000D01*
%TO.N,Net-(J1-Pin_4)*%
X100000000Y-59950000D02*
X98500000Y-59950000D01*
X96985000Y-60385000D02*
X98065000Y-60385000D01*
X96985000Y-60385000D02*
X96370000Y-61000000D01*
X98065000Y-60385000D02*
X98500000Y-59950000D01*
%TO.N,Net-(J1-Pin_5)*%
X96370000Y-59500000D02*
X96420000Y-59450000D01*
X96420000Y-59450000D02*
X100000000Y-59450000D01*
%TO.N,Net-(J1-Pin_20)*%
X100000000Y-51950000D02*
X96370000Y-51950000D01*
%TO.N,Net-(J1-Pin_7)*%
X98400000Y-58800000D02*
X98750000Y-58450000D01*
X98750000Y-58450000D02*
X100000000Y-58450000D01*
X97170000Y-58800000D02*
X98400000Y-58800000D01*
X96370000Y-58000000D02*
X97170000Y-58800000D01*
%TO.N,+3V3*%
X98050000Y-57450000D02*
X100000000Y-57450000D01*
X95390000Y-53500000D02*
X94800000Y-53500000D01*
X96100000Y-56230000D02*
X96370000Y-56500000D01*
D27*
X74000000Y-56900000D02*
X73550000Y-56450000D01*
X73100000Y-55600000D02*
X73550000Y-56050000D01*
D28*
X96100000Y-55900000D02*
X96100000Y-56230000D01*
X96870000Y-57000000D02*
X97600000Y-57000000D01*
X96370000Y-56500000D02*
X96870000Y-57000000D01*
X56375000Y-53825000D02*
X62850000Y-60300000D01*
X84100000Y-60300000D02*
X87800000Y-56600000D01*
X52600000Y-53825000D02*
X56375000Y-53825000D01*
X84710000Y-56600000D02*
X84410000Y-56900000D01*
X77800000Y-56600000D02*
X77200000Y-56600000D01*
X95400000Y-55200000D02*
X95400000Y-53510000D01*
D27*
X82300000Y-56900000D02*
X84410000Y-56900000D01*
X74800000Y-56900000D02*
X76910000Y-56900000D01*
D28*
X95390000Y-55190000D02*
X95400000Y-55200000D01*
X85310000Y-56600000D02*
X84710000Y-56600000D01*
D27*
X73550000Y-56050000D02*
X73550000Y-56450000D01*
D28*
X97600000Y-57000000D02*
X98050000Y-57450000D01*
X95400000Y-53510000D02*
X95390000Y-53500000D01*
X62850000Y-60300000D02*
X84100000Y-60300000D01*
X95390000Y-55190000D02*
X96100000Y-55900000D01*
X77200000Y-56600000D02*
X76900000Y-56900000D01*
%TO.N,/AFE/LCD_CLK*%
X97950000Y-55950000D02*
X100000000Y-55950000D01*
X97600000Y-56300000D02*
X97950000Y-55950000D01*
%TO.N,/AFE/LCD_CS*%
X97450000Y-55450000D02*
X96400000Y-54400000D01*
X100000000Y-55450000D02*
X97450000Y-55450000D01*
%TO.N,/AFE/LCD_DAT*%
X98750000Y-56450000D02*
X100000000Y-56450000D01*
X98400000Y-56800000D02*
X98750000Y-56450000D01*
%TO.N,/AFE/LCD_RES*%
X100000000Y-54450000D02*
X98650000Y-54450000D01*
X98650000Y-54450000D02*
X97700000Y-53500000D01*
X97700000Y-53500000D02*
X96410000Y-53500000D01*
%TO.N,/AFE/LCD_DC*%
X98050000Y-54950000D02*
X100000000Y-54950000D01*
X97500000Y-54400000D02*
X98050000Y-54950000D01*
D27*
%TO.N,/AFE/AUD_CLK*%
X81510000Y-57300000D02*
X80620000Y-57300000D01*
X73110000Y-57300000D02*
X71860000Y-58550000D01*
X74000000Y-57300000D02*
X73110000Y-57300000D01*
X53575000Y-51325000D02*
X52600000Y-51325000D01*
X71860000Y-58550000D02*
X63800000Y-58550000D01*
X54150000Y-51900000D02*
X53575000Y-51325000D01*
X63800000Y-58550000D02*
X57150000Y-51900000D01*
X57150000Y-51900000D02*
X54150000Y-51900000D01*
%TO.N,/AFE/AUD_DAT*%
X74800000Y-57300000D02*
X74800000Y-58190000D01*
X57025000Y-52575000D02*
X63550000Y-59100000D01*
X52600000Y-52575000D02*
X57025000Y-52575000D01*
X74800000Y-58190000D02*
X75210000Y-58600000D01*
X82300000Y-57300000D02*
X82300000Y-57890000D01*
X82300000Y-57890000D02*
X83010000Y-58600000D01*
X63550000Y-59100000D02*
X72400000Y-59100000D01*
D28*
%TO.N,Net-(J3-In)*%
X74400000Y-47375000D02*
X74400000Y-50000000D01*
%TO.N,Net-(J4-In)*%
X81900000Y-47375000D02*
X81900000Y-50020000D01*
D27*
%TO.N,Net-(U3-AIN)*%
X74400000Y-56900000D02*
X74400000Y-54800000D01*
%TO.N,Net-(U4-AIN)*%
X81900000Y-56900000D02*
X81900000Y-54800000D01*
D28*
%TO.N,Net-(C10-Pad1)*%
X74400000Y-51020000D02*
X74400000Y-52020000D01*
X74400000Y-52020000D02*
X74400000Y-53325000D01*
%TO.N,Net-(C11-Pad1)*%
X81900000Y-52020000D02*
X81900000Y-53325000D01*
X81900000Y-51040000D02*
X81900000Y-52020000D01*
%TD*%
%TA.AperFunction,Conductor*%
%TO.N,+3V3*%
G36*
X100725500Y-56950462D02*
G01*
X100780038Y-57005000D01*
X100800000Y-57079500D01*
X100800000Y-57320500D01*
X100780038Y-57395000D01*
X100725500Y-57449538D01*
X100651000Y-57469500D01*
X99349000Y-57469500D01*
X99274500Y-57449538D01*
X99219962Y-57395000D01*
X99200000Y-57320500D01*
X99200000Y-57079500D01*
X99219962Y-57005000D01*
X99274500Y-56950462D01*
X99349000Y-56930500D01*
X100651000Y-56930500D01*
X100725500Y-56950462D01*
G37*
%TD.AperFunction*%
%TD*%
%TA.AperFunction,Conductor*%
%TO.N,GND*%
G36*
X97423279Y-57477462D02*
G01*
X97454138Y-57501141D01*
X97683909Y-57730912D01*
X97683908Y-57730912D01*
X97737984Y-57784987D01*
X97769088Y-57816091D01*
X97769089Y-57816092D01*
X97769091Y-57816093D01*
X97771092Y-57817248D01*
X97873411Y-57876322D01*
X97989769Y-57907500D01*
X98110231Y-57907500D01*
X98285778Y-57907500D01*
X98304726Y-57912577D01*
X98324342Y-57912577D01*
X98341329Y-57922384D01*
X98360278Y-57927462D01*
X98374149Y-57941333D01*
X98391137Y-57951141D01*
X98400945Y-57968129D01*
X98414816Y-57982000D01*
X98419892Y-58000946D01*
X98429701Y-58017935D01*
X98429701Y-58037552D01*
X98434778Y-58056500D01*
X98429701Y-58075447D01*
X98429701Y-58095064D01*
X98419893Y-58112051D01*
X98414816Y-58131000D01*
X98391137Y-58161859D01*
X98383907Y-58169088D01*
X98383907Y-58169089D01*
X98300502Y-58252495D01*
X98254138Y-58298859D01*
X98187344Y-58337423D01*
X98148779Y-58342500D01*
X97421220Y-58342500D01*
X97346720Y-58322538D01*
X97315861Y-58298859D01*
X97024141Y-58007138D01*
X96985577Y-57940343D01*
X96980500Y-57901779D01*
X96980500Y-57785005D01*
X96980499Y-57784987D01*
X96974475Y-57728960D01*
X96971707Y-57721539D01*
X96948220Y-57658570D01*
X96945697Y-57632144D01*
X96938826Y-57606500D01*
X96942086Y-57594331D01*
X96940889Y-57581792D01*
X96951916Y-57557643D01*
X96958788Y-57532000D01*
X96967695Y-57523092D01*
X96972928Y-57511634D01*
X96994553Y-57496234D01*
X97013326Y-57477462D01*
X97025494Y-57474201D01*
X97035755Y-57466895D01*
X97087826Y-57457500D01*
X97348779Y-57457500D01*
X97423279Y-57477462D01*
G37*
%TD.AperFunction*%
%TA.AperFunction,Conductor*%
G36*
X109104866Y-42600818D02*
G01*
X109351246Y-42616967D01*
X109370562Y-42619510D01*
X109607934Y-42666726D01*
X109626752Y-42671769D01*
X109855932Y-42749566D01*
X109873938Y-42757024D01*
X110090990Y-42864062D01*
X110107869Y-42873807D01*
X110309100Y-43008266D01*
X110324557Y-43020126D01*
X110506528Y-43179710D01*
X110520289Y-43193471D01*
X110679869Y-43375437D01*
X110691733Y-43390899D01*
X110826192Y-43592130D01*
X110835937Y-43609009D01*
X110942975Y-43826061D01*
X110950433Y-43844067D01*
X111028230Y-44073247D01*
X111033275Y-44092074D01*
X111080488Y-44329434D01*
X111083032Y-44348757D01*
X111099181Y-44595133D01*
X111099500Y-44604878D01*
X111099500Y-47450500D01*
X111079538Y-47525000D01*
X111025000Y-47579538D01*
X110950500Y-47599500D01*
X106665892Y-47599500D01*
X106534108Y-47599500D01*
X106406814Y-47633608D01*
X106406812Y-47633608D01*
X106406812Y-47633609D01*
X106292689Y-47699497D01*
X106199497Y-47792689D01*
X106133609Y-47906812D01*
X106133608Y-47906814D01*
X106117778Y-47965890D01*
X106099500Y-48034106D01*
X106099500Y-48034108D01*
X106099500Y-63234108D01*
X106099500Y-63365892D01*
X106133608Y-63493186D01*
X106133609Y-63493187D01*
X106199497Y-63607310D01*
X106199498Y-63607311D01*
X106199500Y-63607314D01*
X106292686Y-63700500D01*
X106406814Y-63766392D01*
X106534108Y-63800500D01*
X110950500Y-63800500D01*
X111025000Y-63820462D01*
X111079538Y-63875000D01*
X111099500Y-63949500D01*
X111099500Y-66795121D01*
X111099181Y-66804866D01*
X111083032Y-67051242D01*
X111080488Y-67070565D01*
X111033275Y-67307925D01*
X111028230Y-67326752D01*
X110950433Y-67555932D01*
X110942975Y-67573938D01*
X110835937Y-67790990D01*
X110826192Y-67807869D01*
X110691733Y-68009100D01*
X110679869Y-68024562D01*
X110520300Y-68206517D01*
X110506517Y-68220300D01*
X110324562Y-68379869D01*
X110309100Y-68391733D01*
X110107869Y-68526192D01*
X110090990Y-68535937D01*
X109873938Y-68642975D01*
X109855932Y-68650433D01*
X109626752Y-68728230D01*
X109607925Y-68733275D01*
X109370565Y-68780488D01*
X109351243Y-68783032D01*
X109127312Y-68797709D01*
X109104865Y-68799181D01*
X109095122Y-68799500D01*
X52104878Y-68799500D01*
X52095133Y-68799181D01*
X51848757Y-68783032D01*
X51829434Y-68780488D01*
X51592074Y-68733275D01*
X51573247Y-68728230D01*
X51344067Y-68650433D01*
X51326061Y-68642975D01*
X51109009Y-68535937D01*
X51092130Y-68526192D01*
X50890899Y-68391733D01*
X50875437Y-68379869D01*
X50693471Y-68220289D01*
X50679710Y-68206528D01*
X50520126Y-68024557D01*
X50508266Y-68009100D01*
X50373807Y-67807869D01*
X50364062Y-67790990D01*
X50257024Y-67573938D01*
X50249566Y-67555932D01*
X50171769Y-67326752D01*
X50166726Y-67307934D01*
X50119510Y-67070562D01*
X50116967Y-67051242D01*
X50109965Y-66944416D01*
X50100819Y-66804866D01*
X50100500Y-66795121D01*
X50100500Y-66168876D01*
X50599500Y-66168876D01*
X50599500Y-66431123D01*
X50633728Y-66691107D01*
X50633728Y-66691110D01*
X50701600Y-66944415D01*
X50701600Y-66944416D01*
X50801959Y-67186701D01*
X50933078Y-67413806D01*
X50933078Y-67413807D01*
X51092715Y-67621848D01*
X51278151Y-67807284D01*
X51486193Y-67966921D01*
X51486197Y-67966924D01*
X51713303Y-68098043D01*
X51917809Y-68182752D01*
X51955583Y-68198399D01*
X52013286Y-68213860D01*
X52208884Y-68266270D01*
X52208890Y-68266270D01*
X52208891Y-68266271D01*
X52245834Y-68271134D01*
X52468877Y-68300499D01*
X52468878Y-68300500D01*
X52468880Y-68300500D01*
X52731122Y-68300500D01*
X52731122Y-68300499D01*
X52991108Y-68266271D01*
X52991110Y-68266271D01*
X52991111Y-68266270D01*
X52991116Y-68266270D01*
X53244415Y-68198399D01*
X53244416Y-68198399D01*
X53244417Y-68198398D01*
X53244419Y-68198398D01*
X53486697Y-68098043D01*
X53713803Y-67966924D01*
X53921848Y-67807284D01*
X53921849Y-67807284D01*
X54107284Y-67621849D01*
X54107284Y-67621848D01*
X54150771Y-67565176D01*
X54266924Y-67413803D01*
X54398043Y-67186697D01*
X54498398Y-66944419D01*
X54566270Y-66691116D01*
X54600500Y-66431120D01*
X54600500Y-66168880D01*
X54600499Y-66168876D01*
X106599500Y-66168876D01*
X106599500Y-66431123D01*
X106633728Y-66691107D01*
X106633728Y-66691110D01*
X106701600Y-66944415D01*
X106701600Y-66944416D01*
X106801959Y-67186701D01*
X106933078Y-67413806D01*
X106933078Y-67413807D01*
X107092715Y-67621848D01*
X107278151Y-67807284D01*
X107486193Y-67966921D01*
X107486197Y-67966924D01*
X107713303Y-68098043D01*
X107917809Y-68182752D01*
X107955583Y-68198399D01*
X108013286Y-68213860D01*
X108208884Y-68266270D01*
X108208890Y-68266270D01*
X108208891Y-68266271D01*
X108245834Y-68271134D01*
X108468877Y-68300499D01*
X108468878Y-68300500D01*
X108468880Y-68300500D01*
X108731122Y-68300500D01*
X108731122Y-68300499D01*
X108991108Y-68266271D01*
X108991110Y-68266271D01*
X108991111Y-68266270D01*
X108991116Y-68266270D01*
X109244415Y-68198399D01*
X109244416Y-68198399D01*
X109244417Y-68198398D01*
X109244419Y-68198398D01*
X109486697Y-68098043D01*
X109713803Y-67966924D01*
X109921848Y-67807284D01*
X109921849Y-67807284D01*
X110107284Y-67621849D01*
X110107284Y-67621848D01*
X110150771Y-67565176D01*
X110266924Y-67413803D01*
X110398043Y-67186697D01*
X110498398Y-66944419D01*
X110566270Y-66691116D01*
X110600500Y-66431120D01*
X110600500Y-66168880D01*
X110566270Y-65908884D01*
X110523242Y-65748302D01*
X110498399Y-65655584D01*
X110498399Y-65655583D01*
X110482752Y-65617809D01*
X110398043Y-65413303D01*
X110266924Y-65186197D01*
X110266921Y-65186193D01*
X110266921Y-65186192D01*
X110107284Y-64978151D01*
X109921848Y-64792715D01*
X109713806Y-64633078D01*
X109486701Y-64501959D01*
X109486699Y-64501958D01*
X109486697Y-64501957D01*
X109391623Y-64462576D01*
X109244416Y-64401600D01*
X109018255Y-64341002D01*
X108991116Y-64333730D01*
X108991114Y-64333729D01*
X108991108Y-64333728D01*
X108731123Y-64299500D01*
X108731120Y-64299500D01*
X108468880Y-64299500D01*
X108468876Y-64299500D01*
X108208892Y-64333728D01*
X108208889Y-64333728D01*
X107955584Y-64401600D01*
X107955583Y-64401600D01*
X107713298Y-64501959D01*
X107486193Y-64633078D01*
X107486192Y-64633078D01*
X107278151Y-64792715D01*
X107278151Y-64792716D01*
X107278149Y-64792718D01*
X107092718Y-64978149D01*
X107092716Y-64978151D01*
X107092715Y-64978151D01*
X106933078Y-65186192D01*
X106933078Y-65186193D01*
X106801959Y-65413298D01*
X106701600Y-65655583D01*
X106701600Y-65655584D01*
X106633728Y-65908889D01*
X106633728Y-65908892D01*
X106599500Y-66168876D01*
X54600499Y-66168876D01*
X54566270Y-65908884D01*
X54523242Y-65748302D01*
X54498399Y-65655584D01*
X54498399Y-65655583D01*
X54482752Y-65617809D01*
X54398043Y-65413303D01*
X54266924Y-65186197D01*
X54266921Y-65186193D01*
X54266921Y-65186192D01*
X54107284Y-64978151D01*
X53921848Y-64792715D01*
X53713806Y-64633078D01*
X53486701Y-64501959D01*
X53486699Y-64501958D01*
X53486697Y-64501957D01*
X53391623Y-64462576D01*
X53244416Y-64401600D01*
X53018255Y-64341002D01*
X52991116Y-64333730D01*
X52991114Y-64333729D01*
X52991108Y-64333728D01*
X52731123Y-64299500D01*
X52731120Y-64299500D01*
X52468880Y-64299500D01*
X52468876Y-64299500D01*
X52208892Y-64333728D01*
X52208889Y-64333728D01*
X51955584Y-64401600D01*
X51955583Y-64401600D01*
X51713298Y-64501959D01*
X51486193Y-64633078D01*
X51486192Y-64633078D01*
X51278151Y-64792715D01*
X51278151Y-64792716D01*
X51278149Y-64792718D01*
X51092718Y-64978149D01*
X51092716Y-64978151D01*
X51092715Y-64978151D01*
X50933078Y-65186192D01*
X50933078Y-65186193D01*
X50801959Y-65413298D01*
X50701600Y-65655583D01*
X50701600Y-65655584D01*
X50633728Y-65908889D01*
X50633728Y-65908892D01*
X50599500Y-66168876D01*
X50100500Y-66168876D01*
X50100500Y-54824999D01*
X51681115Y-54824999D01*
X51681116Y-54825000D01*
X52433012Y-54825000D01*
X52415795Y-54834940D01*
X52359940Y-54890795D01*
X52320444Y-54959204D01*
X52300000Y-55035504D01*
X52300000Y-55114496D01*
X52320444Y-55190796D01*
X52359940Y-55259205D01*
X52415795Y-55315060D01*
X52433012Y-55325000D01*
X51681116Y-55325000D01*
X51686507Y-55352100D01*
X51686509Y-55352108D01*
X51758118Y-55524989D01*
X51758123Y-55524998D01*
X51862086Y-55680588D01*
X51862090Y-55680593D01*
X51877325Y-55695828D01*
X51915889Y-55762623D01*
X51915889Y-55839751D01*
X51895855Y-55883967D01*
X51864024Y-55931605D01*
X51864018Y-55931615D01*
X51801415Y-56082753D01*
X51776846Y-56206271D01*
X51769500Y-56243203D01*
X51769500Y-56406797D01*
X51774830Y-56433593D01*
X51801415Y-56567246D01*
X51864018Y-56718384D01*
X51864023Y-56718394D01*
X51920090Y-56802303D01*
X51954909Y-56854413D01*
X51954911Y-56854415D01*
X51955787Y-56855483D01*
X51956129Y-56856238D01*
X51958976Y-56860499D01*
X51958272Y-56860969D01*
X51987614Y-56925739D01*
X51980048Y-57002495D01*
X51958764Y-57039359D01*
X51958976Y-57039501D01*
X51956820Y-57042727D01*
X51955787Y-57044517D01*
X51954911Y-57045584D01*
X51864023Y-57181605D01*
X51864018Y-57181615D01*
X51801415Y-57332753D01*
X51769500Y-57493203D01*
X51769500Y-57656796D01*
X51801415Y-57817246D01*
X51864018Y-57968384D01*
X51864023Y-57968394D01*
X51916534Y-58046981D01*
X51954909Y-58104413D01*
X51954911Y-58104415D01*
X51955787Y-58105483D01*
X51956129Y-58106238D01*
X51958976Y-58110499D01*
X51958272Y-58110969D01*
X51987614Y-58175739D01*
X51980048Y-58252495D01*
X51958764Y-58289359D01*
X51958976Y-58289501D01*
X51956820Y-58292727D01*
X51955787Y-58294517D01*
X51954911Y-58295584D01*
X51864023Y-58431605D01*
X51864018Y-58431615D01*
X51801415Y-58582753D01*
X51775480Y-58713141D01*
X51769500Y-58743203D01*
X51769500Y-58906797D01*
X51771349Y-58916090D01*
X51801415Y-59067246D01*
X51864018Y-59218384D01*
X51864023Y-59218394D01*
X51908520Y-59284987D01*
X51954909Y-59354413D01*
X51954911Y-59354415D01*
X51955787Y-59355483D01*
X51956129Y-59356238D01*
X51958976Y-59360499D01*
X51958272Y-59360969D01*
X51987614Y-59425739D01*
X51980048Y-59502495D01*
X51958764Y-59539359D01*
X51958976Y-59539501D01*
X51956820Y-59542727D01*
X51955787Y-59544517D01*
X51954911Y-59545584D01*
X51864023Y-59681605D01*
X51864018Y-59681615D01*
X51801415Y-59832753D01*
X51769500Y-59993203D01*
X51769500Y-60156796D01*
X51801415Y-60317246D01*
X51864018Y-60468384D01*
X51864023Y-60468394D01*
X51935622Y-60575548D01*
X51954909Y-60604413D01*
X52070587Y-60720091D01*
X52124774Y-60756297D01*
X52206605Y-60810976D01*
X52206615Y-60810981D01*
X52250881Y-60829316D01*
X52357752Y-60873584D01*
X52518203Y-60905500D01*
X52518204Y-60905500D01*
X52681796Y-60905500D01*
X52681797Y-60905500D01*
X52842248Y-60873584D01*
X52993389Y-60810979D01*
X52993391Y-60810977D01*
X52993394Y-60810976D01*
X53032289Y-60784987D01*
X53129413Y-60720091D01*
X53245091Y-60604413D01*
X53335979Y-60468389D01*
X53398584Y-60317248D01*
X53430500Y-60156797D01*
X53430500Y-59993203D01*
X53398584Y-59832752D01*
X53364344Y-59750091D01*
X53335981Y-59681615D01*
X53335976Y-59681605D01*
X53245093Y-59545590D01*
X53244220Y-59544527D01*
X53243878Y-59543772D01*
X53241024Y-59539501D01*
X53241729Y-59539029D01*
X53212388Y-59474274D01*
X53219946Y-59397517D01*
X53241236Y-59360640D01*
X53241024Y-59360499D01*
X53243188Y-59357259D01*
X53244220Y-59355473D01*
X53245083Y-59354420D01*
X53245091Y-59354413D01*
X53328916Y-59228960D01*
X53335976Y-59218394D01*
X53335977Y-59218391D01*
X53335979Y-59218389D01*
X53398584Y-59067248D01*
X53430500Y-58906797D01*
X53430500Y-58743203D01*
X53398584Y-58582752D01*
X53335979Y-58431611D01*
X53335976Y-58431605D01*
X53245093Y-58295590D01*
X53244220Y-58294527D01*
X53243878Y-58293772D01*
X53241024Y-58289501D01*
X53241729Y-58289029D01*
X53212388Y-58224274D01*
X53219946Y-58147517D01*
X53241236Y-58110640D01*
X53241024Y-58110499D01*
X53243188Y-58107259D01*
X53244220Y-58105473D01*
X53245083Y-58104420D01*
X53245091Y-58104413D01*
X53314287Y-58000853D01*
X53335976Y-57968394D01*
X53335977Y-57968391D01*
X53335979Y-57968389D01*
X53398584Y-57817248D01*
X53430500Y-57656797D01*
X53430500Y-57493203D01*
X53398584Y-57332752D01*
X53347840Y-57210246D01*
X53335981Y-57181615D01*
X53335976Y-57181605D01*
X53245093Y-57045590D01*
X53244220Y-57044527D01*
X53243878Y-57043772D01*
X53241024Y-57039501D01*
X53241729Y-57039029D01*
X53212388Y-56974274D01*
X53219946Y-56897517D01*
X53241236Y-56860640D01*
X53241024Y-56860499D01*
X53243188Y-56857259D01*
X53244220Y-56855473D01*
X53245083Y-56854420D01*
X53245091Y-56854413D01*
X53307324Y-56761275D01*
X53335976Y-56718394D01*
X53335977Y-56718391D01*
X53335979Y-56718389D01*
X53398584Y-56567248D01*
X53430500Y-56406797D01*
X53430500Y-56243203D01*
X53398584Y-56082752D01*
X53335979Y-55931611D01*
X53335976Y-55931605D01*
X53304144Y-55883966D01*
X53279352Y-55810931D01*
X53294399Y-55735285D01*
X53322677Y-55695825D01*
X53337908Y-55680594D01*
X53337915Y-55680585D01*
X53441876Y-55524998D01*
X53441881Y-55524989D01*
X53513490Y-55352108D01*
X53513492Y-55352100D01*
X53518884Y-55325000D01*
X52766988Y-55325000D01*
X52784205Y-55315060D01*
X52840060Y-55259205D01*
X52879556Y-55190796D01*
X52900000Y-55114496D01*
X52900000Y-55035504D01*
X52879556Y-54959204D01*
X52840060Y-54890795D01*
X52784205Y-54834940D01*
X52766988Y-54825000D01*
X53518884Y-54825000D01*
X53518884Y-54824999D01*
X53513492Y-54797899D01*
X53513490Y-54797891D01*
X53441881Y-54625010D01*
X53441876Y-54625001D01*
X53367894Y-54514280D01*
X53343102Y-54441246D01*
X53358149Y-54365600D01*
X53409003Y-54307611D01*
X53482037Y-54282819D01*
X53491783Y-54282500D01*
X56123779Y-54282500D01*
X56198279Y-54302462D01*
X56229138Y-54326141D01*
X62483907Y-60580909D01*
X62483909Y-60580912D01*
X62569088Y-60666091D01*
X62629320Y-60700866D01*
X62673412Y-60726323D01*
X62789769Y-60757500D01*
X62789771Y-60757500D01*
X84160231Y-60757500D01*
X84276589Y-60726322D01*
X84380912Y-60666091D01*
X84466091Y-60580912D01*
X87773825Y-57273177D01*
X87840618Y-57234615D01*
X87854936Y-57232009D01*
X87854920Y-57231928D01*
X87862099Y-57230500D01*
X87983910Y-57206271D01*
X88098654Y-57158742D01*
X88201920Y-57089742D01*
X88289742Y-57001920D01*
X88358742Y-56898654D01*
X88406271Y-56783910D01*
X88430500Y-56662099D01*
X88430500Y-56537901D01*
X88406271Y-56416090D01*
X88365698Y-56318139D01*
X88358744Y-56301350D01*
X88358743Y-56301348D01*
X88358742Y-56301346D01*
X88289742Y-56198080D01*
X88201920Y-56110258D01*
X88098654Y-56041258D01*
X88098651Y-56041257D01*
X88098649Y-56041255D01*
X88009063Y-56004148D01*
X87983910Y-55993729D01*
X87983908Y-55993728D01*
X87983907Y-55993728D01*
X87862099Y-55969500D01*
X87737901Y-55969500D01*
X87616092Y-55993728D01*
X87616090Y-55993729D01*
X87501350Y-56041255D01*
X87501346Y-56041258D01*
X87410148Y-56102195D01*
X87398076Y-56110261D01*
X87310261Y-56198076D01*
X87310258Y-56198079D01*
X87310258Y-56198080D01*
X87250240Y-56287904D01*
X87241258Y-56301346D01*
X87241255Y-56301350D01*
X87193729Y-56416090D01*
X87193728Y-56416092D01*
X87168072Y-56545080D01*
X87166249Y-56544717D01*
X87142562Y-56607625D01*
X87126820Y-56626176D01*
X83954138Y-59798859D01*
X83887343Y-59837423D01*
X83848779Y-59842500D01*
X72908880Y-59842500D01*
X72834380Y-59822538D01*
X72779842Y-59768000D01*
X72759880Y-59693500D01*
X72779842Y-59619000D01*
X72803521Y-59588141D01*
X72846078Y-59545584D01*
X72889742Y-59501920D01*
X72958742Y-59398654D01*
X73006271Y-59283910D01*
X73030500Y-59162099D01*
X73030500Y-59037901D01*
X73006271Y-58916090D01*
X72970885Y-58830662D01*
X72958744Y-58801350D01*
X72958743Y-58801348D01*
X72958742Y-58801346D01*
X72889742Y-58698080D01*
X72801920Y-58610258D01*
X72801916Y-58610255D01*
X72696900Y-58540085D01*
X72646047Y-58482097D01*
X72631000Y-58406451D01*
X72655793Y-58333416D01*
X72674322Y-58310838D01*
X72785161Y-58200000D01*
X73011020Y-57974141D01*
X73077815Y-57935577D01*
X73116379Y-57930500D01*
X73172099Y-57930500D01*
X73293910Y-57906271D01*
X73408654Y-57858742D01*
X73511920Y-57789742D01*
X73551321Y-57750341D01*
X73568308Y-57740533D01*
X73582180Y-57726662D01*
X73601128Y-57721584D01*
X73618116Y-57711777D01*
X73656680Y-57706700D01*
X73778029Y-57706700D01*
X73818059Y-57714662D01*
X73818609Y-57712612D01*
X73828042Y-57715139D01*
X73828043Y-57715140D01*
X73941349Y-57745500D01*
X74058651Y-57745500D01*
X74171957Y-57715140D01*
X74171960Y-57715137D01*
X74171964Y-57715137D01*
X74180986Y-57711401D01*
X74181727Y-57713191D01*
X74244288Y-57696423D01*
X74318789Y-57716379D01*
X74373332Y-57770912D01*
X74393300Y-57845411D01*
X74393300Y-58136456D01*
X74393300Y-58243544D01*
X74419815Y-58342500D01*
X74421017Y-58346984D01*
X74474557Y-58439718D01*
X74474561Y-58439723D01*
X74535857Y-58501017D01*
X74574422Y-58567811D01*
X74579500Y-58606377D01*
X74579500Y-58662099D01*
X74599226Y-58761275D01*
X74603729Y-58783910D01*
X74610953Y-58801350D01*
X74651255Y-58898649D01*
X74651257Y-58898651D01*
X74651258Y-58898654D01*
X74720258Y-59001920D01*
X74808080Y-59089742D01*
X74911346Y-59158742D01*
X74911348Y-59158743D01*
X74911350Y-59158744D01*
X74919450Y-59162099D01*
X75026090Y-59206271D01*
X75147901Y-59230500D01*
X75272099Y-59230500D01*
X75393910Y-59206271D01*
X75508654Y-59158742D01*
X75611920Y-59089742D01*
X75699742Y-59001920D01*
X75768742Y-58898654D01*
X75816271Y-58783910D01*
X75840500Y-58662099D01*
X75840500Y-58537901D01*
X75816271Y-58416090D01*
X75768742Y-58301346D01*
X75699742Y-58198080D01*
X75611920Y-58110258D01*
X75508654Y-58041258D01*
X75508651Y-58041257D01*
X75508649Y-58041255D01*
X75411333Y-58000946D01*
X75393910Y-57993729D01*
X75326630Y-57980346D01*
X75257457Y-57946232D01*
X75214607Y-57882102D01*
X75206700Y-57834209D01*
X75206700Y-57521970D01*
X75211938Y-57482809D01*
X75214674Y-57472763D01*
X75215140Y-57471957D01*
X75229934Y-57416744D01*
X75229990Y-57416539D01*
X75249274Y-57383456D01*
X75268393Y-57350341D01*
X75268670Y-57350181D01*
X75268831Y-57349905D01*
X75302076Y-57330894D01*
X75335188Y-57311777D01*
X75335602Y-57311722D01*
X75335785Y-57311618D01*
X75336377Y-57311620D01*
X75373752Y-57306700D01*
X76277337Y-57306700D01*
X76351837Y-57326662D01*
X76396617Y-57366407D01*
X76403882Y-57376112D01*
X76403885Y-57376115D01*
X76512195Y-57457194D01*
X76575577Y-57480834D01*
X76638959Y-57504475D01*
X76694987Y-57510499D01*
X76694994Y-57510499D01*
X76695000Y-57510500D01*
X76695005Y-57510500D01*
X77124995Y-57510500D01*
X77125000Y-57510500D01*
X77125006Y-57510499D01*
X77125012Y-57510499D01*
X77181040Y-57504475D01*
X77203135Y-57496234D01*
X77307805Y-57457194D01*
X77416115Y-57376115D01*
X77497194Y-57267805D01*
X77497195Y-57267800D01*
X77497726Y-57267092D01*
X77534846Y-57237900D01*
X79989500Y-57237900D01*
X79989500Y-57362099D01*
X80011797Y-57474201D01*
X80013729Y-57483910D01*
X80024743Y-57510499D01*
X80061255Y-57598649D01*
X80061257Y-57598651D01*
X80061258Y-57598654D01*
X80130258Y-57701920D01*
X80218080Y-57789742D01*
X80321346Y-57858742D01*
X80321348Y-57858743D01*
X80321350Y-57858744D01*
X80350662Y-57870885D01*
X80436090Y-57906271D01*
X80557901Y-57930500D01*
X80682099Y-57930500D01*
X80803910Y-57906271D01*
X80918654Y-57858742D01*
X81021920Y-57789742D01*
X81061321Y-57750341D01*
X81078308Y-57740533D01*
X81092180Y-57726662D01*
X81111128Y-57721584D01*
X81128116Y-57711777D01*
X81166680Y-57706700D01*
X81278029Y-57706700D01*
X81318059Y-57714662D01*
X81318609Y-57712612D01*
X81328042Y-57715139D01*
X81328043Y-57715140D01*
X81441349Y-57745500D01*
X81558651Y-57745500D01*
X81671957Y-57715140D01*
X81671960Y-57715137D01*
X81671964Y-57715137D01*
X81680986Y-57711401D01*
X81681727Y-57713191D01*
X81744288Y-57696423D01*
X81818789Y-57716379D01*
X81873332Y-57770912D01*
X81893300Y-57845411D01*
X81893300Y-57943544D01*
X81918489Y-58037552D01*
X81921017Y-58046984D01*
X81974556Y-58139716D01*
X81974557Y-58139717D01*
X81974559Y-58139720D01*
X82177340Y-58342500D01*
X82335859Y-58501019D01*
X82374423Y-58567814D01*
X82379500Y-58606378D01*
X82379500Y-58662099D01*
X82399226Y-58761275D01*
X82403729Y-58783910D01*
X82410953Y-58801350D01*
X82451255Y-58898649D01*
X82451257Y-58898651D01*
X82451258Y-58898654D01*
X82520258Y-59001920D01*
X82608080Y-59089742D01*
X82711346Y-59158742D01*
X82711348Y-59158743D01*
X82711350Y-59158744D01*
X82719450Y-59162099D01*
X82826090Y-59206271D01*
X82947901Y-59230500D01*
X83072099Y-59230500D01*
X83193910Y-59206271D01*
X83308654Y-59158742D01*
X83411920Y-59089742D01*
X83499742Y-59001920D01*
X83568742Y-58898654D01*
X83616271Y-58783910D01*
X83640500Y-58662099D01*
X83640500Y-58537901D01*
X83616271Y-58416090D01*
X83568742Y-58301346D01*
X83499742Y-58198080D01*
X83411920Y-58110258D01*
X83308654Y-58041258D01*
X83308651Y-58041257D01*
X83308649Y-58041255D01*
X83211333Y-58000946D01*
X83193910Y-57993729D01*
X83193908Y-57993728D01*
X83193907Y-57993728D01*
X83072099Y-57969500D01*
X83016378Y-57969500D01*
X82997430Y-57964423D01*
X82977814Y-57964423D01*
X82960826Y-57954615D01*
X82941878Y-57949538D01*
X82911019Y-57925859D01*
X82750341Y-57765180D01*
X82711777Y-57698385D01*
X82706700Y-57659821D01*
X82706700Y-57521970D01*
X82714665Y-57481941D01*
X82712612Y-57481391D01*
X82729829Y-57417136D01*
X82768393Y-57350341D01*
X82835188Y-57311777D01*
X82873752Y-57306700D01*
X83777337Y-57306700D01*
X83851837Y-57326662D01*
X83896617Y-57366407D01*
X83903882Y-57376112D01*
X83903885Y-57376115D01*
X84012195Y-57457194D01*
X84075577Y-57480834D01*
X84138959Y-57504475D01*
X84194987Y-57510499D01*
X84194994Y-57510499D01*
X84195000Y-57510500D01*
X84195005Y-57510500D01*
X84624995Y-57510500D01*
X84625000Y-57510500D01*
X84625006Y-57510499D01*
X84625012Y-57510499D01*
X84681040Y-57504475D01*
X84703135Y-57496234D01*
X84807805Y-57457194D01*
X84916115Y-57376115D01*
X84997194Y-57267805D01*
X84997195Y-57267800D01*
X84997726Y-57267092D01*
X85058352Y-57219414D01*
X85134695Y-57208436D01*
X85146067Y-57210244D01*
X85247901Y-57230500D01*
X85372099Y-57230500D01*
X85493910Y-57206271D01*
X85608654Y-57158742D01*
X85711920Y-57089742D01*
X85799742Y-57001920D01*
X85868742Y-56898654D01*
X85916271Y-56783910D01*
X85940500Y-56662099D01*
X85940500Y-56537901D01*
X85916271Y-56416090D01*
X85875698Y-56318139D01*
X85868744Y-56301350D01*
X85868743Y-56301348D01*
X85868742Y-56301346D01*
X85799742Y-56198080D01*
X85711920Y-56110258D01*
X85608654Y-56041258D01*
X85608651Y-56041257D01*
X85608649Y-56041255D01*
X85519063Y-56004148D01*
X85493910Y-55993729D01*
X85493908Y-55993728D01*
X85493907Y-55993728D01*
X85372099Y-55969500D01*
X85247901Y-55969500D01*
X85126092Y-55993728D01*
X85126090Y-55993729D01*
X85011350Y-56041255D01*
X85011346Y-56041258D01*
X84908080Y-56110258D01*
X84908076Y-56110261D01*
X84901995Y-56114325D01*
X84900961Y-56112778D01*
X84839742Y-56140511D01*
X84815480Y-56142500D01*
X84649769Y-56142500D01*
X84533406Y-56173679D01*
X84461950Y-56214935D01*
X84461942Y-56214940D01*
X84454759Y-56219088D01*
X84429088Y-56233909D01*
X84409198Y-56253798D01*
X84400155Y-56260461D01*
X84374347Y-56270564D01*
X84350343Y-56284423D01*
X84333171Y-56286683D01*
X84328335Y-56288577D01*
X84323898Y-56287904D01*
X84311779Y-56289500D01*
X84194987Y-56289500D01*
X84138959Y-56295524D01*
X84012196Y-56342805D01*
X84012193Y-56342807D01*
X83903885Y-56423884D01*
X83903882Y-56423887D01*
X83896617Y-56433593D01*
X83835990Y-56481270D01*
X83777337Y-56493300D01*
X82521971Y-56493300D01*
X82482809Y-56488061D01*
X82472759Y-56485323D01*
X82471957Y-56484860D01*
X82417130Y-56470169D01*
X82416538Y-56470008D01*
X82383415Y-56450700D01*
X82350340Y-56431604D01*
X82350180Y-56431328D01*
X82349904Y-56431167D01*
X82330862Y-56397867D01*
X82311777Y-56364809D01*
X82311722Y-56364394D01*
X82311618Y-56364212D01*
X82311620Y-56363620D01*
X82306700Y-56326247D01*
X82306700Y-55736747D01*
X82326662Y-55662247D01*
X82381200Y-55607709D01*
X82401035Y-55598137D01*
X82424816Y-55588760D01*
X82546491Y-55496491D01*
X82638760Y-55374816D01*
X82694780Y-55232759D01*
X82705500Y-55143492D01*
X82705500Y-54606508D01*
X82694780Y-54517241D01*
X82638760Y-54375184D01*
X82583613Y-54302462D01*
X82546492Y-54253510D01*
X82546489Y-54253507D01*
X82500620Y-54218724D01*
X82453320Y-54157803D01*
X82442817Y-54081393D01*
X82471927Y-54009969D01*
X82500620Y-53981276D01*
X82531973Y-53957500D01*
X82546491Y-53946491D01*
X82638760Y-53824816D01*
X82694780Y-53682759D01*
X82705500Y-53593492D01*
X82705500Y-53437900D01*
X93969500Y-53437900D01*
X93969500Y-53562099D01*
X93993728Y-53683907D01*
X93993729Y-53683909D01*
X94041255Y-53798649D01*
X94041257Y-53798651D01*
X94041258Y-53798654D01*
X94110258Y-53901920D01*
X94198080Y-53989742D01*
X94301346Y-54058742D01*
X94301348Y-54058743D01*
X94301350Y-54058744D01*
X94321876Y-54067246D01*
X94416090Y-54106271D01*
X94537901Y-54130500D01*
X94662099Y-54130500D01*
X94764433Y-54110145D01*
X94841395Y-54115190D01*
X94905524Y-54158040D01*
X94939637Y-54227214D01*
X94942500Y-54256282D01*
X94942500Y-55072831D01*
X94937423Y-55111394D01*
X94932500Y-55129763D01*
X94932500Y-55250231D01*
X94963678Y-55366589D01*
X94992259Y-55416092D01*
X95023909Y-55470912D01*
X95319655Y-55766658D01*
X95598859Y-56045861D01*
X95637423Y-56112656D01*
X95642500Y-56151220D01*
X95642500Y-56290232D01*
X95673678Y-56406590D01*
X95729346Y-56503009D01*
X95729655Y-56503544D01*
X95733909Y-56510912D01*
X95734120Y-56511123D01*
X95738922Y-56519284D01*
X95746841Y-56547898D01*
X95758217Y-56575326D01*
X95759396Y-56593259D01*
X95759495Y-56593617D01*
X95759434Y-56593849D01*
X95759500Y-56594841D01*
X95759500Y-56715012D01*
X95765524Y-56771040D01*
X95812805Y-56897803D01*
X95812807Y-56897806D01*
X95890744Y-57001920D01*
X95893885Y-57006115D01*
X96002195Y-57087194D01*
X96041597Y-57101890D01*
X96064398Y-57110395D01*
X96127225Y-57155134D01*
X96159264Y-57225292D01*
X96151932Y-57302071D01*
X96107193Y-57364898D01*
X96064398Y-57389605D01*
X96002197Y-57412805D01*
X96002193Y-57412807D01*
X95893885Y-57493884D01*
X95893884Y-57493885D01*
X95812807Y-57602193D01*
X95812805Y-57602196D01*
X95765524Y-57728959D01*
X95759500Y-57784987D01*
X95759500Y-58215012D01*
X95765524Y-58271040D01*
X95812805Y-58397803D01*
X95812807Y-58397806D01*
X95890068Y-58501017D01*
X95893885Y-58506115D01*
X96002195Y-58587194D01*
X96041597Y-58601890D01*
X96064398Y-58610395D01*
X96127225Y-58655134D01*
X96159264Y-58725292D01*
X96151932Y-58802071D01*
X96107193Y-58864898D01*
X96064398Y-58889605D01*
X96002197Y-58912805D01*
X96002193Y-58912807D01*
X95893885Y-58993884D01*
X95893884Y-58993885D01*
X95812807Y-59102193D01*
X95812805Y-59102196D01*
X95765524Y-59228959D01*
X95759500Y-59284987D01*
X95759500Y-59715012D01*
X95765524Y-59771040D01*
X95792178Y-59842500D01*
X95812806Y-59897805D01*
X95893885Y-60006115D01*
X96002195Y-60087194D01*
X96041597Y-60101890D01*
X96064398Y-60110395D01*
X96127225Y-60155134D01*
X96159264Y-60225292D01*
X96151932Y-60302071D01*
X96107193Y-60364898D01*
X96064398Y-60389605D01*
X96002197Y-60412805D01*
X96002193Y-60412807D01*
X95893885Y-60493884D01*
X95893884Y-60493885D01*
X95812807Y-60602193D01*
X95812805Y-60602196D01*
X95765524Y-60728959D01*
X95759500Y-60784987D01*
X95759500Y-61215012D01*
X95765524Y-61271040D01*
X95812805Y-61397803D01*
X95812806Y-61397805D01*
X95893885Y-61506115D01*
X96002195Y-61587194D01*
X96041597Y-61601890D01*
X96064398Y-61610395D01*
X96127225Y-61655134D01*
X96159264Y-61725292D01*
X96151932Y-61802071D01*
X96107193Y-61864898D01*
X96064398Y-61889605D01*
X96002197Y-61912805D01*
X96002193Y-61912807D01*
X95893885Y-61993884D01*
X95893884Y-61993885D01*
X95812807Y-62102193D01*
X95812805Y-62102196D01*
X95765524Y-62228959D01*
X95759500Y-62284987D01*
X95759500Y-62715012D01*
X95765524Y-62771040D01*
X95812805Y-62897803D01*
X95812806Y-62897805D01*
X95893885Y-63006115D01*
X96002195Y-63087194D01*
X96041597Y-63101890D01*
X96064398Y-63110395D01*
X96127225Y-63155134D01*
X96159264Y-63225292D01*
X96151932Y-63302071D01*
X96107193Y-63364898D01*
X96064398Y-63389605D01*
X96002197Y-63412805D01*
X96002193Y-63412807D01*
X95893885Y-63493884D01*
X95893884Y-63493885D01*
X95812807Y-63602193D01*
X95812805Y-63602196D01*
X95765524Y-63728959D01*
X95759500Y-63784987D01*
X95759500Y-64215012D01*
X95765524Y-64271040D01*
X95788906Y-64333728D01*
X95812806Y-64397805D01*
X95834152Y-64426320D01*
X95893883Y-64506113D01*
X95893885Y-64506115D01*
X96002195Y-64587194D01*
X96065577Y-64610834D01*
X96128959Y-64634475D01*
X96184987Y-64640499D01*
X96184994Y-64640499D01*
X96185000Y-64640500D01*
X96185005Y-64640500D01*
X96554995Y-64640500D01*
X96555000Y-64640500D01*
X96555006Y-64640499D01*
X96555012Y-64640499D01*
X96611040Y-64634475D01*
X96614791Y-64633076D01*
X96737805Y-64587194D01*
X96846115Y-64506115D01*
X96846117Y-64506111D01*
X96851093Y-64501137D01*
X96917890Y-64462576D01*
X96956448Y-64457500D01*
X96960231Y-64457500D01*
X97076589Y-64426322D01*
X97180912Y-64366091D01*
X97266091Y-64280912D01*
X97566091Y-63980912D01*
X97589845Y-63939769D01*
X97626322Y-63876589D01*
X97657500Y-63760231D01*
X97657500Y-63151220D01*
X97677462Y-63076720D01*
X97701141Y-63045861D01*
X98345861Y-62401141D01*
X98412656Y-62362577D01*
X98451220Y-62357500D01*
X98660231Y-62357500D01*
X98776589Y-62326322D01*
X98880912Y-62266091D01*
X98966091Y-62180912D01*
X98966092Y-62180911D01*
X99172862Y-61974141D01*
X99239657Y-61935577D01*
X99278221Y-61930500D01*
X100838724Y-61930500D01*
X100886859Y-61924163D01*
X100992491Y-61874906D01*
X101074906Y-61792491D01*
X101124163Y-61686859D01*
X101130500Y-61638724D01*
X101130500Y-61261276D01*
X101124993Y-61219445D01*
X101124993Y-61180554D01*
X101130500Y-61138724D01*
X101130500Y-60761276D01*
X101124993Y-60719445D01*
X101124993Y-60680554D01*
X101130500Y-60638724D01*
X101130500Y-60261276D01*
X101124993Y-60219445D01*
X101124993Y-60180554D01*
X101130500Y-60138724D01*
X101130500Y-59761276D01*
X101124993Y-59719445D01*
X101124993Y-59680554D01*
X101130500Y-59638724D01*
X101130500Y-59261276D01*
X101124993Y-59219445D01*
X101124993Y-59180554D01*
X101130500Y-59138724D01*
X101130500Y-58761276D01*
X101124993Y-58719445D01*
X101124993Y-58680554D01*
X101130500Y-58638724D01*
X101130500Y-58261276D01*
X101124163Y-58213141D01*
X101118035Y-58200000D01*
X101074906Y-58107509D01*
X101022756Y-58055359D01*
X100984192Y-57988564D01*
X100984192Y-57911436D01*
X101022756Y-57844641D01*
X101033188Y-57834209D01*
X101074906Y-57792491D01*
X101124163Y-57686859D01*
X101130500Y-57638724D01*
X101130500Y-57368243D01*
X101131775Y-57348793D01*
X101135500Y-57320501D01*
X101135500Y-57079500D01*
X101131774Y-57051205D01*
X101130500Y-57031757D01*
X101130500Y-56761276D01*
X101124993Y-56719445D01*
X101124993Y-56680554D01*
X101130500Y-56638724D01*
X101130500Y-56261276D01*
X101124993Y-56219445D01*
X101124993Y-56180554D01*
X101130500Y-56138724D01*
X101130500Y-55761276D01*
X101124993Y-55719445D01*
X101124993Y-55680554D01*
X101130500Y-55638724D01*
X101130500Y-55261276D01*
X101124993Y-55219445D01*
X101124993Y-55180554D01*
X101130500Y-55138724D01*
X101130500Y-54761276D01*
X101124993Y-54719445D01*
X101124993Y-54680554D01*
X101130500Y-54638724D01*
X101130500Y-54261276D01*
X101124993Y-54219445D01*
X101124993Y-54180554D01*
X101130500Y-54138724D01*
X101130500Y-53761276D01*
X101124993Y-53719445D01*
X101124993Y-53680554D01*
X101130500Y-53638724D01*
X101130500Y-53261276D01*
X101124993Y-53219445D01*
X101124993Y-53180553D01*
X101130500Y-53138724D01*
X101130500Y-52761276D01*
X101124993Y-52719445D01*
X101124993Y-52680554D01*
X101130500Y-52638724D01*
X101130500Y-52261276D01*
X101124993Y-52219445D01*
X101124993Y-52180554D01*
X101130500Y-52138724D01*
X101130500Y-51761276D01*
X101124993Y-51719445D01*
X101124993Y-51680554D01*
X101130500Y-51638724D01*
X101130500Y-51261276D01*
X101124993Y-51219445D01*
X101124993Y-51180553D01*
X101130500Y-51138724D01*
X101130500Y-50761276D01*
X101124993Y-50719445D01*
X101124993Y-50680553D01*
X101130500Y-50638724D01*
X101130500Y-50261276D01*
X101124993Y-50219445D01*
X101124993Y-50180553D01*
X101130500Y-50138724D01*
X101130500Y-49761276D01*
X101124163Y-49713141D01*
X101101728Y-49665030D01*
X101074906Y-49607509D01*
X100992490Y-49525093D01*
X100886861Y-49475837D01*
X100838726Y-49469500D01*
X100838724Y-49469500D01*
X99161276Y-49469500D01*
X99161273Y-49469500D01*
X99113138Y-49475837D01*
X99007509Y-49525093D01*
X98925093Y-49607509D01*
X98875837Y-49713138D01*
X98869500Y-49761273D01*
X98869500Y-50138731D01*
X98875006Y-50180553D01*
X98875006Y-50219447D01*
X98869500Y-50261268D01*
X98869500Y-50638731D01*
X98875006Y-50680553D01*
X98875006Y-50719447D01*
X98869500Y-50761268D01*
X98869500Y-51138731D01*
X98875006Y-51180553D01*
X98876115Y-51207033D01*
X98875820Y-51213266D01*
X98869500Y-51261276D01*
X98869500Y-51347020D01*
X98869334Y-51350533D01*
X98858640Y-51384028D01*
X98849538Y-51418000D01*
X98846977Y-51420560D01*
X98845877Y-51424008D01*
X98819872Y-51447665D01*
X98795000Y-51472538D01*
X98791502Y-51473475D01*
X98788826Y-51475910D01*
X98754473Y-51483396D01*
X98720500Y-51492500D01*
X96956448Y-51492500D01*
X96881948Y-51472538D01*
X96851093Y-51448863D01*
X96846116Y-51443886D01*
X96846114Y-51443884D01*
X96737805Y-51362806D01*
X96737803Y-51362805D01*
X96611040Y-51315524D01*
X96555012Y-51309500D01*
X96555000Y-51309500D01*
X96185000Y-51309500D01*
X96184987Y-51309500D01*
X96128959Y-51315524D01*
X96002196Y-51362805D01*
X96002193Y-51362807D01*
X95893885Y-51443884D01*
X95893884Y-51443885D01*
X95812807Y-51552193D01*
X95812805Y-51552196D01*
X95765524Y-51678959D01*
X95759500Y-51734987D01*
X95759500Y-52165012D01*
X95765524Y-52221040D01*
X95812805Y-52347803D01*
X95812807Y-52347806D01*
X95893883Y-52456113D01*
X95893885Y-52456115D01*
X96002195Y-52537194D01*
X96069352Y-52562242D01*
X96137694Y-52587733D01*
X96136856Y-52589977D01*
X96192725Y-52620045D01*
X96233267Y-52685658D01*
X96235571Y-52762752D01*
X96199019Y-52830669D01*
X96159537Y-52860577D01*
X96149962Y-52865577D01*
X96055030Y-52898796D01*
X95979199Y-52954761D01*
X95968977Y-52960100D01*
X95942206Y-52966072D01*
X95916682Y-52976090D01*
X95905117Y-52974346D01*
X95893700Y-52976894D01*
X95867534Y-52968682D01*
X95840416Y-52964595D01*
X95823631Y-52954904D01*
X95820110Y-52953799D01*
X95818294Y-52951822D01*
X95811521Y-52947912D01*
X95744972Y-52898796D01*
X95681016Y-52876417D01*
X95612519Y-52852449D01*
X95612516Y-52852448D01*
X95612514Y-52852448D01*
X95581071Y-52849500D01*
X95198933Y-52849500D01*
X95198909Y-52849502D01*
X95167485Y-52852448D01*
X95167483Y-52852448D01*
X95035027Y-52898796D01*
X95016878Y-52912191D01*
X94945081Y-52940367D01*
X94871384Y-52929961D01*
X94783914Y-52893730D01*
X94783907Y-52893728D01*
X94662099Y-52869500D01*
X94537901Y-52869500D01*
X94416092Y-52893728D01*
X94416090Y-52893729D01*
X94301350Y-52941255D01*
X94301346Y-52941258D01*
X94217824Y-52997066D01*
X94198076Y-53010261D01*
X94110261Y-53098076D01*
X94110258Y-53098079D01*
X94110258Y-53098080D01*
X94080599Y-53142468D01*
X94041258Y-53201346D01*
X94041255Y-53201350D01*
X93993729Y-53316090D01*
X93993728Y-53316092D01*
X93969500Y-53437900D01*
X82705500Y-53437900D01*
X82705500Y-53056508D01*
X82694780Y-52967241D01*
X82638760Y-52825184D01*
X82575747Y-52742089D01*
X82546492Y-52703510D01*
X82546490Y-52703508D01*
X82522951Y-52685658D01*
X82470780Y-52646095D01*
X82423481Y-52585176D01*
X82412978Y-52508767D01*
X82440929Y-52438891D01*
X82451204Y-52424970D01*
X82497551Y-52292519D01*
X82500500Y-52261071D01*
X82500499Y-51778930D01*
X82497551Y-51747481D01*
X82451204Y-51615030D01*
X82451199Y-51615023D01*
X82448044Y-51609052D01*
X82430880Y-51533858D01*
X82453612Y-51460156D01*
X82459878Y-51450964D01*
X82501204Y-51394970D01*
X82547551Y-51262519D01*
X82550500Y-51231071D01*
X82550499Y-50848930D01*
X82547551Y-50817481D01*
X82501204Y-50685030D01*
X82452085Y-50618476D01*
X82423909Y-50546684D01*
X82435404Y-50470417D01*
X82452083Y-50441526D01*
X82501204Y-50374970D01*
X82547551Y-50242519D01*
X82550500Y-50211071D01*
X82550499Y-49828930D01*
X82547551Y-49797481D01*
X82501204Y-49665030D01*
X82486443Y-49645030D01*
X82417877Y-49552125D01*
X82409981Y-49544229D01*
X82410902Y-49543307D01*
X82369929Y-49491921D01*
X82357500Y-49432345D01*
X82357500Y-48021615D01*
X82377462Y-47947115D01*
X82401141Y-47916256D01*
X82410585Y-47906812D01*
X82474906Y-47842491D01*
X82524163Y-47736859D01*
X82530500Y-47688724D01*
X82530500Y-47291218D01*
X82550462Y-47216718D01*
X82570000Y-47191255D01*
X82570000Y-46731718D01*
X82589962Y-46657218D01*
X82613641Y-46626359D01*
X82650000Y-46590000D01*
X82650000Y-46210000D01*
X82613641Y-46173641D01*
X82575077Y-46106846D01*
X82570000Y-46068282D01*
X82570000Y-45610000D01*
X82150000Y-45610000D01*
X82147335Y-45610000D01*
X82136653Y-45616166D01*
X82122782Y-45630038D01*
X82103833Y-45635115D01*
X82086846Y-45644923D01*
X82048282Y-45650000D01*
X81751718Y-45650000D01*
X81677218Y-45630038D01*
X81651104Y-45610000D01*
X81650000Y-45610000D01*
X81230000Y-45610000D01*
X81230000Y-46068282D01*
X81210038Y-46142782D01*
X81186359Y-46173641D01*
X81150000Y-46210000D01*
X81150000Y-46590000D01*
X81186359Y-46626359D01*
X81224923Y-46693154D01*
X81230000Y-46731718D01*
X81230000Y-47193031D01*
X81264423Y-47252654D01*
X81269500Y-47291218D01*
X81269500Y-47688726D01*
X81275837Y-47736861D01*
X81325093Y-47842490D01*
X81398859Y-47916256D01*
X81437423Y-47983051D01*
X81442500Y-48021615D01*
X81442500Y-49432345D01*
X81422538Y-49506845D01*
X81389550Y-49543760D01*
X81390019Y-49544229D01*
X81382122Y-49552125D01*
X81298796Y-49665028D01*
X81281962Y-49713138D01*
X81259448Y-49777481D01*
X81252448Y-49797485D01*
X81249500Y-49828920D01*
X81249500Y-50211066D01*
X81249502Y-50211090D01*
X81252448Y-50242514D01*
X81252448Y-50242516D01*
X81298796Y-50374971D01*
X81347912Y-50441521D01*
X81376090Y-50513318D01*
X81364595Y-50589584D01*
X81347912Y-50618479D01*
X81298796Y-50685027D01*
X81272119Y-50761268D01*
X81259448Y-50797481D01*
X81252448Y-50817485D01*
X81249500Y-50848920D01*
X81249500Y-51231066D01*
X81249502Y-51231090D01*
X81252448Y-51262514D01*
X81252448Y-51262516D01*
X81298796Y-51394971D01*
X81340108Y-51450947D01*
X81368286Y-51522744D01*
X81356791Y-51599010D01*
X81351958Y-51609045D01*
X81348798Y-51615023D01*
X81348796Y-51615030D01*
X81306817Y-51735000D01*
X81302448Y-51747485D01*
X81299500Y-51778920D01*
X81299500Y-52261066D01*
X81299502Y-52261089D01*
X81302448Y-52292514D01*
X81302448Y-52292516D01*
X81348795Y-52424969D01*
X81348796Y-52424970D01*
X81359069Y-52438890D01*
X81359072Y-52438893D01*
X81387250Y-52510690D01*
X81375755Y-52586956D01*
X81329218Y-52646097D01*
X81253510Y-52703507D01*
X81253507Y-52703510D01*
X81161239Y-52825184D01*
X81161239Y-52825185D01*
X81143764Y-52869500D01*
X81106264Y-52964595D01*
X81105220Y-52967242D01*
X81105219Y-52967244D01*
X81094500Y-53056507D01*
X81094500Y-53593492D01*
X81105219Y-53682755D01*
X81105219Y-53682756D01*
X81105220Y-53682759D01*
X81129056Y-53743203D01*
X81161239Y-53824814D01*
X81161239Y-53824815D01*
X81219709Y-53901920D01*
X81253509Y-53946491D01*
X81268027Y-53957500D01*
X81299380Y-53981276D01*
X81346680Y-54042198D01*
X81357182Y-54118608D01*
X81328072Y-54190032D01*
X81299380Y-54218724D01*
X81253507Y-54253510D01*
X81161239Y-54375184D01*
X81161239Y-54375185D01*
X81105220Y-54517242D01*
X81105219Y-54517244D01*
X81094500Y-54606507D01*
X81094500Y-55143492D01*
X81105219Y-55232755D01*
X81105219Y-55232756D01*
X81105220Y-55232759D01*
X81141595Y-55325000D01*
X81161239Y-55374814D01*
X81161239Y-55374815D01*
X81234111Y-55470912D01*
X81253509Y-55496491D01*
X81375184Y-55588760D01*
X81398958Y-55598135D01*
X81460941Y-55644033D01*
X81491671Y-55714775D01*
X81493300Y-55736747D01*
X81493300Y-56678027D01*
X81488017Y-56717351D01*
X81485299Y-56727281D01*
X81484860Y-56728043D01*
X81473936Y-56768810D01*
X81473779Y-56769386D01*
X81454541Y-56802303D01*
X81435420Y-56835421D01*
X81435067Y-56835624D01*
X81434862Y-56835976D01*
X81401739Y-56854867D01*
X81368629Y-56873984D01*
X81318612Y-56887387D01*
X81318062Y-56885337D01*
X81278029Y-56893300D01*
X81166680Y-56893300D01*
X81092180Y-56873338D01*
X81061321Y-56849659D01*
X81021923Y-56810261D01*
X81021920Y-56810258D01*
X80918654Y-56741258D01*
X80918651Y-56741257D01*
X80918649Y-56741255D01*
X80819049Y-56700000D01*
X80803910Y-56693729D01*
X80803908Y-56693728D01*
X80803907Y-56693728D01*
X80682099Y-56669500D01*
X80557901Y-56669500D01*
X80436092Y-56693728D01*
X80436090Y-56693729D01*
X80321350Y-56741255D01*
X80321346Y-56741258D01*
X80279250Y-56769386D01*
X80218076Y-56810261D01*
X80130261Y-56898076D01*
X80130258Y-56898079D01*
X80130258Y-56898080D01*
X80111777Y-56925739D01*
X80061258Y-57001346D01*
X80061255Y-57001350D01*
X80013729Y-57116090D01*
X80013728Y-57116092D01*
X79989500Y-57237900D01*
X77534846Y-57237900D01*
X77558352Y-57219414D01*
X77634695Y-57208436D01*
X77646067Y-57210244D01*
X77747901Y-57230500D01*
X77872099Y-57230500D01*
X77993910Y-57206271D01*
X78108654Y-57158742D01*
X78211920Y-57089742D01*
X78299742Y-57001920D01*
X78368742Y-56898654D01*
X78416271Y-56783910D01*
X78440500Y-56662099D01*
X78440500Y-56537901D01*
X78416271Y-56416090D01*
X78375698Y-56318139D01*
X78368744Y-56301350D01*
X78368743Y-56301348D01*
X78368742Y-56301346D01*
X78299742Y-56198080D01*
X78211920Y-56110258D01*
X78108654Y-56041258D01*
X78108651Y-56041257D01*
X78108649Y-56041255D01*
X78019063Y-56004148D01*
X77993910Y-55993729D01*
X77993908Y-55993728D01*
X77993907Y-55993728D01*
X77872099Y-55969500D01*
X77747901Y-55969500D01*
X77626092Y-55993728D01*
X77626090Y-55993729D01*
X77511350Y-56041255D01*
X77511346Y-56041258D01*
X77408080Y-56110258D01*
X77408076Y-56110261D01*
X77401995Y-56114325D01*
X77400961Y-56112778D01*
X77339742Y-56140511D01*
X77315480Y-56142500D01*
X77139769Y-56142500D01*
X77023406Y-56173679D01*
X76951950Y-56214935D01*
X76951942Y-56214940D01*
X76944759Y-56219088D01*
X76919088Y-56233909D01*
X76899198Y-56253798D01*
X76890155Y-56260461D01*
X76864347Y-56270564D01*
X76840343Y-56284423D01*
X76823171Y-56286683D01*
X76818335Y-56288577D01*
X76813898Y-56287904D01*
X76801779Y-56289500D01*
X76694987Y-56289500D01*
X76638959Y-56295524D01*
X76512196Y-56342805D01*
X76512193Y-56342807D01*
X76403885Y-56423884D01*
X76403882Y-56423887D01*
X76396617Y-56433593D01*
X76335990Y-56481270D01*
X76277337Y-56493300D01*
X75021971Y-56493300D01*
X74982809Y-56488061D01*
X74972759Y-56485323D01*
X74971957Y-56484860D01*
X74917130Y-56470169D01*
X74916538Y-56470008D01*
X74883415Y-56450700D01*
X74850340Y-56431604D01*
X74850180Y-56431328D01*
X74849904Y-56431167D01*
X74830862Y-56397867D01*
X74811777Y-56364809D01*
X74811722Y-56364394D01*
X74811618Y-56364212D01*
X74811620Y-56363620D01*
X74806700Y-56326247D01*
X74806700Y-55736747D01*
X74826662Y-55662247D01*
X74881200Y-55607709D01*
X74901035Y-55598137D01*
X74924816Y-55588760D01*
X75046491Y-55496491D01*
X75138760Y-55374816D01*
X75194780Y-55232759D01*
X75205500Y-55143492D01*
X75205500Y-54606508D01*
X75194780Y-54517241D01*
X75138760Y-54375184D01*
X75083613Y-54302462D01*
X75046492Y-54253510D01*
X75046489Y-54253507D01*
X75000620Y-54218724D01*
X74953320Y-54157803D01*
X74942817Y-54081393D01*
X74971927Y-54009969D01*
X75000620Y-53981276D01*
X75031973Y-53957500D01*
X75046491Y-53946491D01*
X75138760Y-53824816D01*
X75194780Y-53682759D01*
X75205500Y-53593492D01*
X75205500Y-53056508D01*
X75194780Y-52967241D01*
X75138760Y-52825184D01*
X75075747Y-52742089D01*
X75046492Y-52703510D01*
X75046490Y-52703508D01*
X75022951Y-52685658D01*
X74970780Y-52646095D01*
X74923481Y-52585176D01*
X74912978Y-52508767D01*
X74940929Y-52438891D01*
X74951204Y-52424970D01*
X74997551Y-52292519D01*
X75000500Y-52261071D01*
X75000499Y-51778930D01*
X74997551Y-51747481D01*
X74951204Y-51615030D01*
X74951203Y-51615027D01*
X74945987Y-51605158D01*
X74947764Y-51604218D01*
X74924740Y-51545559D01*
X74936234Y-51469292D01*
X74952913Y-51440402D01*
X75001204Y-51374970D01*
X75047551Y-51242519D01*
X75050500Y-51211071D01*
X75050499Y-50828930D01*
X75047551Y-50797481D01*
X75001204Y-50665030D01*
X74952085Y-50598476D01*
X74923909Y-50526684D01*
X74935404Y-50450417D01*
X74952083Y-50421526D01*
X75001204Y-50354970D01*
X75047551Y-50222519D01*
X75050500Y-50191071D01*
X75050499Y-49808930D01*
X75047551Y-49777481D01*
X75001204Y-49645030D01*
X74973512Y-49607509D01*
X74917877Y-49532125D01*
X74909981Y-49524229D01*
X74910902Y-49523307D01*
X74869929Y-49471921D01*
X74857500Y-49412345D01*
X74857500Y-48021615D01*
X74877462Y-47947115D01*
X74901141Y-47916256D01*
X74910585Y-47906812D01*
X74974906Y-47842491D01*
X75024163Y-47736859D01*
X75030500Y-47688724D01*
X75030500Y-47291218D01*
X75050462Y-47216718D01*
X75070000Y-47191255D01*
X75070000Y-46731718D01*
X75089962Y-46657218D01*
X75113641Y-46626359D01*
X75150000Y-46590000D01*
X75150000Y-46210000D01*
X75113641Y-46173641D01*
X75075077Y-46106846D01*
X75070000Y-46068282D01*
X75070000Y-45610000D01*
X74650000Y-45610000D01*
X74647335Y-45610000D01*
X74636653Y-45616166D01*
X74622782Y-45630038D01*
X74603833Y-45635115D01*
X74586846Y-45644923D01*
X74548282Y-45650000D01*
X74251718Y-45650000D01*
X74177218Y-45630038D01*
X74151104Y-45610000D01*
X74150000Y-45610000D01*
X73730000Y-45610000D01*
X73730000Y-46068282D01*
X73710038Y-46142782D01*
X73686359Y-46173641D01*
X73650000Y-46210000D01*
X73650000Y-46590000D01*
X73686359Y-46626359D01*
X73724923Y-46693154D01*
X73730000Y-46731718D01*
X73730000Y-47193031D01*
X73764423Y-47252654D01*
X73769500Y-47291218D01*
X73769500Y-47688726D01*
X73775837Y-47736861D01*
X73825093Y-47842490D01*
X73898859Y-47916256D01*
X73937423Y-47983051D01*
X73942500Y-48021615D01*
X73942500Y-49412345D01*
X73922538Y-49486845D01*
X73889550Y-49523760D01*
X73890019Y-49524229D01*
X73882122Y-49532125D01*
X73798796Y-49645028D01*
X73774964Y-49713138D01*
X73758120Y-49761276D01*
X73752448Y-49777485D01*
X73749500Y-49808920D01*
X73749500Y-50191066D01*
X73749502Y-50191090D01*
X73752448Y-50222514D01*
X73752448Y-50222516D01*
X73798796Y-50354971D01*
X73847912Y-50421521D01*
X73876090Y-50493318D01*
X73864595Y-50569584D01*
X73847912Y-50598479D01*
X73798796Y-50665027D01*
X73752448Y-50797485D01*
X73749500Y-50828920D01*
X73749500Y-51211066D01*
X73749502Y-51211090D01*
X73752448Y-51242514D01*
X73752448Y-51242516D01*
X73798796Y-51374971D01*
X73847081Y-51440395D01*
X73875259Y-51512192D01*
X73863764Y-51588458D01*
X73852833Y-51607391D01*
X73848798Y-51615027D01*
X73848796Y-51615030D01*
X73806817Y-51735000D01*
X73802448Y-51747485D01*
X73799500Y-51778920D01*
X73799500Y-52261066D01*
X73799502Y-52261089D01*
X73802448Y-52292514D01*
X73802448Y-52292516D01*
X73848795Y-52424969D01*
X73848796Y-52424970D01*
X73859069Y-52438890D01*
X73859072Y-52438893D01*
X73887250Y-52510690D01*
X73875755Y-52586956D01*
X73829218Y-52646097D01*
X73753510Y-52703507D01*
X73753507Y-52703510D01*
X73661239Y-52825184D01*
X73661239Y-52825185D01*
X73643764Y-52869500D01*
X73606264Y-52964595D01*
X73605220Y-52967242D01*
X73605219Y-52967244D01*
X73594500Y-53056507D01*
X73594500Y-53593492D01*
X73605219Y-53682755D01*
X73605219Y-53682756D01*
X73605220Y-53682759D01*
X73629056Y-53743203D01*
X73661239Y-53824814D01*
X73661239Y-53824815D01*
X73719709Y-53901920D01*
X73753509Y-53946491D01*
X73768027Y-53957500D01*
X73799380Y-53981276D01*
X73846680Y-54042198D01*
X73857182Y-54118608D01*
X73828072Y-54190032D01*
X73799380Y-54218724D01*
X73753507Y-54253510D01*
X73661239Y-54375184D01*
X73661239Y-54375185D01*
X73605220Y-54517242D01*
X73605219Y-54517244D01*
X73594500Y-54606507D01*
X73594500Y-54899385D01*
X73574538Y-54973885D01*
X73520000Y-55028423D01*
X73445500Y-55048385D01*
X73388481Y-55037043D01*
X73283913Y-54993730D01*
X73283907Y-54993728D01*
X73162099Y-54969500D01*
X73037901Y-54969500D01*
X72916092Y-54993728D01*
X72916090Y-54993729D01*
X72801350Y-55041255D01*
X72801346Y-55041258D01*
X72698076Y-55110261D01*
X72610261Y-55198076D01*
X72541258Y-55301346D01*
X72541255Y-55301350D01*
X72493729Y-55416090D01*
X72493728Y-55416092D01*
X72469500Y-55537900D01*
X72469500Y-55662099D01*
X72489226Y-55761275D01*
X72493729Y-55783910D01*
X72497906Y-55793994D01*
X72541255Y-55898649D01*
X72541257Y-55898651D01*
X72541258Y-55898654D01*
X72610258Y-56001920D01*
X72698080Y-56089742D01*
X72801346Y-56158742D01*
X72801348Y-56158743D01*
X72801350Y-56158744D01*
X72830662Y-56170885D01*
X72916090Y-56206271D01*
X73023367Y-56227609D01*
X73044432Y-56237996D01*
X73067191Y-56243793D01*
X73078442Y-56254768D01*
X73092542Y-56261721D01*
X73105590Y-56281249D01*
X73122402Y-56297648D01*
X73126486Y-56312522D01*
X73135392Y-56325850D01*
X73143288Y-56371895D01*
X73143300Y-56372860D01*
X73143300Y-56396456D01*
X73143300Y-56503544D01*
X73145002Y-56509898D01*
X73145203Y-56526010D01*
X73137791Y-56555111D01*
X73133870Y-56584887D01*
X73128389Y-56592028D01*
X73126168Y-56600752D01*
X73105198Y-56622249D01*
X73086915Y-56646075D01*
X73078032Y-56650099D01*
X73072313Y-56655963D01*
X73053261Y-56661322D01*
X73025284Y-56673998D01*
X72926091Y-56693728D01*
X72926090Y-56693729D01*
X72811350Y-56741255D01*
X72811346Y-56741258D01*
X72769250Y-56769386D01*
X72708076Y-56810261D01*
X72620261Y-56898076D01*
X72620258Y-56898079D01*
X72620258Y-56898080D01*
X72601777Y-56925739D01*
X72551258Y-57001346D01*
X72551255Y-57001350D01*
X72503729Y-57116090D01*
X72503728Y-57116092D01*
X72479500Y-57237900D01*
X72479500Y-57293621D01*
X72459538Y-57368121D01*
X72435859Y-57398980D01*
X71735180Y-58099659D01*
X71668385Y-58138223D01*
X71629821Y-58143300D01*
X64030179Y-58143300D01*
X63955679Y-58123338D01*
X63924820Y-58099659D01*
X60714903Y-54889742D01*
X57399720Y-51574559D01*
X57399717Y-51574557D01*
X57399716Y-51574556D01*
X57306984Y-51521017D01*
X57306981Y-51521016D01*
X57203544Y-51493300D01*
X54380179Y-51493300D01*
X54305679Y-51473338D01*
X54274820Y-51449659D01*
X54056227Y-51231066D01*
X53824720Y-50999559D01*
X53824717Y-50999557D01*
X53824716Y-50999556D01*
X53731984Y-50946017D01*
X53731981Y-50946016D01*
X53628544Y-50918300D01*
X53578551Y-50918300D01*
X53504051Y-50898338D01*
X53449513Y-50843800D01*
X53430826Y-50788750D01*
X53427209Y-50761276D01*
X53424163Y-50738141D01*
X53415447Y-50719450D01*
X53374906Y-50632509D01*
X53292490Y-50550093D01*
X53186861Y-50500837D01*
X53138726Y-50494500D01*
X53138724Y-50494500D01*
X52061276Y-50494500D01*
X52061273Y-50494500D01*
X52013138Y-50500837D01*
X51907509Y-50550093D01*
X51825093Y-50632509D01*
X51775837Y-50738138D01*
X51769500Y-50786273D01*
X51769500Y-51863726D01*
X51775837Y-51911861D01*
X51825093Y-52017490D01*
X51830290Y-52022687D01*
X51868854Y-52089482D01*
X51868854Y-52166610D01*
X51862589Y-52185065D01*
X51801416Y-52332750D01*
X51801415Y-52332752D01*
X51769500Y-52493203D01*
X51769500Y-52656796D01*
X51801415Y-52817246D01*
X51864018Y-52968384D01*
X51864023Y-52968394D01*
X51911335Y-53039200D01*
X51954909Y-53104413D01*
X51954911Y-53104415D01*
X51955787Y-53105483D01*
X51956129Y-53106238D01*
X51958976Y-53110499D01*
X51958272Y-53110969D01*
X51987614Y-53175739D01*
X51980048Y-53252495D01*
X51958764Y-53289359D01*
X51958976Y-53289501D01*
X51956820Y-53292727D01*
X51955787Y-53294517D01*
X51954911Y-53295584D01*
X51864023Y-53431605D01*
X51864018Y-53431615D01*
X51801415Y-53582753D01*
X51769500Y-53743203D01*
X51769500Y-53906796D01*
X51801415Y-54067246D01*
X51864018Y-54218384D01*
X51864020Y-54218386D01*
X51864021Y-54218389D01*
X51895855Y-54266033D01*
X51920647Y-54339066D01*
X51905600Y-54414712D01*
X51877327Y-54454168D01*
X51862096Y-54469399D01*
X51862086Y-54469411D01*
X51758123Y-54625001D01*
X51758118Y-54625010D01*
X51686509Y-54797891D01*
X51686507Y-54797899D01*
X51681115Y-54824999D01*
X50100500Y-54824999D01*
X50100500Y-44968876D01*
X50599500Y-44968876D01*
X50599500Y-45231123D01*
X50633728Y-45491107D01*
X50633728Y-45491110D01*
X50701600Y-45744415D01*
X50701600Y-45744416D01*
X50801959Y-45986701D01*
X50849060Y-46068282D01*
X50930880Y-46210000D01*
X50933078Y-46213806D01*
X50933078Y-46213807D01*
X51092715Y-46421848D01*
X51278151Y-46607284D01*
X51440316Y-46731718D01*
X51486197Y-46766924D01*
X51713303Y-46898043D01*
X51917809Y-46982752D01*
X51955583Y-46998399D01*
X52043332Y-47021910D01*
X52208884Y-47066270D01*
X52208890Y-47066270D01*
X52208891Y-47066271D01*
X52245834Y-47071134D01*
X52468877Y-47100499D01*
X52468878Y-47100500D01*
X52468880Y-47100500D01*
X52731122Y-47100500D01*
X52731122Y-47100499D01*
X52991108Y-47066271D01*
X52991110Y-47066271D01*
X52991111Y-47066270D01*
X52991116Y-47066270D01*
X53244415Y-46998399D01*
X53244416Y-46998399D01*
X53244417Y-46998398D01*
X53244419Y-46998398D01*
X53486697Y-46898043D01*
X53713803Y-46766924D01*
X53921848Y-46607284D01*
X53921849Y-46607284D01*
X54107284Y-46421849D01*
X54107284Y-46421848D01*
X54266921Y-46213807D01*
X54266921Y-46213806D01*
X54266924Y-46213803D01*
X54398043Y-45986697D01*
X54498398Y-45744419D01*
X54566270Y-45491116D01*
X54600500Y-45231120D01*
X54600500Y-44968880D01*
X54600499Y-44968876D01*
X106599500Y-44968876D01*
X106599500Y-45231123D01*
X106633728Y-45491107D01*
X106633728Y-45491110D01*
X106701600Y-45744415D01*
X106701600Y-45744416D01*
X106801959Y-45986701D01*
X106849060Y-46068282D01*
X106930880Y-46210000D01*
X106933078Y-46213806D01*
X106933078Y-46213807D01*
X107092715Y-46421848D01*
X107278151Y-46607284D01*
X107440316Y-46731718D01*
X107486197Y-46766924D01*
X107713303Y-46898043D01*
X107917809Y-46982752D01*
X107955583Y-46998399D01*
X108043332Y-47021910D01*
X108208884Y-47066270D01*
X108208890Y-47066270D01*
X108208891Y-47066271D01*
X108245834Y-47071134D01*
X108468877Y-47100499D01*
X108468878Y-47100500D01*
X108468880Y-47100500D01*
X108731122Y-47100500D01*
X108731122Y-47100499D01*
X108991108Y-47066271D01*
X108991110Y-47066271D01*
X108991111Y-47066270D01*
X108991116Y-47066270D01*
X109244415Y-46998399D01*
X109244416Y-46998399D01*
X109244417Y-46998398D01*
X109244419Y-46998398D01*
X109486697Y-46898043D01*
X109713803Y-46766924D01*
X109921848Y-46607284D01*
X109921849Y-46607284D01*
X110107284Y-46421849D01*
X110107284Y-46421848D01*
X110266921Y-46213807D01*
X110266921Y-46213806D01*
X110266924Y-46213803D01*
X110398043Y-45986697D01*
X110498398Y-45744419D01*
X110566270Y-45491116D01*
X110600500Y-45231120D01*
X110600500Y-44968880D01*
X110566270Y-44708884D01*
X110519439Y-44534108D01*
X110498399Y-44455584D01*
X110498399Y-44455583D01*
X110446146Y-44329434D01*
X110398043Y-44213303D01*
X110266924Y-43986197D01*
X110266921Y-43986193D01*
X110266921Y-43986192D01*
X110107284Y-43778151D01*
X109921848Y-43592715D01*
X109713806Y-43433078D01*
X109486701Y-43301959D01*
X109486699Y-43301958D01*
X109486697Y-43301957D01*
X109411154Y-43270666D01*
X109244416Y-43201600D01*
X109018255Y-43141002D01*
X108991116Y-43133730D01*
X108991114Y-43133729D01*
X108991108Y-43133728D01*
X108731123Y-43099500D01*
X108731120Y-43099500D01*
X108468880Y-43099500D01*
X108468876Y-43099500D01*
X108208892Y-43133728D01*
X108208889Y-43133728D01*
X107955584Y-43201600D01*
X107955583Y-43201600D01*
X107713298Y-43301959D01*
X107486193Y-43433078D01*
X107486192Y-43433078D01*
X107278151Y-43592715D01*
X107278151Y-43592716D01*
X107278149Y-43592718D01*
X107092718Y-43778149D01*
X107092716Y-43778151D01*
X107092715Y-43778151D01*
X106933078Y-43986192D01*
X106933078Y-43986193D01*
X106801959Y-44213298D01*
X106701600Y-44455583D01*
X106701600Y-44455584D01*
X106633728Y-44708889D01*
X106633728Y-44708892D01*
X106599500Y-44968876D01*
X54600499Y-44968876D01*
X54566270Y-44708884D01*
X54519439Y-44534108D01*
X54498399Y-44455584D01*
X54498399Y-44455583D01*
X54446146Y-44329434D01*
X54398043Y-44213303D01*
X54266924Y-43986197D01*
X54266921Y-43986193D01*
X54266921Y-43986192D01*
X54107284Y-43778151D01*
X53921848Y-43592715D01*
X53713806Y-43433078D01*
X53486701Y-43301959D01*
X53486699Y-43301958D01*
X53486697Y-43301957D01*
X53411154Y-43270666D01*
X53244416Y-43201600D01*
X53018255Y-43141002D01*
X52991116Y-43133730D01*
X52991114Y-43133729D01*
X52991108Y-43133728D01*
X52731123Y-43099500D01*
X52731120Y-43099500D01*
X52468880Y-43099500D01*
X52468876Y-43099500D01*
X52208892Y-43133728D01*
X52208889Y-43133728D01*
X51955584Y-43201600D01*
X51955583Y-43201600D01*
X51713298Y-43301959D01*
X51486193Y-43433078D01*
X51486192Y-43433078D01*
X51278151Y-43592715D01*
X51278151Y-43592716D01*
X51278149Y-43592718D01*
X51092718Y-43778149D01*
X51092716Y-43778151D01*
X51092715Y-43778151D01*
X50933078Y-43986192D01*
X50933078Y-43986193D01*
X50801959Y-44213298D01*
X50701600Y-44455583D01*
X50701600Y-44455584D01*
X50633728Y-44708889D01*
X50633728Y-44708892D01*
X50599500Y-44968876D01*
X50100500Y-44968876D01*
X50100500Y-44604878D01*
X50100819Y-44595133D01*
X50109288Y-44465924D01*
X50116967Y-44348751D01*
X50119511Y-44329434D01*
X50166727Y-44092061D01*
X50171769Y-44073247D01*
X50249566Y-43844067D01*
X50257024Y-43826061D01*
X50280652Y-43778149D01*
X50364065Y-43609002D01*
X50373802Y-43592136D01*
X50508268Y-43390895D01*
X50520120Y-43375449D01*
X50679717Y-43193463D01*
X50693463Y-43179717D01*
X50875449Y-43020120D01*
X50890895Y-43008268D01*
X51092136Y-42873802D01*
X51109002Y-42864065D01*
X51326066Y-42757021D01*
X51344067Y-42749566D01*
X51573247Y-42671769D01*
X51592061Y-42666727D01*
X51829439Y-42619510D01*
X51848751Y-42616967D01*
X52095133Y-42600818D01*
X52104878Y-42600500D01*
X52165892Y-42600500D01*
X54534108Y-42600500D01*
X109034108Y-42600500D01*
X109095122Y-42600500D01*
X109104866Y-42600818D01*
G37*
%TD.AperFunction*%
%TD*%
M02*
