%TF.GenerationSoftware,KiCad,Pcbnew,9.0.1+1*%
%TF.CreationDate,2025-05-28T20:00:13+08:00*%
%TF.ProjectId,audio_lab,61756469-6f5f-46c6-9162-2e6b69636164,rev?*%
%TF.SameCoordinates,Original*%
%TF.FileFunction,Copper,L2,Bot*%
%TF.FilePolarity,Positive*%
%FSLAX46Y46*%
G04 Gerber Fmt 4.6, Leading zero omitted, Abs format (unit mm)*
G04 Created by KiCad (PCBNEW 9.0.1+1) date 2025-05-28 20:00:13*
%MOMM*%
%LPD*%
G01*
G04 APERTURE LIST*
%TA.AperFunction,ComponentPad*%
%ADD10R,1.000000X1.000000*%
%TD*%
%TA.AperFunction,ComponentPad*%
%ADD11C,1.000000*%
%TD*%
%TA.AperFunction,ViaPad*%
%ADD12C,0.600000*%
%TD*%
%TA.AperFunction,Conductor*%
%ADD13C,0.152400*%
%TD*%
%TA.AperFunction,Conductor*%
%ADD14C,0.254000*%
%TD*%
G04 APERTURE END LIST*
D10*
%TO.P,J2,1,Pin_1*%
%TO.N,/AFE/AUD_CLK*%
X52600000Y-51325000D03*
D11*
%TO.P,J2,2,Pin_2*%
%TO.N,/AFE/AUD_DAT*%
X52600000Y-52575000D03*
%TO.P,J2,3,Pin_3*%
%TO.N,+3V3*%
X52600000Y-53825000D03*
%TO.P,J2,4,Pin_4*%
%TO.N,GND*%
X52600000Y-55075000D03*
%TO.P,J2,5,Pin_5*%
%TO.N,/AFE/LCD_CS*%
X52600000Y-56325000D03*
%TO.P,J2,6,Pin_6*%
%TO.N,/AFE/LCD_DC*%
X52600000Y-57575000D03*
%TO.P,J2,7,Pin_7*%
%TO.N,/AFE/LCD_CLK*%
X52600000Y-58825000D03*
%TO.P,J2,8,Pin_8*%
%TO.N,/AFE/LCD_DAT*%
X52600000Y-60075000D03*
%TD*%
D12*
%TO.N,GND*%
X97700000Y-58100000D03*
X80600000Y-43500000D03*
X73100000Y-43500000D03*
X83110000Y-50000000D03*
X80600000Y-67900000D03*
X94100000Y-62600000D03*
X98100000Y-47400000D03*
X98100000Y-64100000D03*
X81710000Y-58600000D03*
X95600000Y-43500000D03*
X73110000Y-50000000D03*
X73910000Y-58600000D03*
X87800000Y-54500000D03*
X80610000Y-50000000D03*
X87800000Y-59100000D03*
X83810000Y-53400000D03*
X103100000Y-50800000D03*
X76010000Y-57700000D03*
X103100000Y-43500000D03*
X58100000Y-50800000D03*
X83510000Y-57700000D03*
X65600000Y-67900000D03*
X72410000Y-46600000D03*
X52600000Y-48300000D03*
X88100000Y-43500000D03*
X88100000Y-67900000D03*
X103100000Y-67900000D03*
X80620000Y-55600000D03*
X101700000Y-57950000D03*
X75610000Y-50000000D03*
X84410000Y-46500000D03*
X78210000Y-46500000D03*
X58100000Y-43500000D03*
X94100000Y-54800000D03*
X95600000Y-67900000D03*
X65600000Y-43500000D03*
X72410000Y-52400000D03*
X79800000Y-59100000D03*
X103100000Y-60600000D03*
X52600000Y-63100000D03*
X58100000Y-67900000D03*
X73100000Y-67900000D03*
X76310000Y-53400000D03*
X94100000Y-52000000D03*
X94100000Y-59600000D03*
X94100000Y-64100000D03*
%TO.N,+3V3*%
X85310000Y-56600000D03*
X73100000Y-55600000D03*
X77810000Y-56600000D03*
X94600000Y-53500000D03*
X87800000Y-56600000D03*
%TO.N,/AFE/LCD_CLK*%
X97600000Y-56300000D03*
%TO.N,/AFE/LCD_CS*%
X96400000Y-54400000D03*
%TO.N,/AFE/LCD_DAT*%
X98400000Y-56800000D03*
%TO.N,/AFE/LCD_DC*%
X97500000Y-54400000D03*
%TO.N,/AFE/AUD_CLK*%
X73110000Y-57300000D03*
X80620000Y-57300000D03*
%TO.N,/AFE/AUD_DAT*%
X75210000Y-58600000D03*
X83010000Y-58600000D03*
X72400000Y-59100000D03*
%TD*%
D13*
%TO.N,+3V3*%
X73110000Y-55600000D02*
X73810000Y-56300000D01*
D14*
X94600000Y-53500000D02*
X90900000Y-53500000D01*
D13*
X77210000Y-56600000D02*
X77810000Y-56600000D01*
D14*
X77810000Y-56600000D02*
X85310000Y-56600000D01*
D13*
X73810000Y-56300000D02*
X76910000Y-56300000D01*
D14*
X85310000Y-56600000D02*
X87800000Y-56600000D01*
X90900000Y-53500000D02*
X87800000Y-56600000D01*
D13*
X76910000Y-56300000D02*
X77210000Y-56600000D01*
D14*
%TO.N,/AFE/LCD_CLK*%
X97600000Y-56300000D02*
X97200000Y-56700000D01*
X87900000Y-63000000D02*
X60500000Y-63000000D01*
X60500000Y-63000000D02*
X56325000Y-58825000D01*
X93200000Y-57700000D02*
X87900000Y-63000000D01*
X97050000Y-56700000D02*
X96050000Y-57700000D01*
X97200000Y-56700000D02*
X97050000Y-56700000D01*
X56325000Y-58825000D02*
X52600000Y-58825000D01*
X96050000Y-57700000D02*
X93200000Y-57700000D01*
%TO.N,/AFE/LCD_CS*%
X61100000Y-61200000D02*
X56225000Y-56325000D01*
X56225000Y-56325000D02*
X52600000Y-56325000D01*
X87300000Y-61200000D02*
X61100000Y-61200000D01*
X95600000Y-56100000D02*
X92400000Y-56100000D01*
X92400000Y-56100000D02*
X87300000Y-61200000D01*
X96400000Y-54400000D02*
X96400000Y-55300000D01*
X96400000Y-55300000D02*
X95600000Y-56100000D01*
%TO.N,/AFE/LCD_DAT*%
X88150000Y-63900000D02*
X93550000Y-58500000D01*
X97400000Y-57300000D02*
X97900000Y-57300000D01*
X56275002Y-60075000D02*
X60100002Y-63900000D01*
X97900000Y-57300000D02*
X98400000Y-56800000D01*
X96200000Y-58500000D02*
X97400000Y-57300000D01*
X52600000Y-60075000D02*
X56275002Y-60075000D01*
X93550000Y-58500000D02*
X96200000Y-58500000D01*
X60100002Y-63900000D02*
X88150000Y-63900000D01*
%TO.N,/AFE/LCD_DC*%
X87600000Y-62100000D02*
X92800000Y-56900000D01*
X97100000Y-55600000D02*
X97100000Y-54800000D01*
X56275000Y-57575000D02*
X60800000Y-62100000D01*
X97100000Y-54800000D02*
X97500000Y-54400000D01*
X92800000Y-56900000D02*
X95800000Y-56900000D01*
X95800000Y-56900000D02*
X97100000Y-55600000D01*
X60800000Y-62100000D02*
X87600000Y-62100000D01*
X52600000Y-57575000D02*
X56275000Y-57575000D01*
D13*
%TO.N,/AFE/AUD_CLK*%
X74600000Y-57300000D02*
X75000000Y-56900000D01*
X73110000Y-57300000D02*
X74600000Y-57300000D01*
X77010000Y-57300000D02*
X80620000Y-57300000D01*
X75000000Y-56900000D02*
X76610000Y-56900000D01*
X76610000Y-56900000D02*
X77010000Y-57300000D01*
%TO.N,/AFE/AUD_DAT*%
X72400000Y-59100000D02*
X72750000Y-59450000D01*
X74360000Y-59450000D02*
X75210000Y-58600000D01*
X80910000Y-58000000D02*
X81087200Y-57822800D01*
X76200000Y-58600000D02*
X76800000Y-58000000D01*
X72750000Y-59450000D02*
X74360000Y-59450000D01*
X81087200Y-57822800D02*
X82232800Y-57822800D01*
X82232800Y-57822800D02*
X83010000Y-58600000D01*
X75210000Y-58600000D02*
X76200000Y-58600000D01*
X76800000Y-58000000D02*
X80910000Y-58000000D01*
%TD*%
%TA.AperFunction,Conductor*%
%TO.N,GND*%
G36*
X109104866Y-42600818D02*
G01*
X109351246Y-42616967D01*
X109370562Y-42619510D01*
X109607934Y-42666726D01*
X109626752Y-42671769D01*
X109855932Y-42749566D01*
X109873938Y-42757024D01*
X110090990Y-42864062D01*
X110107869Y-42873807D01*
X110309100Y-43008266D01*
X110324557Y-43020126D01*
X110506528Y-43179710D01*
X110520289Y-43193471D01*
X110679869Y-43375437D01*
X110691733Y-43390899D01*
X110826192Y-43592130D01*
X110835937Y-43609009D01*
X110942975Y-43826061D01*
X110950433Y-43844067D01*
X111028230Y-44073247D01*
X111033275Y-44092074D01*
X111080488Y-44329434D01*
X111083032Y-44348757D01*
X111099181Y-44595133D01*
X111099500Y-44604878D01*
X111099500Y-47450500D01*
X111079538Y-47525000D01*
X111025000Y-47579538D01*
X110950500Y-47599500D01*
X106665892Y-47599500D01*
X106534108Y-47599500D01*
X106406814Y-47633608D01*
X106406812Y-47633608D01*
X106406812Y-47633609D01*
X106292689Y-47699497D01*
X106199497Y-47792689D01*
X106133609Y-47906812D01*
X106099500Y-48034106D01*
X106099500Y-48034108D01*
X106099500Y-63234108D01*
X106099500Y-63365892D01*
X106133608Y-63493186D01*
X106133609Y-63493187D01*
X106199497Y-63607310D01*
X106199498Y-63607311D01*
X106199500Y-63607314D01*
X106292686Y-63700500D01*
X106406814Y-63766392D01*
X106534108Y-63800500D01*
X110950500Y-63800500D01*
X111025000Y-63820462D01*
X111079538Y-63875000D01*
X111099500Y-63949500D01*
X111099500Y-66795121D01*
X111099181Y-66804866D01*
X111083032Y-67051242D01*
X111080488Y-67070565D01*
X111033275Y-67307925D01*
X111028230Y-67326752D01*
X110950433Y-67555932D01*
X110942975Y-67573938D01*
X110835937Y-67790990D01*
X110826192Y-67807869D01*
X110691733Y-68009100D01*
X110679869Y-68024562D01*
X110520300Y-68206517D01*
X110506517Y-68220300D01*
X110324562Y-68379869D01*
X110309100Y-68391733D01*
X110107869Y-68526192D01*
X110090990Y-68535937D01*
X109873938Y-68642975D01*
X109855932Y-68650433D01*
X109626752Y-68728230D01*
X109607925Y-68733275D01*
X109370565Y-68780488D01*
X109351243Y-68783032D01*
X109127312Y-68797709D01*
X109104865Y-68799181D01*
X109095122Y-68799500D01*
X52104878Y-68799500D01*
X52095133Y-68799181D01*
X51848757Y-68783032D01*
X51829434Y-68780488D01*
X51592074Y-68733275D01*
X51573247Y-68728230D01*
X51344067Y-68650433D01*
X51326061Y-68642975D01*
X51109009Y-68535937D01*
X51092130Y-68526192D01*
X50890899Y-68391733D01*
X50875437Y-68379869D01*
X50693471Y-68220289D01*
X50679710Y-68206528D01*
X50520126Y-68024557D01*
X50508266Y-68009100D01*
X50373807Y-67807869D01*
X50364062Y-67790990D01*
X50257024Y-67573938D01*
X50249566Y-67555932D01*
X50171769Y-67326752D01*
X50166726Y-67307934D01*
X50119510Y-67070562D01*
X50116967Y-67051242D01*
X50109965Y-66944416D01*
X50100819Y-66804866D01*
X50100500Y-66795121D01*
X50100500Y-66168876D01*
X50599500Y-66168876D01*
X50599500Y-66431123D01*
X50633728Y-66691107D01*
X50633728Y-66691110D01*
X50701600Y-66944415D01*
X50701600Y-66944416D01*
X50801959Y-67186701D01*
X50933078Y-67413806D01*
X50933078Y-67413807D01*
X51092715Y-67621848D01*
X51278151Y-67807284D01*
X51486193Y-67966921D01*
X51486197Y-67966924D01*
X51713303Y-68098043D01*
X51917809Y-68182752D01*
X51955583Y-68198399D01*
X52013286Y-68213860D01*
X52208884Y-68266270D01*
X52208890Y-68266270D01*
X52208891Y-68266271D01*
X52245834Y-68271134D01*
X52468877Y-68300499D01*
X52468878Y-68300500D01*
X52468880Y-68300500D01*
X52731122Y-68300500D01*
X52731122Y-68300499D01*
X52991108Y-68266271D01*
X52991110Y-68266271D01*
X52991111Y-68266270D01*
X52991116Y-68266270D01*
X53244415Y-68198399D01*
X53244416Y-68198399D01*
X53244417Y-68198398D01*
X53244419Y-68198398D01*
X53486697Y-68098043D01*
X53713803Y-67966924D01*
X53921848Y-67807284D01*
X53921849Y-67807284D01*
X54107284Y-67621849D01*
X54107284Y-67621848D01*
X54150771Y-67565176D01*
X54266924Y-67413803D01*
X54398043Y-67186697D01*
X54498398Y-66944419D01*
X54566270Y-66691116D01*
X54600500Y-66431120D01*
X54600500Y-66168880D01*
X54600499Y-66168876D01*
X106599500Y-66168876D01*
X106599500Y-66431123D01*
X106633728Y-66691107D01*
X106633728Y-66691110D01*
X106701600Y-66944415D01*
X106701600Y-66944416D01*
X106801959Y-67186701D01*
X106933078Y-67413806D01*
X106933078Y-67413807D01*
X107092715Y-67621848D01*
X107278151Y-67807284D01*
X107486193Y-67966921D01*
X107486197Y-67966924D01*
X107713303Y-68098043D01*
X107917809Y-68182752D01*
X107955583Y-68198399D01*
X108013286Y-68213860D01*
X108208884Y-68266270D01*
X108208890Y-68266270D01*
X108208891Y-68266271D01*
X108245834Y-68271134D01*
X108468877Y-68300499D01*
X108468878Y-68300500D01*
X108468880Y-68300500D01*
X108731122Y-68300500D01*
X108731122Y-68300499D01*
X108991108Y-68266271D01*
X108991110Y-68266271D01*
X108991111Y-68266270D01*
X108991116Y-68266270D01*
X109244415Y-68198399D01*
X109244416Y-68198399D01*
X109244417Y-68198398D01*
X109244419Y-68198398D01*
X109486697Y-68098043D01*
X109713803Y-67966924D01*
X109921848Y-67807284D01*
X109921849Y-67807284D01*
X110107284Y-67621849D01*
X110107284Y-67621848D01*
X110150771Y-67565176D01*
X110266924Y-67413803D01*
X110398043Y-67186697D01*
X110498398Y-66944419D01*
X110566270Y-66691116D01*
X110600500Y-66431120D01*
X110600500Y-66168880D01*
X110566270Y-65908884D01*
X110523242Y-65748302D01*
X110498399Y-65655584D01*
X110498399Y-65655583D01*
X110482752Y-65617809D01*
X110398043Y-65413303D01*
X110266924Y-65186197D01*
X110266921Y-65186193D01*
X110266921Y-65186192D01*
X110107284Y-64978151D01*
X109921848Y-64792715D01*
X109713806Y-64633078D01*
X109486701Y-64501959D01*
X109486699Y-64501958D01*
X109486697Y-64501957D01*
X109411154Y-64470666D01*
X109244416Y-64401600D01*
X109018255Y-64341002D01*
X108991116Y-64333730D01*
X108991114Y-64333729D01*
X108991108Y-64333728D01*
X108731123Y-64299500D01*
X108731120Y-64299500D01*
X108468880Y-64299500D01*
X108468876Y-64299500D01*
X108208892Y-64333728D01*
X108208889Y-64333728D01*
X107955584Y-64401600D01*
X107955583Y-64401600D01*
X107713298Y-64501959D01*
X107486193Y-64633078D01*
X107486192Y-64633078D01*
X107278151Y-64792715D01*
X107278151Y-64792716D01*
X107278149Y-64792718D01*
X107092718Y-64978149D01*
X107092716Y-64978151D01*
X107092715Y-64978151D01*
X106933078Y-65186192D01*
X106933078Y-65186193D01*
X106801959Y-65413298D01*
X106701600Y-65655583D01*
X106701600Y-65655584D01*
X106633728Y-65908889D01*
X106633728Y-65908892D01*
X106599500Y-66168876D01*
X54600499Y-66168876D01*
X54566270Y-65908884D01*
X54523242Y-65748302D01*
X54498399Y-65655584D01*
X54498399Y-65655583D01*
X54482752Y-65617809D01*
X54398043Y-65413303D01*
X54266924Y-65186197D01*
X54266921Y-65186193D01*
X54266921Y-65186192D01*
X54107284Y-64978151D01*
X53921848Y-64792715D01*
X53713806Y-64633078D01*
X53486701Y-64501959D01*
X53486699Y-64501958D01*
X53486697Y-64501957D01*
X53411154Y-64470666D01*
X53244416Y-64401600D01*
X53018255Y-64341002D01*
X52991116Y-64333730D01*
X52991114Y-64333729D01*
X52991108Y-64333728D01*
X52731123Y-64299500D01*
X52731120Y-64299500D01*
X52468880Y-64299500D01*
X52468876Y-64299500D01*
X52208892Y-64333728D01*
X52208889Y-64333728D01*
X51955584Y-64401600D01*
X51955583Y-64401600D01*
X51713298Y-64501959D01*
X51486193Y-64633078D01*
X51486192Y-64633078D01*
X51278151Y-64792715D01*
X51278151Y-64792716D01*
X51278149Y-64792718D01*
X51092718Y-64978149D01*
X51092716Y-64978151D01*
X51092715Y-64978151D01*
X50933078Y-65186192D01*
X50933078Y-65186193D01*
X50801959Y-65413298D01*
X50701600Y-65655583D01*
X50701600Y-65655584D01*
X50633728Y-65908889D01*
X50633728Y-65908892D01*
X50599500Y-66168876D01*
X50100500Y-66168876D01*
X50100500Y-54824999D01*
X51681115Y-54824999D01*
X51681116Y-54825000D01*
X52433012Y-54825000D01*
X52415795Y-54834940D01*
X52359940Y-54890795D01*
X52320444Y-54959204D01*
X52300000Y-55035504D01*
X52300000Y-55114496D01*
X52320444Y-55190796D01*
X52359940Y-55259205D01*
X52415795Y-55315060D01*
X52433012Y-55325000D01*
X51681116Y-55325000D01*
X51686507Y-55352100D01*
X51686509Y-55352108D01*
X51758118Y-55524989D01*
X51758123Y-55524998D01*
X51862086Y-55680588D01*
X51862090Y-55680593D01*
X51877325Y-55695828D01*
X51915889Y-55762623D01*
X51915889Y-55839751D01*
X51895855Y-55883967D01*
X51864024Y-55931605D01*
X51864018Y-55931615D01*
X51801415Y-56082753D01*
X51769500Y-56243203D01*
X51769500Y-56406796D01*
X51801415Y-56567246D01*
X51864018Y-56718384D01*
X51864023Y-56718394D01*
X51924820Y-56809381D01*
X51954909Y-56854413D01*
X51954911Y-56854415D01*
X51955787Y-56855483D01*
X51956129Y-56856238D01*
X51958976Y-56860499D01*
X51958272Y-56860969D01*
X51987614Y-56925739D01*
X51980048Y-57002495D01*
X51958764Y-57039359D01*
X51958976Y-57039501D01*
X51956820Y-57042727D01*
X51955787Y-57044517D01*
X51954911Y-57045584D01*
X51864023Y-57181605D01*
X51864018Y-57181615D01*
X51801415Y-57332753D01*
X51769500Y-57493203D01*
X51769500Y-57656796D01*
X51801415Y-57817246D01*
X51864018Y-57968384D01*
X51864023Y-57968394D01*
X51924820Y-58059381D01*
X51954909Y-58104413D01*
X51954911Y-58104415D01*
X51955787Y-58105483D01*
X51956129Y-58106238D01*
X51958976Y-58110499D01*
X51958272Y-58110969D01*
X51987614Y-58175739D01*
X51980048Y-58252495D01*
X51958764Y-58289359D01*
X51958976Y-58289501D01*
X51956820Y-58292727D01*
X51955787Y-58294517D01*
X51954911Y-58295584D01*
X51864023Y-58431605D01*
X51864018Y-58431615D01*
X51801415Y-58582753D01*
X51769500Y-58743203D01*
X51769500Y-58906797D01*
X51773384Y-58926322D01*
X51801415Y-59067246D01*
X51864018Y-59218384D01*
X51864023Y-59218394D01*
X51924820Y-59309381D01*
X51954909Y-59354413D01*
X51954911Y-59354415D01*
X51955787Y-59355483D01*
X51956129Y-59356238D01*
X51958976Y-59360499D01*
X51958272Y-59360969D01*
X51987614Y-59425739D01*
X51980048Y-59502495D01*
X51958764Y-59539359D01*
X51958976Y-59539501D01*
X51956820Y-59542727D01*
X51955787Y-59544517D01*
X51954911Y-59545584D01*
X51864023Y-59681605D01*
X51864018Y-59681615D01*
X51801415Y-59832753D01*
X51769500Y-59993203D01*
X51769500Y-60156796D01*
X51801415Y-60317246D01*
X51864018Y-60468384D01*
X51864023Y-60468394D01*
X51936018Y-60576141D01*
X51954909Y-60604413D01*
X52070587Y-60720091D01*
X52104125Y-60742500D01*
X52206605Y-60810976D01*
X52206615Y-60810981D01*
X52250881Y-60829316D01*
X52357752Y-60873584D01*
X52518203Y-60905500D01*
X52518204Y-60905500D01*
X52681796Y-60905500D01*
X52681797Y-60905500D01*
X52842248Y-60873584D01*
X52993389Y-60810979D01*
X52993391Y-60810977D01*
X52993394Y-60810976D01*
X53021038Y-60792504D01*
X53129413Y-60720091D01*
X53245091Y-60604413D01*
X53248898Y-60598716D01*
X53306887Y-60547864D01*
X53372784Y-60532500D01*
X56023781Y-60532500D01*
X56098281Y-60552462D01*
X56129140Y-60576141D01*
X59819090Y-64266091D01*
X59819092Y-64266092D01*
X59819096Y-64266095D01*
X59923412Y-64326322D01*
X59923415Y-64326324D01*
X60039765Y-64357499D01*
X60039769Y-64357499D01*
X60039771Y-64357500D01*
X60039773Y-64357500D01*
X88210231Y-64357500D01*
X88326589Y-64326322D01*
X88430912Y-64266091D01*
X88516091Y-64180912D01*
X93695862Y-59001141D01*
X93762657Y-58962577D01*
X93801221Y-58957500D01*
X96260231Y-58957500D01*
X96376589Y-58926322D01*
X96480912Y-58866091D01*
X96566091Y-58780912D01*
X97545862Y-57801141D01*
X97612657Y-57762577D01*
X97651221Y-57757500D01*
X97960231Y-57757500D01*
X98076589Y-57726322D01*
X98180912Y-57666091D01*
X98266091Y-57580912D01*
X98266091Y-57580911D01*
X98287039Y-57559964D01*
X98287043Y-57559958D01*
X98373825Y-57473177D01*
X98440619Y-57434615D01*
X98454936Y-57432010D01*
X98454920Y-57431928D01*
X98462099Y-57430500D01*
X98583910Y-57406271D01*
X98698654Y-57358742D01*
X98801920Y-57289742D01*
X98889742Y-57201920D01*
X98958742Y-57098654D01*
X99006271Y-56983910D01*
X99030500Y-56862099D01*
X99030500Y-56737901D01*
X99006271Y-56616090D01*
X98958742Y-56501346D01*
X98889742Y-56398080D01*
X98801920Y-56310258D01*
X98698654Y-56241258D01*
X98698651Y-56241257D01*
X98698649Y-56241255D01*
X98614186Y-56206270D01*
X98583910Y-56193729D01*
X98583908Y-56193728D01*
X98583907Y-56193728D01*
X98462099Y-56169500D01*
X98337901Y-56169500D01*
X98330582Y-56169500D01*
X98330582Y-56167046D01*
X98266514Y-56156445D01*
X98206911Y-56107495D01*
X98190397Y-56077767D01*
X98158745Y-56001353D01*
X98158744Y-56001352D01*
X98158742Y-56001346D01*
X98089742Y-55898080D01*
X98001920Y-55810258D01*
X97898654Y-55741258D01*
X97898651Y-55741257D01*
X97898649Y-55741255D01*
X97788977Y-55695828D01*
X97783910Y-55693729D01*
X97783908Y-55693728D01*
X97677431Y-55672549D01*
X97608257Y-55638436D01*
X97565407Y-55574306D01*
X97557500Y-55526412D01*
X97557500Y-55153696D01*
X97577462Y-55079196D01*
X97632000Y-55024658D01*
X97677434Y-55007559D01*
X97683910Y-55006271D01*
X97798654Y-54958742D01*
X97901920Y-54889742D01*
X97989742Y-54801920D01*
X98058742Y-54698654D01*
X98106271Y-54583910D01*
X98130500Y-54462099D01*
X98130500Y-54337901D01*
X98106271Y-54216090D01*
X98058742Y-54101346D01*
X97989742Y-53998080D01*
X97901920Y-53910258D01*
X97798654Y-53841258D01*
X97798651Y-53841257D01*
X97798649Y-53841255D01*
X97719294Y-53808385D01*
X97683910Y-53793729D01*
X97683908Y-53793728D01*
X97683907Y-53793728D01*
X97562099Y-53769500D01*
X97437901Y-53769500D01*
X97316092Y-53793728D01*
X97316090Y-53793729D01*
X97201350Y-53841255D01*
X97201346Y-53841258D01*
X97103262Y-53906796D01*
X97098076Y-53910261D01*
X97055359Y-53952979D01*
X96988564Y-53991543D01*
X96911436Y-53991543D01*
X96844641Y-53952979D01*
X96801923Y-53910261D01*
X96801920Y-53910258D01*
X96698654Y-53841258D01*
X96698651Y-53841257D01*
X96698649Y-53841255D01*
X96619294Y-53808385D01*
X96583910Y-53793729D01*
X96583908Y-53793728D01*
X96583907Y-53793728D01*
X96462099Y-53769500D01*
X96337901Y-53769500D01*
X96216092Y-53793728D01*
X96216090Y-53793729D01*
X96101350Y-53841255D01*
X96101346Y-53841258D01*
X96003262Y-53906796D01*
X95998076Y-53910261D01*
X95910261Y-53998076D01*
X95841258Y-54101346D01*
X95841255Y-54101350D01*
X95793729Y-54216090D01*
X95793728Y-54216092D01*
X95769500Y-54337900D01*
X95769500Y-54462099D01*
X95793728Y-54583907D01*
X95793729Y-54583909D01*
X95841255Y-54698649D01*
X95841257Y-54698651D01*
X95841258Y-54698654D01*
X95910258Y-54801920D01*
X95910261Y-54801923D01*
X95914325Y-54808005D01*
X95912774Y-54809040D01*
X95913782Y-54811263D01*
X95922538Y-54820019D01*
X95929464Y-54845868D01*
X95940508Y-54870238D01*
X95942500Y-54894519D01*
X95942500Y-55048779D01*
X95922538Y-55123279D01*
X95898859Y-55154138D01*
X95454138Y-55598859D01*
X95387343Y-55637423D01*
X95348779Y-55642500D01*
X92339769Y-55642500D01*
X92223411Y-55673678D01*
X92223409Y-55673678D01*
X92223409Y-55673679D01*
X92132229Y-55726322D01*
X92132228Y-55726322D01*
X92119094Y-55733904D01*
X92119090Y-55733907D01*
X87154138Y-60698859D01*
X87087343Y-60737423D01*
X87048779Y-60742500D01*
X61351221Y-60742500D01*
X61276721Y-60722538D01*
X61245862Y-60698859D01*
X59682943Y-59135940D01*
X59584903Y-59037900D01*
X71769500Y-59037900D01*
X71769500Y-59162099D01*
X71793728Y-59283907D01*
X71793729Y-59283909D01*
X71841255Y-59398649D01*
X71841257Y-59398651D01*
X71841258Y-59398654D01*
X71910258Y-59501920D01*
X71998080Y-59589742D01*
X72101346Y-59658742D01*
X72101348Y-59658743D01*
X72101350Y-59658744D01*
X72130662Y-59670885D01*
X72216090Y-59706271D01*
X72337901Y-59730500D01*
X72393621Y-59730500D01*
X72468121Y-59750462D01*
X72477136Y-59756105D01*
X72488918Y-59764079D01*
X72500280Y-59775441D01*
X72532578Y-59794088D01*
X72537198Y-59796755D01*
X72537202Y-59796758D01*
X72593016Y-59828982D01*
X72593020Y-59828984D01*
X72696457Y-59856700D01*
X74413544Y-59856700D01*
X74516981Y-59828984D01*
X74609720Y-59775441D01*
X75111019Y-59274140D01*
X75177814Y-59235577D01*
X75216378Y-59230500D01*
X75272099Y-59230500D01*
X75393910Y-59206271D01*
X75508654Y-59158742D01*
X75611920Y-59089742D01*
X75651321Y-59050341D01*
X75718116Y-59011777D01*
X75756680Y-59006700D01*
X76253544Y-59006700D01*
X76356981Y-58978984D01*
X76449720Y-58925441D01*
X76924820Y-58450341D01*
X76991615Y-58411777D01*
X77030179Y-58406700D01*
X80963544Y-58406700D01*
X81066981Y-58378984D01*
X81159720Y-58325441D01*
X81212021Y-58273140D01*
X81278816Y-58234577D01*
X81317379Y-58229500D01*
X82002621Y-58229500D01*
X82077121Y-58249462D01*
X82107980Y-58273141D01*
X82335859Y-58501020D01*
X82374423Y-58567815D01*
X82379500Y-58606379D01*
X82379500Y-58662099D01*
X82403132Y-58780912D01*
X82403729Y-58783910D01*
X82410953Y-58801350D01*
X82451255Y-58898649D01*
X82451257Y-58898651D01*
X82451258Y-58898654D01*
X82520258Y-59001920D01*
X82608080Y-59089742D01*
X82711346Y-59158742D01*
X82711348Y-59158743D01*
X82711350Y-59158744D01*
X82719450Y-59162099D01*
X82826090Y-59206271D01*
X82947901Y-59230500D01*
X83072099Y-59230500D01*
X83193910Y-59206271D01*
X83308654Y-59158742D01*
X83411920Y-59089742D01*
X83499742Y-59001920D01*
X83568742Y-58898654D01*
X83616271Y-58783910D01*
X83640500Y-58662099D01*
X83640500Y-58537901D01*
X83616271Y-58416090D01*
X83578067Y-58323859D01*
X83568744Y-58301350D01*
X83568743Y-58301348D01*
X83568742Y-58301346D01*
X83499742Y-58198080D01*
X83411920Y-58110258D01*
X83308654Y-58041258D01*
X83308651Y-58041257D01*
X83308649Y-58041255D01*
X83229294Y-58008385D01*
X83193910Y-57993729D01*
X83193908Y-57993728D01*
X83193907Y-57993728D01*
X83072099Y-57969500D01*
X83016379Y-57969500D01*
X82997431Y-57964423D01*
X82977815Y-57964423D01*
X82960827Y-57954615D01*
X82941879Y-57949538D01*
X82911020Y-57925859D01*
X82743641Y-57758480D01*
X82705077Y-57691685D01*
X82700000Y-57653121D01*
X82700000Y-57206500D01*
X82719962Y-57132000D01*
X82774500Y-57077462D01*
X82849000Y-57057500D01*
X84815480Y-57057500D01*
X84889980Y-57077462D01*
X84901948Y-57085744D01*
X84901995Y-57085675D01*
X84908076Y-57089738D01*
X84908080Y-57089742D01*
X85011346Y-57158742D01*
X85011348Y-57158743D01*
X85011350Y-57158744D01*
X85040662Y-57170885D01*
X85126090Y-57206271D01*
X85247901Y-57230500D01*
X85372099Y-57230500D01*
X85493910Y-57206271D01*
X85608654Y-57158742D01*
X85711920Y-57089742D01*
X85711923Y-57089738D01*
X85718005Y-57085675D01*
X85719038Y-57087221D01*
X85780258Y-57059489D01*
X85804520Y-57057500D01*
X87305480Y-57057500D01*
X87379980Y-57077462D01*
X87391948Y-57085744D01*
X87391995Y-57085675D01*
X87398076Y-57089738D01*
X87398080Y-57089742D01*
X87501346Y-57158742D01*
X87501348Y-57158743D01*
X87501350Y-57158744D01*
X87530662Y-57170885D01*
X87616090Y-57206271D01*
X87737901Y-57230500D01*
X87862099Y-57230500D01*
X87983910Y-57206271D01*
X88098654Y-57158742D01*
X88201920Y-57089742D01*
X88289742Y-57001920D01*
X88358742Y-56898654D01*
X88406271Y-56783910D01*
X88430500Y-56662099D01*
X88431928Y-56654920D01*
X88433755Y-56655283D01*
X88457418Y-56592402D01*
X88473173Y-56573829D01*
X91045862Y-54001141D01*
X91112657Y-53962577D01*
X91151221Y-53957500D01*
X94105480Y-53957500D01*
X94179980Y-53977462D01*
X94191948Y-53985744D01*
X94191995Y-53985675D01*
X94198076Y-53989738D01*
X94198080Y-53989742D01*
X94301346Y-54058742D01*
X94301348Y-54058743D01*
X94301350Y-54058744D01*
X94321876Y-54067246D01*
X94416090Y-54106271D01*
X94537901Y-54130500D01*
X94662099Y-54130500D01*
X94783910Y-54106271D01*
X94898654Y-54058742D01*
X95001920Y-53989742D01*
X95089742Y-53901920D01*
X95158742Y-53798654D01*
X95206271Y-53683910D01*
X95230500Y-53562099D01*
X95230500Y-53437901D01*
X95206271Y-53316090D01*
X95158742Y-53201346D01*
X95089742Y-53098080D01*
X95001920Y-53010258D01*
X94898654Y-52941258D01*
X94898651Y-52941257D01*
X94898649Y-52941255D01*
X94819294Y-52908385D01*
X94783910Y-52893729D01*
X94783908Y-52893728D01*
X94783907Y-52893728D01*
X94662099Y-52869500D01*
X94537901Y-52869500D01*
X94416092Y-52893728D01*
X94416090Y-52893729D01*
X94301350Y-52941255D01*
X94301346Y-52941258D01*
X94198080Y-53010258D01*
X94198076Y-53010261D01*
X94191995Y-53014325D01*
X94190961Y-53012778D01*
X94129742Y-53040511D01*
X94105480Y-53042500D01*
X90839769Y-53042500D01*
X90723411Y-53073678D01*
X90723409Y-53073678D01*
X90723409Y-53073679D01*
X90619353Y-53133756D01*
X90619090Y-53133907D01*
X87826176Y-55926820D01*
X87759381Y-55965384D01*
X87745063Y-55967990D01*
X87745080Y-55968072D01*
X87616092Y-55993728D01*
X87616090Y-55993729D01*
X87501350Y-56041255D01*
X87501346Y-56041258D01*
X87398080Y-56110258D01*
X87398076Y-56110261D01*
X87391995Y-56114325D01*
X87390961Y-56112778D01*
X87329742Y-56140511D01*
X87305480Y-56142500D01*
X85804520Y-56142500D01*
X85730020Y-56122538D01*
X85718051Y-56114255D01*
X85718005Y-56114325D01*
X85711923Y-56110261D01*
X85711920Y-56110258D01*
X85608654Y-56041258D01*
X85608651Y-56041257D01*
X85608649Y-56041255D01*
X85529294Y-56008385D01*
X85493910Y-55993729D01*
X85493908Y-55993728D01*
X85493907Y-55993728D01*
X85372099Y-55969500D01*
X85247901Y-55969500D01*
X85126092Y-55993728D01*
X85126090Y-55993729D01*
X85011350Y-56041255D01*
X85011346Y-56041258D01*
X84908080Y-56110258D01*
X84908076Y-56110261D01*
X84901995Y-56114325D01*
X84900961Y-56112778D01*
X84839742Y-56140511D01*
X84815480Y-56142500D01*
X78304520Y-56142500D01*
X78230020Y-56122538D01*
X78218051Y-56114255D01*
X78218005Y-56114325D01*
X78211923Y-56110261D01*
X78211920Y-56110258D01*
X78108654Y-56041258D01*
X78108651Y-56041257D01*
X78108649Y-56041255D01*
X78029294Y-56008385D01*
X77993910Y-55993729D01*
X77993908Y-55993728D01*
X77993907Y-55993728D01*
X77872099Y-55969500D01*
X77747901Y-55969500D01*
X77626092Y-55993728D01*
X77626090Y-55993729D01*
X77511350Y-56041255D01*
X77511340Y-56041261D01*
X77442217Y-56087448D01*
X77369182Y-56112240D01*
X77293536Y-56097193D01*
X77254081Y-56068920D01*
X77159720Y-55974559D01*
X77159717Y-55974557D01*
X77159716Y-55974556D01*
X77066984Y-55921017D01*
X77066981Y-55921016D01*
X76963544Y-55893300D01*
X74040179Y-55893300D01*
X74021231Y-55888223D01*
X74001615Y-55888223D01*
X73984627Y-55878415D01*
X73965679Y-55873338D01*
X73934820Y-55849659D01*
X73774141Y-55688980D01*
X73735577Y-55622185D01*
X73730500Y-55583621D01*
X73730500Y-55537900D01*
X73706271Y-55416092D01*
X73706271Y-55416090D01*
X73658742Y-55301346D01*
X73589742Y-55198080D01*
X73501920Y-55110258D01*
X73398654Y-55041258D01*
X73398651Y-55041257D01*
X73398649Y-55041255D01*
X73314186Y-55006270D01*
X73283910Y-54993729D01*
X73283908Y-54993728D01*
X73283907Y-54993728D01*
X73162099Y-54969500D01*
X73037901Y-54969500D01*
X72916092Y-54993728D01*
X72916090Y-54993729D01*
X72801350Y-55041255D01*
X72801346Y-55041258D01*
X72698076Y-55110261D01*
X72610261Y-55198076D01*
X72541258Y-55301346D01*
X72541255Y-55301350D01*
X72493729Y-55416090D01*
X72493728Y-55416092D01*
X72469500Y-55537900D01*
X72469500Y-55662099D01*
X72485244Y-55741255D01*
X72493729Y-55783910D01*
X72498566Y-55795587D01*
X72541255Y-55898649D01*
X72541257Y-55898651D01*
X72541258Y-55898654D01*
X72610258Y-56001920D01*
X72698080Y-56089742D01*
X72801346Y-56158742D01*
X72801348Y-56158743D01*
X72801350Y-56158744D01*
X72821393Y-56167046D01*
X72916090Y-56206271D01*
X73037901Y-56230500D01*
X73103621Y-56230500D01*
X73122569Y-56235577D01*
X73142185Y-56235577D01*
X73159172Y-56245384D01*
X73178121Y-56250462D01*
X73208980Y-56274141D01*
X73364343Y-56429504D01*
X73402907Y-56496299D01*
X73402907Y-56573427D01*
X73364343Y-56640222D01*
X73297548Y-56678786D01*
X73229917Y-56681000D01*
X73172100Y-56669500D01*
X73172099Y-56669500D01*
X73047901Y-56669500D01*
X72926092Y-56693728D01*
X72926090Y-56693729D01*
X72811350Y-56741255D01*
X72811346Y-56741258D01*
X72708076Y-56810261D01*
X72620261Y-56898076D01*
X72620258Y-56898079D01*
X72620258Y-56898080D01*
X72601777Y-56925739D01*
X72551258Y-57001346D01*
X72551255Y-57001350D01*
X72503729Y-57116090D01*
X72503728Y-57116092D01*
X72485791Y-57206271D01*
X72479500Y-57237901D01*
X72479500Y-57362099D01*
X72503729Y-57483910D01*
X72514206Y-57509203D01*
X72551255Y-57598649D01*
X72551257Y-57598651D01*
X72551258Y-57598654D01*
X72620258Y-57701920D01*
X72708080Y-57789742D01*
X72811346Y-57858742D01*
X72811348Y-57858743D01*
X72811350Y-57858744D01*
X72840662Y-57870885D01*
X72926090Y-57906271D01*
X73047901Y-57930500D01*
X73172099Y-57930500D01*
X73293910Y-57906271D01*
X73408654Y-57858742D01*
X73511920Y-57789742D01*
X73551321Y-57750341D01*
X73618116Y-57711777D01*
X73656680Y-57706700D01*
X74653544Y-57706700D01*
X74756981Y-57678984D01*
X74849720Y-57625441D01*
X75124820Y-57350341D01*
X75191615Y-57311777D01*
X75230179Y-57306700D01*
X76379821Y-57306700D01*
X76398769Y-57311777D01*
X76418385Y-57311777D01*
X76435372Y-57321584D01*
X76454321Y-57326662D01*
X76485180Y-57350341D01*
X76577247Y-57442408D01*
X76615811Y-57509203D01*
X76615811Y-57586331D01*
X76577247Y-57653126D01*
X76557677Y-57668144D01*
X76558034Y-57668609D01*
X76550282Y-57674557D01*
X76075180Y-58149659D01*
X76058192Y-58159466D01*
X76044321Y-58173338D01*
X76025372Y-58178415D01*
X76008385Y-58188223D01*
X75969821Y-58193300D01*
X75756680Y-58193300D01*
X75682180Y-58173338D01*
X75651321Y-58149659D01*
X75611923Y-58110261D01*
X75611920Y-58110258D01*
X75508654Y-58041258D01*
X75508651Y-58041257D01*
X75508649Y-58041255D01*
X75429294Y-58008385D01*
X75393910Y-57993729D01*
X75393908Y-57993728D01*
X75393907Y-57993728D01*
X75272099Y-57969500D01*
X75147901Y-57969500D01*
X75026092Y-57993728D01*
X75026090Y-57993729D01*
X74911350Y-58041255D01*
X74911346Y-58041258D01*
X74814097Y-58106238D01*
X74808076Y-58110261D01*
X74720261Y-58198076D01*
X74720258Y-58198079D01*
X74720258Y-58198080D01*
X74659267Y-58289359D01*
X74651258Y-58301346D01*
X74651255Y-58301350D01*
X74603729Y-58416090D01*
X74603728Y-58416092D01*
X74579500Y-58537900D01*
X74579500Y-58593621D01*
X74559538Y-58668121D01*
X74535859Y-58698980D01*
X74235180Y-58999659D01*
X74168385Y-59038223D01*
X74129821Y-59043300D01*
X73153856Y-59043300D01*
X73079356Y-59023338D01*
X73024818Y-58968800D01*
X73007720Y-58923372D01*
X73006272Y-58916096D01*
X73006271Y-58916092D01*
X73006271Y-58916090D01*
X72958742Y-58801346D01*
X72889742Y-58698080D01*
X72801920Y-58610258D01*
X72698654Y-58541258D01*
X72698651Y-58541257D01*
X72698649Y-58541255D01*
X72619294Y-58508385D01*
X72583910Y-58493729D01*
X72583908Y-58493728D01*
X72583907Y-58493728D01*
X72462099Y-58469500D01*
X72337901Y-58469500D01*
X72216092Y-58493728D01*
X72216090Y-58493729D01*
X72101350Y-58541255D01*
X72101346Y-58541258D01*
X72003886Y-58606379D01*
X71998076Y-58610261D01*
X71910261Y-58698076D01*
X71841258Y-58801346D01*
X71841255Y-58801350D01*
X71793729Y-58916090D01*
X71793728Y-58916092D01*
X71769500Y-59037900D01*
X59584903Y-59037900D01*
X58106955Y-57559952D01*
X56505912Y-55958909D01*
X56505909Y-55958907D01*
X56505908Y-55958906D01*
X56440279Y-55921016D01*
X56401589Y-55898678D01*
X56285231Y-55867500D01*
X53491783Y-55867500D01*
X53417283Y-55847538D01*
X53362745Y-55793000D01*
X53342783Y-55718500D01*
X53362745Y-55644000D01*
X53367894Y-55635720D01*
X53441876Y-55524998D01*
X53441881Y-55524989D01*
X53513490Y-55352108D01*
X53513492Y-55352100D01*
X53518884Y-55325000D01*
X52766988Y-55325000D01*
X52784205Y-55315060D01*
X52840060Y-55259205D01*
X52879556Y-55190796D01*
X52900000Y-55114496D01*
X52900000Y-55035504D01*
X52879556Y-54959204D01*
X52840060Y-54890795D01*
X52784205Y-54834940D01*
X52766988Y-54825000D01*
X53518884Y-54825000D01*
X53518884Y-54824999D01*
X53513492Y-54797899D01*
X53513490Y-54797891D01*
X53441881Y-54625010D01*
X53441876Y-54625001D01*
X53337913Y-54469411D01*
X53337909Y-54469406D01*
X53322674Y-54454171D01*
X53284110Y-54387376D01*
X53284110Y-54310248D01*
X53304146Y-54266030D01*
X53335979Y-54218389D01*
X53398584Y-54067248D01*
X53430500Y-53906797D01*
X53430500Y-53743203D01*
X53398584Y-53582752D01*
X53364344Y-53500091D01*
X53335981Y-53431615D01*
X53335976Y-53431605D01*
X53245093Y-53295590D01*
X53244220Y-53294527D01*
X53243878Y-53293772D01*
X53241024Y-53289501D01*
X53241729Y-53289029D01*
X53212388Y-53224274D01*
X53219946Y-53147517D01*
X53241236Y-53110640D01*
X53241024Y-53110499D01*
X53243188Y-53107259D01*
X53244220Y-53105473D01*
X53245083Y-53104420D01*
X53245091Y-53104413D01*
X53335979Y-52968389D01*
X53398584Y-52817248D01*
X53430500Y-52656797D01*
X53430500Y-52493203D01*
X53398584Y-52332752D01*
X53337409Y-52185065D01*
X53327343Y-52108598D01*
X53356858Y-52037341D01*
X53369705Y-52022691D01*
X53374906Y-52017491D01*
X53424163Y-51911859D01*
X53430500Y-51863724D01*
X53430500Y-50786276D01*
X53424163Y-50738141D01*
X53374906Y-50632509D01*
X53292491Y-50550094D01*
X53292490Y-50550093D01*
X53186861Y-50500837D01*
X53138726Y-50494500D01*
X53138724Y-50494500D01*
X52061276Y-50494500D01*
X52061273Y-50494500D01*
X52013138Y-50500837D01*
X51907509Y-50550093D01*
X51825093Y-50632509D01*
X51775837Y-50738138D01*
X51769500Y-50786273D01*
X51769500Y-51863726D01*
X51775837Y-51911861D01*
X51825093Y-52017490D01*
X51830290Y-52022687D01*
X51868854Y-52089482D01*
X51868854Y-52166610D01*
X51862589Y-52185065D01*
X51801416Y-52332750D01*
X51801415Y-52332752D01*
X51769500Y-52493203D01*
X51769500Y-52656796D01*
X51801415Y-52817246D01*
X51864018Y-52968384D01*
X51864023Y-52968394D01*
X51894714Y-53014325D01*
X51954909Y-53104413D01*
X51954911Y-53104415D01*
X51955787Y-53105483D01*
X51956129Y-53106238D01*
X51958976Y-53110499D01*
X51958272Y-53110969D01*
X51987614Y-53175739D01*
X51980048Y-53252495D01*
X51958764Y-53289359D01*
X51958976Y-53289501D01*
X51956820Y-53292727D01*
X51955787Y-53294517D01*
X51954911Y-53295584D01*
X51864023Y-53431605D01*
X51864018Y-53431615D01*
X51801415Y-53582753D01*
X51781295Y-53683907D01*
X51769500Y-53743203D01*
X51769500Y-53906797D01*
X51770189Y-53910261D01*
X51801415Y-54067246D01*
X51864018Y-54218384D01*
X51864020Y-54218386D01*
X51864021Y-54218389D01*
X51895855Y-54266033D01*
X51920647Y-54339066D01*
X51905600Y-54414712D01*
X51877327Y-54454168D01*
X51862096Y-54469399D01*
X51862086Y-54469411D01*
X51758123Y-54625001D01*
X51758118Y-54625010D01*
X51686509Y-54797891D01*
X51686507Y-54797899D01*
X51681115Y-54824999D01*
X50100500Y-54824999D01*
X50100500Y-44968876D01*
X50599500Y-44968876D01*
X50599500Y-45231123D01*
X50633728Y-45491107D01*
X50633728Y-45491110D01*
X50701600Y-45744415D01*
X50701600Y-45744416D01*
X50801959Y-45986701D01*
X50933078Y-46213806D01*
X50933078Y-46213807D01*
X51092715Y-46421848D01*
X51278151Y-46607284D01*
X51486193Y-46766921D01*
X51486197Y-46766924D01*
X51713303Y-46898043D01*
X51917809Y-46982752D01*
X51955583Y-46998399D01*
X52043332Y-47021910D01*
X52208884Y-47066270D01*
X52208890Y-47066270D01*
X52208891Y-47066271D01*
X52245834Y-47071134D01*
X52468877Y-47100499D01*
X52468878Y-47100500D01*
X52468880Y-47100500D01*
X52731122Y-47100500D01*
X52731122Y-47100499D01*
X52991108Y-47066271D01*
X52991110Y-47066271D01*
X52991111Y-47066270D01*
X52991116Y-47066270D01*
X53244415Y-46998399D01*
X53244416Y-46998399D01*
X53244417Y-46998398D01*
X53244419Y-46998398D01*
X53486697Y-46898043D01*
X53713803Y-46766924D01*
X53921848Y-46607284D01*
X53921849Y-46607284D01*
X54107284Y-46421849D01*
X54107284Y-46421848D01*
X54266921Y-46213807D01*
X54266921Y-46213806D01*
X54266924Y-46213803D01*
X54398043Y-45986697D01*
X54498398Y-45744419D01*
X54566270Y-45491116D01*
X54600500Y-45231120D01*
X54600500Y-44968880D01*
X54600499Y-44968876D01*
X106599500Y-44968876D01*
X106599500Y-45231123D01*
X106633728Y-45491107D01*
X106633728Y-45491110D01*
X106701600Y-45744415D01*
X106701600Y-45744416D01*
X106801959Y-45986701D01*
X106933078Y-46213806D01*
X106933078Y-46213807D01*
X107092715Y-46421848D01*
X107278151Y-46607284D01*
X107486193Y-46766921D01*
X107486197Y-46766924D01*
X107713303Y-46898043D01*
X107917809Y-46982752D01*
X107955583Y-46998399D01*
X108043332Y-47021910D01*
X108208884Y-47066270D01*
X108208890Y-47066270D01*
X108208891Y-47066271D01*
X108245834Y-47071134D01*
X108468877Y-47100499D01*
X108468878Y-47100500D01*
X108468880Y-47100500D01*
X108731122Y-47100500D01*
X108731122Y-47100499D01*
X108991108Y-47066271D01*
X108991110Y-47066271D01*
X108991111Y-47066270D01*
X108991116Y-47066270D01*
X109244415Y-46998399D01*
X109244416Y-46998399D01*
X109244417Y-46998398D01*
X109244419Y-46998398D01*
X109486697Y-46898043D01*
X109713803Y-46766924D01*
X109921848Y-46607284D01*
X109921849Y-46607284D01*
X110107284Y-46421849D01*
X110107284Y-46421848D01*
X110266921Y-46213807D01*
X110266921Y-46213806D01*
X110266924Y-46213803D01*
X110398043Y-45986697D01*
X110498398Y-45744419D01*
X110566270Y-45491116D01*
X110600500Y-45231120D01*
X110600500Y-44968880D01*
X110566270Y-44708884D01*
X110519439Y-44534108D01*
X110498399Y-44455584D01*
X110498399Y-44455583D01*
X110446146Y-44329434D01*
X110398043Y-44213303D01*
X110266924Y-43986197D01*
X110266921Y-43986193D01*
X110266921Y-43986192D01*
X110107284Y-43778151D01*
X109921848Y-43592715D01*
X109713806Y-43433078D01*
X109486701Y-43301959D01*
X109486699Y-43301958D01*
X109486697Y-43301957D01*
X109411154Y-43270666D01*
X109244416Y-43201600D01*
X109018255Y-43141002D01*
X108991116Y-43133730D01*
X108991114Y-43133729D01*
X108991108Y-43133728D01*
X108731123Y-43099500D01*
X108731120Y-43099500D01*
X108468880Y-43099500D01*
X108468876Y-43099500D01*
X108208892Y-43133728D01*
X108208889Y-43133728D01*
X107955584Y-43201600D01*
X107955583Y-43201600D01*
X107713298Y-43301959D01*
X107486193Y-43433078D01*
X107486192Y-43433078D01*
X107278151Y-43592715D01*
X107278151Y-43592716D01*
X107278149Y-43592718D01*
X107092718Y-43778149D01*
X107092716Y-43778151D01*
X107092715Y-43778151D01*
X106933078Y-43986192D01*
X106933078Y-43986193D01*
X106801959Y-44213298D01*
X106701600Y-44455583D01*
X106701600Y-44455584D01*
X106633728Y-44708889D01*
X106633728Y-44708892D01*
X106599500Y-44968876D01*
X54600499Y-44968876D01*
X54566270Y-44708884D01*
X54519439Y-44534108D01*
X54498399Y-44455584D01*
X54498399Y-44455583D01*
X54446146Y-44329434D01*
X54398043Y-44213303D01*
X54266924Y-43986197D01*
X54266921Y-43986193D01*
X54266921Y-43986192D01*
X54107284Y-43778151D01*
X53921848Y-43592715D01*
X53713806Y-43433078D01*
X53486701Y-43301959D01*
X53486699Y-43301958D01*
X53486697Y-43301957D01*
X53411154Y-43270666D01*
X53244416Y-43201600D01*
X53018255Y-43141002D01*
X52991116Y-43133730D01*
X52991114Y-43133729D01*
X52991108Y-43133728D01*
X52731123Y-43099500D01*
X52731120Y-43099500D01*
X52468880Y-43099500D01*
X52468876Y-43099500D01*
X52208892Y-43133728D01*
X52208889Y-43133728D01*
X51955584Y-43201600D01*
X51955583Y-43201600D01*
X51713298Y-43301959D01*
X51486193Y-43433078D01*
X51486192Y-43433078D01*
X51278151Y-43592715D01*
X51278151Y-43592716D01*
X51278149Y-43592718D01*
X51092718Y-43778149D01*
X51092716Y-43778151D01*
X51092715Y-43778151D01*
X50933078Y-43986192D01*
X50933078Y-43986193D01*
X50801959Y-44213298D01*
X50701600Y-44455583D01*
X50701600Y-44455584D01*
X50633728Y-44708889D01*
X50633728Y-44708892D01*
X50599500Y-44968876D01*
X50100500Y-44968876D01*
X50100500Y-44604878D01*
X50100819Y-44595133D01*
X50109288Y-44465924D01*
X50116967Y-44348751D01*
X50119511Y-44329434D01*
X50166727Y-44092061D01*
X50171769Y-44073247D01*
X50249566Y-43844067D01*
X50257024Y-43826061D01*
X50280652Y-43778149D01*
X50364065Y-43609002D01*
X50373802Y-43592136D01*
X50508268Y-43390895D01*
X50520120Y-43375449D01*
X50679717Y-43193463D01*
X50693463Y-43179717D01*
X50875449Y-43020120D01*
X50890895Y-43008268D01*
X51092136Y-42873802D01*
X51109002Y-42864065D01*
X51326066Y-42757021D01*
X51344067Y-42749566D01*
X51573247Y-42671769D01*
X51592061Y-42666727D01*
X51829439Y-42619510D01*
X51848751Y-42616967D01*
X52095133Y-42600818D01*
X52104878Y-42600500D01*
X52165892Y-42600500D01*
X54534108Y-42600500D01*
X109034108Y-42600500D01*
X109095122Y-42600500D01*
X109104866Y-42600818D01*
G37*
%TD.AperFunction*%
%TD*%
M02*
