%TF.GenerationSoftware,KiCad,Pcbnew,9.0.1+1*%
%TF.CreationDate,2025-05-28T20:00:13+08:00*%
%TF.ProjectId,audio_lab,61756469-6f5f-46c6-9162-2e6b69636164,rev?*%
%TF.SameCoordinates,Original*%
%TF.FileFunction,Paste,Top*%
%TF.FilePolarity,Positive*%
%FSLAX46Y46*%
G04 Gerber Fmt 4.6, Leading zero omitted, Abs format (unit mm)*
G04 Created by KiCad (PCBNEW 9.0.1+1) date 2025-05-28 20:00:13*
%MOMM*%
%LPD*%
G01*
G04 APERTURE LIST*
G04 Aperture macros list*
%AMRoundRect*
0 Rectangle with rounded corners*
0 $1 Rounding radius*
0 $2 $3 $4 $5 $6 $7 $8 $9 X,Y pos of 4 corners*
0 Add a 4 corners polygon primitive as box body*
4,1,4,$2,$3,$4,$5,$6,$7,$8,$9,$2,$3,0*
0 Add four circle primitives for the rounded corners*
1,1,$1+$1,$2,$3*
1,1,$1+$1,$4,$5*
1,1,$1+$1,$6,$7*
1,1,$1+$1,$8,$9*
0 Add four rect primitives between the rounded corners*
20,1,$1+$1,$2,$3,$4,$5,0*
20,1,$1+$1,$4,$5,$6,$7,0*
20,1,$1+$1,$6,$7,$8,$9,0*
20,1,$1+$1,$8,$9,$2,$3,0*%
%AMFreePoly0*
4,1,21,0.330354,0.790354,0.330500,0.790000,0.330500,0.270000,0.330354,0.269646,0.250500,0.189792,0.250500,-0.189792,0.330354,-0.269646,0.330500,-0.270000,0.330500,-0.790000,0.330354,-0.790354,0.330000,-0.790500,0.250000,-0.790500,0.249646,-0.790354,0.249500,-0.790000,-0.250000,-0.790000,-0.250000,0.790000,0.249500,0.790000,0.249646,0.790354,0.250000,0.790500,0.330000,0.790500,
0.330354,0.790354,0.330354,0.790354,$1*%
%AMFreePoly1*
4,1,21,-0.249646,0.790354,-0.249500,0.790000,0.250000,0.790000,0.250000,-0.790000,-0.249500,-0.790000,-0.249646,-0.790354,-0.250000,-0.790500,-0.330000,-0.790500,-0.330354,-0.790354,-0.330500,-0.790000,-0.330500,-0.270000,-0.330354,-0.269646,-0.250500,-0.189792,-0.250500,0.189792,-0.330354,0.269646,-0.330500,0.270000,-0.330500,0.790000,-0.330354,0.790354,-0.330000,0.790500,-0.250000,0.790500,
-0.249646,0.790354,-0.249646,0.790354,$1*%
G04 Aperture macros list end*
%ADD10C,0.100000*%
%ADD11RoundRect,0.135000X0.135000X0.185000X-0.135000X0.185000X-0.135000X-0.185000X0.135000X-0.185000X0*%
%ADD12RoundRect,0.140000X0.140000X0.170000X-0.140000X0.170000X-0.140000X-0.170000X0.140000X-0.170000X0*%
%ADD13RoundRect,0.135000X-0.185000X0.135000X-0.185000X-0.135000X0.185000X-0.135000X0.185000X0.135000X0*%
%ADD14RoundRect,0.140000X0.170000X-0.140000X0.170000X0.140000X-0.170000X0.140000X-0.170000X-0.140000X0*%
%ADD15RoundRect,0.135000X-0.135000X-0.185000X0.135000X-0.185000X0.135000X0.185000X-0.135000X0.185000X0*%
%ADD16RoundRect,0.225000X-0.250000X0.225000X-0.250000X-0.225000X0.250000X-0.225000X0.250000X0.225000X0*%
%ADD17R,0.600000X0.550000*%
%ADD18FreePoly0,0.000000*%
%ADD19R,0.500000X0.500000*%
%ADD20FreePoly1,0.000000*%
%ADD21RoundRect,0.140000X-0.140000X-0.170000X0.140000X-0.170000X0.140000X0.170000X-0.140000X0.170000X0*%
%ADD22R,1.600000X0.300000*%
%ADD23R,3.100000X2.300000*%
G04 APERTURE END LIST*
%TO.C,U3*%
D10*
X73925000Y-56975000D02*
X74075000Y-56975000D01*
X74075000Y-56825000D01*
X73925000Y-56825000D01*
X73925000Y-56975000D01*
G36*
X73925000Y-56975000D02*
G01*
X74075000Y-56975000D01*
X74075000Y-56825000D01*
X73925000Y-56825000D01*
X73925000Y-56975000D01*
G37*
X73925000Y-57375000D02*
X74075000Y-57375000D01*
X74075000Y-57225000D01*
X73925000Y-57225000D01*
X73925000Y-57375000D01*
G36*
X73925000Y-57375000D02*
G01*
X74075000Y-57375000D01*
X74075000Y-57225000D01*
X73925000Y-57225000D01*
X73925000Y-57375000D01*
G37*
X74325000Y-56975000D02*
X74475000Y-56975000D01*
X74475000Y-56825000D01*
X74325000Y-56825000D01*
X74325000Y-56975000D01*
G36*
X74325000Y-56975000D02*
G01*
X74475000Y-56975000D01*
X74475000Y-56825000D01*
X74325000Y-56825000D01*
X74325000Y-56975000D01*
G37*
X74325000Y-57375000D02*
X74475000Y-57375000D01*
X74475000Y-57225000D01*
X74325000Y-57225000D01*
X74325000Y-57375000D01*
G36*
X74325000Y-57375000D02*
G01*
X74475000Y-57375000D01*
X74475000Y-57225000D01*
X74325000Y-57225000D01*
X74325000Y-57375000D01*
G37*
X74725000Y-56975000D02*
X74875000Y-56975000D01*
X74875000Y-56825000D01*
X74725000Y-56825000D01*
X74725000Y-56975000D01*
G36*
X74725000Y-56975000D02*
G01*
X74875000Y-56975000D01*
X74875000Y-56825000D01*
X74725000Y-56825000D01*
X74725000Y-56975000D01*
G37*
X74725000Y-57375000D02*
X74875000Y-57375000D01*
X74875000Y-57225000D01*
X74725000Y-57225000D01*
X74725000Y-57375000D01*
G36*
X74725000Y-57375000D02*
G01*
X74875000Y-57375000D01*
X74875000Y-57225000D01*
X74725000Y-57225000D01*
X74725000Y-57375000D01*
G37*
%TO.C,U4*%
X81425000Y-56975000D02*
X81575000Y-56975000D01*
X81575000Y-56825000D01*
X81425000Y-56825000D01*
X81425000Y-56975000D01*
G36*
X81425000Y-56975000D02*
G01*
X81575000Y-56975000D01*
X81575000Y-56825000D01*
X81425000Y-56825000D01*
X81425000Y-56975000D01*
G37*
X81425000Y-57375000D02*
X81575000Y-57375000D01*
X81575000Y-57225000D01*
X81425000Y-57225000D01*
X81425000Y-57375000D01*
G36*
X81425000Y-57375000D02*
G01*
X81575000Y-57375000D01*
X81575000Y-57225000D01*
X81425000Y-57225000D01*
X81425000Y-57375000D01*
G37*
X81825000Y-56975000D02*
X81975000Y-56975000D01*
X81975000Y-56825000D01*
X81825000Y-56825000D01*
X81825000Y-56975000D01*
G36*
X81825000Y-56975000D02*
G01*
X81975000Y-56975000D01*
X81975000Y-56825000D01*
X81825000Y-56825000D01*
X81825000Y-56975000D01*
G37*
X81825000Y-57375000D02*
X81975000Y-57375000D01*
X81975000Y-57225000D01*
X81825000Y-57225000D01*
X81825000Y-57375000D01*
G36*
X81825000Y-57375000D02*
G01*
X81975000Y-57375000D01*
X81975000Y-57225000D01*
X81825000Y-57225000D01*
X81825000Y-57375000D01*
G37*
X82225000Y-56975000D02*
X82375000Y-56975000D01*
X82375000Y-56825000D01*
X82225000Y-56825000D01*
X82225000Y-56975000D01*
G36*
X82225000Y-56975000D02*
G01*
X82375000Y-56975000D01*
X82375000Y-56825000D01*
X82225000Y-56825000D01*
X82225000Y-56975000D01*
G37*
X82225000Y-57375000D02*
X82375000Y-57375000D01*
X82375000Y-57225000D01*
X82225000Y-57225000D01*
X82225000Y-57375000D01*
G36*
X82225000Y-57375000D02*
G01*
X82375000Y-57375000D01*
X82375000Y-57225000D01*
X82225000Y-57225000D01*
X82225000Y-57375000D01*
G37*
%TD*%
D11*
%TO.C,R1*%
X96410000Y-53500000D03*
X95390000Y-53500000D03*
%TD*%
D12*
%TO.C,C4*%
X96370000Y-59500000D03*
X95410000Y-59500000D03*
%TD*%
D13*
%TO.C,R6*%
X74400000Y-50000000D03*
X74400000Y-51020000D03*
%TD*%
D12*
%TO.C,C3*%
X96370000Y-61000000D03*
X95410000Y-61000000D03*
%TD*%
D14*
%TO.C,C9*%
X84410000Y-57860000D03*
X84410000Y-56900000D03*
%TD*%
D15*
%TO.C,RV2*%
X81900000Y-52020000D03*
X82920000Y-52020000D03*
%TD*%
D16*
%TO.C,C10*%
X74400000Y-53325000D03*
X74400000Y-54875000D03*
%TD*%
D12*
%TO.C,C2*%
X96370000Y-62500000D03*
X95410000Y-62500000D03*
%TD*%
D17*
%TO.C,J4*%
X81900000Y-47375000D03*
D18*
X80900000Y-46400000D03*
D19*
X81900000Y-45400000D03*
D20*
X82900000Y-46400000D03*
%TD*%
D12*
%TO.C,C6*%
X96370000Y-58000000D03*
X95410000Y-58000000D03*
%TD*%
D14*
%TO.C,C8*%
X76910000Y-57860000D03*
X76910000Y-56900000D03*
%TD*%
D21*
%TO.C,C7*%
X95410000Y-56500000D03*
X96370000Y-56500000D03*
%TD*%
D16*
%TO.C,C11*%
X81900000Y-53325000D03*
X81900000Y-54875000D03*
%TD*%
D22*
%TO.C,J1*%
X100000000Y-61450000D03*
X100000000Y-60950000D03*
X100000000Y-60450000D03*
X100000000Y-59950000D03*
X100000000Y-59450000D03*
X100000000Y-58950000D03*
X100000000Y-58450000D03*
X100000000Y-57950000D03*
X100000000Y-57450000D03*
X100000000Y-56950000D03*
X100000000Y-56450000D03*
X100000000Y-55950000D03*
X100000000Y-55450000D03*
X100000000Y-54950000D03*
X100000000Y-54450000D03*
X100000000Y-53950000D03*
X100000000Y-53450000D03*
X100000000Y-52950000D03*
X100000000Y-52450000D03*
X100000000Y-51950000D03*
X100000000Y-51450000D03*
X100000000Y-50950000D03*
X100000000Y-50450000D03*
X100000000Y-49950000D03*
D23*
X101950000Y-63120000D03*
X101950000Y-48280000D03*
%TD*%
D15*
%TO.C,RV1*%
X74400000Y-52020000D03*
X75420000Y-52020000D03*
%TD*%
D12*
%TO.C,C1*%
X96370000Y-64000000D03*
X95410000Y-64000000D03*
%TD*%
%TO.C,C5*%
X96370000Y-51950000D03*
X95410000Y-51950000D03*
%TD*%
D17*
%TO.C,J3*%
X74400000Y-47375000D03*
D18*
X73400000Y-46400000D03*
D19*
X74400000Y-45400000D03*
D20*
X75400000Y-46400000D03*
%TD*%
D13*
%TO.C,R7*%
X81900000Y-50020000D03*
X81900000Y-51040000D03*
%TD*%
M02*
