%TF.GenerationSoftware,KiCad,Pcbnew,9.0.1+1*%
%TF.CreationDate,2025-05-28T20:00:14+08:00*%
%TF.ProjectId,audio_lab,61756469-6f5f-46c6-9162-2e6b69636164,rev?*%
%TF.SameCoordinates,Original*%
%TF.FileFunction,Legend,Top*%
%TF.FilePolarity,Positive*%
%FSLAX46Y46*%
G04 Gerber Fmt 4.6, Leading zero omitted, Abs format (unit mm)*
G04 Created by KiCad (PCBNEW 9.0.1+1) date 2025-05-28 20:00:14*
%MOMM*%
%LPD*%
G01*
G04 APERTURE LIST*
%ADD10C,0.120000*%
G04 APERTURE END LIST*
D10*
%TO.C,R1*%
X96053641Y-53120000D02*
X95746359Y-53120000D01*
X96053641Y-53880000D02*
X95746359Y-53880000D01*
%TO.C,C4*%
X95997836Y-59140000D02*
X95782164Y-59140000D01*
X95997836Y-59860000D02*
X95782164Y-59860000D01*
%TO.C,R6*%
X74020000Y-50356359D02*
X74020000Y-50663641D01*
X74780000Y-50356359D02*
X74780000Y-50663641D01*
%TO.C,C3*%
X95997836Y-60640000D02*
X95782164Y-60640000D01*
X95997836Y-61360000D02*
X95782164Y-61360000D01*
%TO.C,C9*%
X84050000Y-57487836D02*
X84050000Y-57272164D01*
X84770000Y-57487836D02*
X84770000Y-57272164D01*
%TO.C,RV2*%
X82256359Y-51640000D02*
X82563641Y-51640000D01*
X82256359Y-52400000D02*
X82563641Y-52400000D01*
%TO.C,C10*%
X73890000Y-53959420D02*
X73890000Y-54240580D01*
X74910000Y-53959420D02*
X74910000Y-54240580D01*
%TO.C,U3*%
X73650000Y-56550000D02*
X73650000Y-57330000D01*
X73650000Y-56550000D02*
X75150000Y-56550000D01*
X75150000Y-56550000D02*
X75150000Y-57650000D01*
X75150000Y-57650000D02*
X73970000Y-57650000D01*
X73650000Y-58150000D02*
X73150000Y-57650000D01*
X73650000Y-57650000D01*
X73650000Y-58150000D01*
G36*
X73650000Y-58150000D02*
G01*
X73150000Y-57650000D01*
X73650000Y-57650000D01*
X73650000Y-58150000D01*
G37*
%TO.C,C2*%
X95997836Y-62140000D02*
X95782164Y-62140000D01*
X95997836Y-62860000D02*
X95782164Y-62860000D01*
%TO.C,J4*%
X81140000Y-47930000D02*
X80660000Y-47930000D01*
X80900000Y-47600000D01*
X81140000Y-47930000D01*
G36*
X81140000Y-47930000D02*
G01*
X80660000Y-47930000D01*
X80900000Y-47600000D01*
X81140000Y-47930000D01*
G37*
%TO.C,C6*%
X95997836Y-57640000D02*
X95782164Y-57640000D01*
X95997836Y-58360000D02*
X95782164Y-58360000D01*
%TO.C,C8*%
X76550000Y-57487836D02*
X76550000Y-57272164D01*
X77270000Y-57487836D02*
X77270000Y-57272164D01*
%TO.C,C7*%
X95782164Y-56140000D02*
X95997836Y-56140000D01*
X95782164Y-56860000D02*
X95997836Y-56860000D01*
%TO.C,C11*%
X81390000Y-53959420D02*
X81390000Y-54240580D01*
X82410000Y-53959420D02*
X82410000Y-54240580D01*
%TO.C,J1*%
X101050000Y-61250000D02*
X101050000Y-61650000D01*
X101050000Y-61650000D02*
X101450000Y-61450000D01*
X101450000Y-61450000D02*
X101050000Y-61250000D01*
X103640000Y-46875000D02*
X104240000Y-46875000D01*
X103640000Y-46985000D02*
X103640000Y-46875000D01*
X103640000Y-64415000D02*
X103640000Y-64525000D01*
X103640000Y-64525000D02*
X104240000Y-64525000D01*
%TO.C,RV1*%
X74756359Y-51640000D02*
X75063641Y-51640000D01*
X74756359Y-52400000D02*
X75063641Y-52400000D01*
%TO.C,C1*%
X95997836Y-63640000D02*
X95782164Y-63640000D01*
X95997836Y-64360000D02*
X95782164Y-64360000D01*
%TO.C,C5*%
X95997836Y-51590000D02*
X95782164Y-51590000D01*
X95997836Y-52310000D02*
X95782164Y-52310000D01*
%TO.C,J2*%
X51270000Y-51890000D02*
X51270000Y-60840000D01*
X51270000Y-51890000D02*
X51840000Y-51890000D01*
X51270000Y-60840000D02*
X52292470Y-60840000D01*
X52600000Y-50495000D02*
X53930000Y-50495000D01*
X52907530Y-60840000D02*
X53930000Y-60840000D01*
X53360000Y-51890000D02*
X53930000Y-51890000D01*
X53930000Y-50495000D02*
X53930000Y-51255000D01*
X53930000Y-51890000D02*
X53930000Y-60840000D01*
%TO.C,J3*%
X73640000Y-47930000D02*
X73160000Y-47930000D01*
X73400000Y-47600000D01*
X73640000Y-47930000D01*
G36*
X73640000Y-47930000D02*
G01*
X73160000Y-47930000D01*
X73400000Y-47600000D01*
X73640000Y-47930000D01*
G37*
%TO.C,R7*%
X81520000Y-50376359D02*
X81520000Y-50683641D01*
X82280000Y-50376359D02*
X82280000Y-50683641D01*
%TO.C,U4*%
X81150000Y-56550000D02*
X81150000Y-57330000D01*
X81150000Y-56550000D02*
X82650000Y-56550000D01*
X82650000Y-56550000D02*
X82650000Y-57650000D01*
X82650000Y-57650000D02*
X81470000Y-57650000D01*
X81150000Y-58150000D02*
X80650000Y-57650000D01*
X81150000Y-57650000D01*
X81150000Y-58150000D01*
G36*
X81150000Y-58150000D02*
G01*
X80650000Y-57650000D01*
X81150000Y-57650000D01*
X81150000Y-58150000D01*
G37*
%TD*%
M02*
