%TF.GenerationSoftware,KiCad,Pcbnew,9.0.1+1*%
%TF.CreationDate,2025-05-28T20:00:15+08:00*%
%TF.ProjectId,audio_lab,61756469-6f5f-46c6-9162-2e6b69636164,rev?*%
%TF.SameCoordinates,Original*%
%TF.FileFunction,Soldermask,Top*%
%TF.FilePolarity,Negative*%
%FSLAX46Y46*%
G04 Gerber Fmt 4.6, Leading zero omitted, Abs format (unit mm)*
G04 Created by KiCad (PCBNEW 9.0.1+1) date 2025-05-28 20:00:15*
%MOMM*%
%LPD*%
G01*
G04 APERTURE LIST*
G04 Aperture macros list*
%AMRoundRect*
0 Rectangle with rounded corners*
0 $1 Rounding radius*
0 $2 $3 $4 $5 $6 $7 $8 $9 X,Y pos of 4 corners*
0 Add a 4 corners polygon primitive as box body*
4,1,4,$2,$3,$4,$5,$6,$7,$8,$9,$2,$3,0*
0 Add four circle primitives for the rounded corners*
1,1,$1+$1,$2,$3*
1,1,$1+$1,$4,$5*
1,1,$1+$1,$6,$7*
1,1,$1+$1,$8,$9*
0 Add four rect primitives between the rounded corners*
20,1,$1+$1,$2,$3,$4,$5,0*
20,1,$1+$1,$4,$5,$6,$7,0*
20,1,$1+$1,$6,$7,$8,$9,0*
20,1,$1+$1,$8,$9,$2,$3,0*%
%AMFreePoly0*
4,1,37,0.368890,0.884795,0.369244,0.884649,0.417242,0.843781,0.424649,0.829244,0.424795,0.828890,0.432500,0.790000,0.432500,0.270000,0.424795,0.231110,0.424649,0.230756,0.402479,0.197521,0.352500,0.147542,0.352500,-0.147542,0.402479,-0.197521,0.424649,-0.230756,0.424795,-0.231110,0.432500,-0.270000,0.432500,-0.790000,0.424795,-0.828890,0.424649,-0.829244,0.383781,-0.877242,
0.369244,-0.884649,0.368890,-0.884795,0.330000,-0.892500,0.250000,-0.892500,0.247476,-0.892000,-0.250000,-0.892000,-0.309954,-0.872520,-0.347008,-0.821520,-0.352000,-0.790000,-0.352000,0.790000,-0.332520,0.849954,-0.281520,0.887008,-0.250000,0.892000,0.247476,0.892000,0.250000,0.892500,0.330000,0.892500,0.368890,0.884795,0.368890,0.884795,$1*%
%AMFreePoly1*
4,1,37,-0.247476,0.892000,0.250000,0.892000,0.309954,0.872520,0.347008,0.821520,0.352000,0.790000,0.352000,-0.790000,0.332520,-0.849954,0.281520,-0.887008,0.250000,-0.892000,-0.247476,-0.892000,-0.250000,-0.892500,-0.330000,-0.892500,-0.368890,-0.884795,-0.369244,-0.884649,-0.417242,-0.843781,-0.424649,-0.829244,-0.424795,-0.828890,-0.432500,-0.790000,-0.432500,-0.270000,-0.424795,-0.231110,
-0.424649,-0.230756,-0.402479,-0.197521,-0.352500,-0.147542,-0.352500,0.147542,-0.402479,0.197521,-0.424649,0.230756,-0.424795,0.231110,-0.432500,0.270000,-0.432500,0.790000,-0.424795,0.828890,-0.424649,0.829244,-0.383781,0.877242,-0.369244,0.884649,-0.368890,0.884795,-0.330000,0.892500,-0.250000,0.892500,-0.247476,0.892000,-0.247476,0.892000,$1*%
G04 Aperture macros list end*
%ADD10RoundRect,0.135000X0.135000X0.185000X-0.135000X0.185000X-0.135000X-0.185000X0.135000X-0.185000X0*%
%ADD11RoundRect,0.140000X0.140000X0.170000X-0.140000X0.170000X-0.140000X-0.170000X0.140000X-0.170000X0*%
%ADD12RoundRect,0.135000X-0.185000X0.135000X-0.185000X-0.135000X0.185000X-0.135000X0.185000X0.135000X0*%
%ADD13RoundRect,0.140000X0.170000X-0.140000X0.170000X0.140000X-0.170000X0.140000X-0.170000X-0.140000X0*%
%ADD14RoundRect,0.135000X-0.135000X-0.185000X0.135000X-0.185000X0.135000X0.185000X-0.135000X0.185000X0*%
%ADD15RoundRect,0.225000X-0.250000X0.225000X-0.250000X-0.225000X0.250000X-0.225000X0.250000X0.225000X0*%
%ADD16C,0.230000*%
%ADD17RoundRect,0.102000X-0.300000X-0.275000X0.300000X-0.275000X0.300000X0.275000X-0.300000X0.275000X0*%
%ADD18FreePoly0,0.000000*%
%ADD19RoundRect,0.102000X-0.250000X-0.250000X0.250000X-0.250000X0.250000X0.250000X-0.250000X0.250000X0*%
%ADD20FreePoly1,0.000000*%
%ADD21RoundRect,0.140000X-0.140000X-0.170000X0.140000X-0.170000X0.140000X0.170000X-0.140000X0.170000X0*%
%ADD22R,1.600000X0.300000*%
%ADD23R,3.100000X2.300000*%
%ADD24R,1.000000X1.000000*%
%ADD25C,1.000000*%
G04 APERTURE END LIST*
G36*
X106100000Y-63300000D02*
G01*
X111600000Y-63300000D01*
X111600000Y-69300000D01*
X106100000Y-69300000D01*
X106100000Y-63300000D01*
G37*
G36*
X106100000Y-42100000D02*
G01*
X111600000Y-42100000D01*
X111600000Y-48100000D01*
X106100000Y-48100000D01*
X106100000Y-42100000D01*
G37*
G36*
X49600000Y-42100000D02*
G01*
X55100000Y-42100000D01*
X55100000Y-47600000D01*
X49600000Y-47600000D01*
X49600000Y-42100000D01*
G37*
G36*
X49600000Y-63800000D02*
G01*
X55100000Y-63800000D01*
X55100000Y-69300000D01*
X49600000Y-69300000D01*
X49600000Y-63800000D01*
G37*
D10*
%TO.C,R1*%
X96410000Y-53500000D03*
X95390000Y-53500000D03*
%TD*%
D11*
%TO.C,C4*%
X96370000Y-59500000D03*
X95410000Y-59500000D03*
%TD*%
D12*
%TO.C,R6*%
X74400000Y-50000000D03*
X74400000Y-51020000D03*
%TD*%
D11*
%TO.C,C3*%
X96370000Y-61000000D03*
X95410000Y-61000000D03*
%TD*%
D13*
%TO.C,C9*%
X84410000Y-57860000D03*
X84410000Y-56900000D03*
%TD*%
D14*
%TO.C,RV2*%
X81900000Y-52020000D03*
X82920000Y-52020000D03*
%TD*%
D15*
%TO.C,C10*%
X74400000Y-53325000D03*
X74400000Y-54875000D03*
%TD*%
D16*
%TO.C,U3*%
X74000000Y-57300000D03*
X74000000Y-56900000D03*
X74400000Y-57300000D03*
X74400000Y-56900000D03*
X74800000Y-57300000D03*
X74800000Y-56900000D03*
%TD*%
D11*
%TO.C,C2*%
X96370000Y-62500000D03*
X95410000Y-62500000D03*
%TD*%
D17*
%TO.C,J4*%
X81900000Y-47375000D03*
D18*
X80900000Y-46400000D03*
D19*
X81900000Y-45400000D03*
D20*
X82900000Y-46400000D03*
%TD*%
D11*
%TO.C,C6*%
X96370000Y-58000000D03*
X95410000Y-58000000D03*
%TD*%
D13*
%TO.C,C8*%
X76910000Y-57860000D03*
X76910000Y-56900000D03*
%TD*%
D21*
%TO.C,C7*%
X95410000Y-56500000D03*
X96370000Y-56500000D03*
%TD*%
D15*
%TO.C,C11*%
X81900000Y-53325000D03*
X81900000Y-54875000D03*
%TD*%
D22*
%TO.C,J1*%
X100000000Y-61450000D03*
X100000000Y-60950000D03*
X100000000Y-60450000D03*
X100000000Y-59950000D03*
X100000000Y-59450000D03*
X100000000Y-58950000D03*
X100000000Y-58450000D03*
X100000000Y-57950000D03*
X100000000Y-57450000D03*
X100000000Y-56950000D03*
X100000000Y-56450000D03*
X100000000Y-55950000D03*
X100000000Y-55450000D03*
X100000000Y-54950000D03*
X100000000Y-54450000D03*
X100000000Y-53950000D03*
X100000000Y-53450000D03*
X100000000Y-52950000D03*
X100000000Y-52450000D03*
X100000000Y-51950000D03*
X100000000Y-51450000D03*
X100000000Y-50950000D03*
X100000000Y-50450000D03*
X100000000Y-49950000D03*
D23*
X101950000Y-63120000D03*
X101950000Y-48280000D03*
%TD*%
D14*
%TO.C,RV1*%
X74400000Y-52020000D03*
X75420000Y-52020000D03*
%TD*%
D11*
%TO.C,C1*%
X96370000Y-64000000D03*
X95410000Y-64000000D03*
%TD*%
%TO.C,C5*%
X96370000Y-51950000D03*
X95410000Y-51950000D03*
%TD*%
D24*
%TO.C,J2*%
X52600000Y-51325000D03*
D25*
X52600000Y-52575000D03*
X52600000Y-53825000D03*
X52600000Y-55075000D03*
X52600000Y-56325000D03*
X52600000Y-57575000D03*
X52600000Y-58825000D03*
X52600000Y-60075000D03*
%TD*%
D17*
%TO.C,J3*%
X74400000Y-47375000D03*
D18*
X73400000Y-46400000D03*
D19*
X74400000Y-45400000D03*
D20*
X75400000Y-46400000D03*
%TD*%
D12*
%TO.C,R7*%
X81900000Y-50020000D03*
X81900000Y-51040000D03*
%TD*%
D16*
%TO.C,U4*%
X81500000Y-57300000D03*
X81500000Y-56900000D03*
X81900000Y-57300000D03*
X81900000Y-56900000D03*
X82300000Y-57300000D03*
X82300000Y-56900000D03*
%TD*%
M02*
