M48
; DRILL file {KiCad 9.0.1+1} date 2025-05-28T20:00:20+0800
; FORMAT={3:3/ absolute / metric / suppress leading zeros}
; #@! TF.CreationDate,2025-05-28T20:00:20+08:00
; #@! TF.GenerationSoftware,Kicad,Pcbnew,9.0.1+1
; #@! TF.FileFunction,Plated,1,2,PTH
FMAT,2
METRIC,TZ
; #@! TA.AperFunction,Plated,PTH,ViaDrill
T1C0.300
; #@! TA.AperFunction,Plated,PTH,ComponentDrill
T2C0.600
%
G90
G05
T1
X52600Y-48300
X52600Y-63100
X58100Y-43500
X58100Y-50800
X58100Y-67900
X65600Y-43500
X65600Y-67900
X72400Y-59100
X72410Y-46600
X72410Y-52400
X73100Y-43500
X73100Y-55600
X73100Y-67900
X73110Y-50000
X73110Y-57300
X73910Y-58600
X75210Y-58600
X75610Y-50000
X76010Y-57700
X76310Y-53400
X77810Y-56600
X78210Y-46500
X79800Y-59100
X80600Y-43500
X80600Y-67900
X80610Y-50000
X80620Y-55600
X80620Y-57300
X81710Y-58600
X83010Y-58600
X83110Y-50000
X83510Y-57700
X83810Y-53400
X84410Y-46500
X85310Y-56600
X87800Y-54500
X87800Y-56600
X87800Y-59100
X88100Y-43500
X88100Y-67900
X94100Y-52000
X94100Y-54800
X94100Y-59600
X94100Y-62600
X94100Y-64100
X94600Y-53500
X95600Y-43500
X95600Y-67900
X96400Y-54400
X97500Y-54400
X97600Y-56300
X97700Y-58100
X98100Y-47400
X98100Y-64100
X98400Y-56800
X101700Y-57950
X103100Y-43500
X103100Y-50800
X103100Y-60600
X103100Y-67900
T2
X52600Y-51325
X52600Y-52575
X52600Y-53825
X52600Y-55075
X52600Y-56325
X52600Y-57575
X52600Y-58825
X52600Y-60075
M30
